<?xml version="1.0" encoding="utf-8"?>
<!-- 
  Copyright (c) 2022, WSO2 LLC. (http://www.wso2.com). All Rights Reserved.
 
 - This software is the property of WSO2 Inc. and its suppliers, if any.
 - Dissemination of any information or reproduction of any material contained
 - herein is strictly forbidden, unless permitted by WSO2 in accordance with
 - the WSO2 Commercial License available at http://wso2.com/licenses.
 - For specific language governing the permissions and limitations under
 - this license, please see the license as well as any agreement you’ve
 - entered into with WSO2 governing the purchase of this software and any
 - associated services.
 -->
 <svg version="1.1" id="Layer_1" x="0px" y="0px" viewBox="0 0 16 16">
<path d="M3.7,11c0.9,0,1.7-0.5,2.1-1.2h0v1.1h1.1V6.5c0-1.3-1-2.1-2.6-2.1c-1.6,0-2.6,0.9-2.6,2h1.1
	c0.1-0.6,0.7-1,1.5-1c0.9,0,1.5,0.5,1.5,1.3v0.5L3.9,7.2C2.4,7.3,1.5,8,1.5,9.1C1.5,10.2,2.4,11,3.7,11z M11.7,13.4
	c1.7,0,2.8-1.3,2.8-3.3c0-2-1.1-3.3-2.8-3.3c-0.9,0-1.7,0.4-2.1,1.2h0V4.4H8.4v8.9h1.1v-1.1h0C9.9,12.9,10.7,13.4,11.7,13.4z
	 M11.5,7.7c1.2,0,1.9,0.9,1.9,2.4c0,1.5-0.7,2.4-1.9,2.4c-1.1,0-1.9-0.9-1.9-2.4C9.5,8.6,10.3,7.7,11.5,7.7z M2.6,9.1
	c0,0.6,0.5,1,1.3,1c1.1,0,1.9-0.7,1.9-1.6V7.9L4,8C3.1,8.1,2.6,8.5,2.6,9.1z M1,12.3H0v2v1h1h14h1v-1v-2h-1v2H1V12.3z"/>
</svg>
