<?xml version="1.0" encoding="utf-8"?>
<!-- 
  Copyright (c) 2022, WSO2 LLC. (http://www.wso2.com). All Rights Reserved.
 
 - This software is the property of WSO2 Inc. and its suppliers, if any.
 - Dissemination of any information or reproduction of any material contained
 - herein is strictly forbidden, unless permitted by WSO2 in accordance with
 - the WSO2 Commercial License available at http://wso2.com/licenses.
 - For specific language governing the permissions and limitations under
 - this license, please see the license as well as any agreement you’ve
 - entered into with WSO2 governing the purchase of this software and any
 - associated services.
 -->
 <svg version="1.1" id="Layer_1" x="0px" y="0px" viewBox="0 0 16 16">
<path d="M8.9,0l0,5.4l3.7,0L7.3,16l0-6.6H3.5L8.9,0z M11,0.6c3,1.2,5,4.1,5,7.4c0,3.6-2.4,6.7-5.8,7.7c-0.3,0.1-0.5-0.1-0.6-0.3
	c-0.1-0.3,0.1-0.5,0.3-0.6c3-0.8,5.1-3.6,5.1-6.7c0-2.9-1.8-5.5-4.4-6.5c-0.3-0.1-0.4-0.4-0.3-0.6C10.4,0.6,10.7,0.5,11,0.6z
	 M6.5,0.6c0.1,0.3-0.1,0.5-0.4,0.6C3.1,2.1,1,4.8,1,8c0,2.9,1.8,5.4,4.4,6.5c0.3,0.1,0.4,0.4,0.3,0.6c-0.1,0.3-0.4,0.4-0.6,0.3
	C2,14.2,0,11.3,0,8c0-3.6,2.5-6.8,5.9-7.7C6.2,0.2,6.5,0.4,6.5,0.6z M7.3,6.1l-1,1.8h2.6l0,1.4L10,7L7.3,7L7.3,6.1z"/>
</svg>
