<?xml version="1.0" encoding="utf-8"?>
<!-- 
  Copyright (c) 2022, WSO2 LLC. (http://www.wso2.com). All Rights Reserved.
 
 - This software is the property of WSO2 Inc. and its suppliers, if any.
 - Dissemination of any information or reproduction of any material contained
 - herein is strictly forbidden, unless permitted by WSO2 in accordance with
 - the WSO2 Commercial License available at http://wso2.com/licenses.
 - For specific language governing the permissions and limitations under
 - this license, please see the license as well as any agreement you’ve
 - entered into with WSO2 governing the purchase of this software and any
 - associated services.
 -->
 <svg version="1.1" id="Layer_1" x="0px" y="0px" viewBox="0 0 16 16">
<path class="st0" d="M5.5,0C4.1,0,3,1.1,3,2.5S4.1,5,5.5,5S8,3.9,8,2.5S6.9,0,5.5,0z M5.5,1C6.3,1,7,1.7,7,2.5S6.3,4,5.5,4
	S4,3.3,4,2.5S4.7,1,5.5,1z M0,12h1h6v-1H1c0.3-2.3,2.2-4,4.5-4c1.6,0,3,0.8,3.8,2.1l0.8-0.5C9.1,7,7.4,6,5.5,6C2.6,6,0.3,8.2,0,11
	c0,0.2,0,0.4,0,0.6V12z M12,8c0.3,0,0.5,0.2,0.5,0.5V11H15c0.3,0,0.5,0.2,0.5,0.5S15.3,12,15,12h-2.5v2.5c0,0.3-0.2,0.5-0.5,0.5
	s-0.5-0.2-0.5-0.5V12H9c-0.3,0-0.5-0.2-0.5-0.5S8.7,11,9,11h2.5V8.5C11.5,8.2,11.7,8,12,8z"/>
</svg>
