<?xml version="1.0" encoding="utf-8"?>
<!-- 
  Copyright (c) 2022, WSO2 LLC. (http://www.wso2.com). All Rights Reserved.
 
 - This software is the property of WSO2 Inc. and its suppliers, if any.
 - Dissemination of any information or reproduction of any material contained
 - herein is strictly forbidden, unless permitted by WSO2 in accordance with
 - the WSO2 Commercial License available at http://wso2.com/licenses.
 - For specific language governing the permissions and limitations under
 - this license, please see the license as well as any agreement you’ve
 - entered into with WSO2 governing the purchase of this software and any
 - associated services.
 -->
 <svg version="1.1" id="Layer_1" x="0px" y="0px" viewBox="0 0 16 16">
<path class="st0" d="M8.5,0v7.5H16V6.9C16,3.1,12.9,0,9.1,0H8.5z M9.6,1.1l0.2,0c2.7,0.3,4.8,2.4,5.1,5.1l0,0.2H9.6V1.1z M7.5,8.5
	V2.1H6.9C3.1,2.1,0,5.2,0,9.1C0,12.9,3.1,16,6.9,16c3.8,0,6.9-3.1,6.9-6.9V8.5H7.5z M6.4,3.2v6.4h6.4l0,0.2
	c-0.3,2.9-2.8,5.2-5.8,5.2c-3.2,0-5.9-2.6-5.9-5.9c0-3,2.3-5.5,5.2-5.8L6.4,3.2z"/>
</svg>
