<?xml version="1.0" encoding="utf-8"?>
<!-- 
  Copyright (c) 2022, WSO2 LLC. (http://www.wso2.com). All Rights Reserved.
 
 - This software is the property of WSO2 Inc. and its suppliers, if any.
 - Dissemination of any information or reproduction of any material contained
 - herein is strictly forbidden, unless permitted by WSO2 in accordance with
 - the WSO2 Commercial License available at http://wso2.com/licenses.
 - For specific language governing the permissions and limitations under
 - this license, please see the license as well as any agreement you’ve
 - entered into with WSO2 governing the purchase of this software and any
 - associated services.
 -->
 <svg version="1.1" id="Layer_1" x="0px" y="0px" viewBox="0 0 16 16">
<path class="st0" d="M8.5,7.5h1.3h4.8H16V6.9c0-0.3,0-0.5,0-0.8C15.6,2.9,13.1,0.4,9.9,0C9.6,0,9.3,0,9.1,0H8.5v1.3v4.8V7.5z
	 M9.9,1.4c2.5,0.4,4.4,2.3,4.7,4.7H9.9V1.4z M6.1,8.5v1.3h1.3h5c-0.4,2.7-2.7,4.8-5.5,4.8c-3.1,0-5.6-2.5-5.6-5.6
	c0-2.8,2.1-5.2,4.8-5.5V8.5z M13.9,8.5h-1.3H8.8H7.5V7.2V3.5V2.1H6.9c-0.3,0-0.5,0-0.8,0C2.7,2.6,0,5.5,0,9.1C0,12.9,3.1,16,6.9,16
	c3.6,0,6.5-2.7,6.9-6.1c0-0.3,0-0.5,0-0.8V8.5z"/>
</svg>
