<?xml version="1.0" encoding="utf-8"?>
<!-- 
  Copyright (c) 2022, WSO2 LLC. (http://www.wso2.com). All Rights Reserved.
 
 - This software is the property of WSO2 Inc. and its suppliers, if any.
 - Dissemination of any information or reproduction of any material contained
 - herein is strictly forbidden, unless permitted by WSO2 in accordance with
 - the WSO2 Commercial License available at http://wso2.com/licenses.
 - For specific language governing the permissions and limitations under
 - this license, please see the license as well as any agreement you’ve
 - entered into with WSO2 governing the purchase of this software and any
 - associated services.
 -->
 <svg version="1.1" id="Layer_1" x="0px" y="0px" viewBox="0 0 16 16">
<path class="st0" d="M8.7,1.4h3.5c1.3,0,2.4,1.1,2.4,2.4v8.5c0,1.3-1.1,2.4-2.4,2.4H8.7v-3.9c1-0.3,1.6-1.2,1.6-2.2
	c0-1.3-1.1-2.4-2.4-2.4c-1.3,0-2.4,1.1-2.4,2.4c0,1.1,0.7,1.9,1.6,2.2v3.9H3.8c-1.3,0-2.4-1.1-2.4-2.4V3.8c0-1.3,1.1-2.4,2.4-2.4
	h3.5v1.4C6.1,3,4.9,3.5,4,4.4c-2.2,2.2-2.2,5.8,0,8.1c0.3,0.3,0.7,0.3,1,0c0.3-0.3,0.3-0.7,0-1C3.3,9.8,3.3,7.1,5,5.4
	c1.7-1.7,4.4-1.7,6.1,0c1.7,1.7,1.7,4.4,0,6.1c-0.3,0.3-0.3,0.7,0,1c0.3,0.3,0.7,0.3,1,0c2.2-2.2,2.2-5.8,0-8.1
	C11.1,3.5,9.9,3,8.7,2.8V1.4z M0,3.8C0,1.7,1.7,0,3.8,0h8.5C14.3,0,16,1.7,16,3.8v8.5c0,2.1-1.7,3.8-3.8,3.8H3.8
	C1.7,16,0,14.3,0,12.2V3.8z M8,9.4c0.5,0,0.9-0.4,0.9-0.9C8.9,8,8.5,7.5,8,7.5S7.1,8,7.1,8.5C7.1,9,7.5,9.4,8,9.4z"/>
</svg>
