<?xml version="1.0" encoding="utf-8"?>
<!-- 
  Copyright (c) 2022, WSO2 LLC. (http://www.wso2.com). All Rights Reserved.
 
 - This software is the property of WSO2 Inc. and its suppliers, if any.
 - Dissemination of any information or reproduction of any material contained
 - herein is strictly forbidden, unless permitted by WSO2 in accordance with
 - the WSO2 Commercial License available at http://wso2.com/licenses.
 - For specific language governing the permissions and limitations under
 - this license, please see the license as well as any agreement you’ve
 - entered into with WSO2 governing the purchase of this software and any
 - associated services.
 -->
 <svg version="1.1" id="Layer_1" x="0px" y="0px" viewBox="0 0 16 16">
<path class="st0" d="M2.5-0.2C1-0.2-0.2,1-0.2,2.5v11c0,1.5,1.2,2.8,2.8,2.8h11c1.5,0,2.8-1.2,2.8-2.8v-11c0-1.5-1.2-2.8-2.8-2.8
	H2.5z M6.2,4c0-0.4-0.3-0.8-0.8-0.8S4.8,3.6,4.8,4v1.2H4C3.6,5.2,3.2,5.6,3.2,6S3.6,6.8,4,6.8h0.8V12c0,0.4,0.3,0.8,0.8,0.8
	s0.8-0.3,0.8-0.8V6.8H7c0.4,0,0.8-0.3,0.8-0.8S7.4,5.2,7,5.2H6.2V4z M10.5,3.2c0.4,0,0.8,0.3,0.8,0.8v5.2H12c0.4,0,0.8,0.3,0.8,0.8
	s-0.3,0.8-0.8,0.8h-0.8V12c0,0.4-0.3,0.8-0.8,0.8S9.8,12.4,9.8,12v-1.2H9c-0.4,0-0.8-0.3-0.8-0.8S8.6,9.2,9,9.2h0.8V4
	C9.8,3.6,10.1,3.2,10.5,3.2z"/>
</svg>
