<?xml version="1.0" encoding="utf-8"?>
<!-- 
  Copyright (c) 2022, WSO2 LLC. (http://www.wso2.com). All Rights Reserved.
 
 - This software is the property of WSO2 Inc. and its suppliers, if any.
 - Dissemination of any information or reproduction of any material contained
 - herein is strictly forbidden, unless permitted by WSO2 in accordance with
 - the WSO2 Commercial License available at http://wso2.com/licenses.
 - For specific language governing the permissions and limitations under
 - this license, please see the license as well as any agreement you’ve
 - entered into with WSO2 governing the purchase of this software and any
 - associated services.
 -->
 <svg version="1.1" id="Layer_1" x="0px" y="0px" viewBox="0 0 16 16">
<path class="st0" d="M0,2.7C0,1.2,1.2,0,2.7,0h10.7C14.8,0,16,1.2,16,2.7v10.7c0,1.5-1.2,2.7-2.7,2.7H2.7C1.2,16,0,14.8,0,13.3V2.7z
	 M2.7,1.5C2,1.5,1.5,2,1.5,2.7v10.7c0,0.7,0.5,1.2,1.2,1.2h10.7c0.7,0,1.2-0.5,1.2-1.2V2.7c0-0.7-0.5-1.2-1.2-1.2H2.7z M5.6,3.4
	c0.4,0,0.7,0.3,0.7,0.7v1.2H7c0.4,0,0.7,0.3,0.7,0.7S7.4,6.8,7,6.8H6.3v5.1c0,0.4-0.3,0.7-0.7,0.7s-0.7-0.3-0.7-0.7V6.8H4.1
	c-0.4,0-0.7-0.3-0.7-0.7s0.3-0.7,0.7-0.7h0.7V4.1C4.8,3.7,5.2,3.4,5.6,3.4z M11.2,4.1c0-0.4-0.3-0.7-0.7-0.7c-0.4,0-0.7,0.3-0.7,0.7
	v5.1H9c-0.4,0-0.7,0.3-0.7,0.7s0.3,0.7,0.7,0.7h0.7v1.2c0,0.4,0.3,0.7,0.7,0.7c0.4,0,0.7-0.3,0.7-0.7v-1.2h0.7
	c0.4,0,0.7-0.3,0.7-0.7s-0.3-0.7-0.7-0.7h-0.7V4.1z"/>
</svg>
