<?xml version="1.0" encoding="utf-8"?>
<!-- 
  Copyright (c) 2022, WSO2 LLC. (http://www.wso2.com). All Rights Reserved.
 
 - This software is the property of WSO2 Inc. and its suppliers, if any.
 - Dissemination of any information or reproduction of any material contained
 - herein is strictly forbidden, unless permitted by WSO2 in accordance with
 - the WSO2 Commercial License available at http://wso2.com/licenses.
 - For specific language governing the permissions and limitations under
 - this license, please see the license as well as any agreement you’ve
 - entered into with WSO2 governing the purchase of this software and any
 - associated services.
 -->
 <svg version="1.1" id="Layer_1" x="0px" y="0px" viewBox="0 0 16 16">
<path d="M3.6,9.1C3.8,9.4,3.7,9.8,3.3,10l-1.8,1c0,0-0.1,0.1-0.1,0.1c0,0.1,0,0.2,0.1,0.3l0,0l6,3.2c0.3,0.2,0.6,0.2,0.9,0.1
	l0.1-0.1l6-3.1c0,0,0.1-0.1,0.1-0.1c0.1-0.1,0-0.2-0.1-0.3l-1.8-1c-0.3-0.2-0.5-0.6-0.3-0.9c0.2-0.3,0.6-0.5,0.9-0.3l1.8,1
	c0.8,0.4,1.1,1.4,0.7,2.1c-0.1,0.2-0.3,0.4-0.5,0.6l-0.1,0.1l-6,3.1c-0.7,0.4-1.5,0.4-2.2,0.1l-0.1-0.1l-6-3.2
	c-0.8-0.4-1.1-1.4-0.7-2.1c0.1-0.3,0.4-0.5,0.7-0.7l1.8-1C3,8.6,3.4,8.7,3.6,9.1z M6.8,0.3c0.7-0.4,1.6-0.4,2.3,0l6,3.2
	c0.8,0.4,1.1,1.4,0.7,2.1c-0.1,0.3-0.4,0.5-0.7,0.7l-6,3.1c-0.7,0.4-1.6,0.4-2.3,0l-6-3.2C0.1,5.8-0.2,4.9,0.2,4.1
	c0.1-0.3,0.4-0.5,0.7-0.7L6.8,0.3z M8.5,1.5c-0.3-0.2-0.7-0.2-1.1,0l-6,3.1c0,0-0.1,0.1-0.1,0.1C1.4,4.8,1.4,5,1.5,5l6,3.2
	c0.3,0.2,0.7,0.2,1.1,0l6-3.1c0,0,0.1-0.1,0.1-0.1c0.1-0.1,0-0.2-0.1-0.3L8.5,1.5z"/>
</svg>
