<?xml version="1.0" encoding="utf-8"?>
<!-- 
  Copyright (c) 2022, WSO2 LLC. (http://www.wso2.com). All Rights Reserved.
 
 - This software is the property of WSO2 Inc. and its suppliers, if any.
 - Dissemination of any information or reproduction of any material contained
 - herein is strictly forbidden, unless permitted by WSO2 in accordance with
 - the WSO2 Commercial License available at http://wso2.com/licenses.
 - For specific language governing the permissions and limitations under
 - this license, please see the license as well as any agreement you’ve
 - entered into with WSO2 governing the purchase of this software and any
 - associated services.
 -->
 <svg version="1.1" id="Layer_1" x="0px" y="0px" viewBox="0 0 16 16">
<path d="M8,0c0.3,0,0.5,0.2,0.5,0.5S8.3,1,8,1C4.1,1,1,4.1,1,8c0,3.9,3.1,7,7,7c3.9,0,7-3.1,7-7c0-0.3,0.2-0.5,0.5-0.5S16,7.7,16,8
	c0,4.4-3.6,8-8,8c-4.4,0-8-3.6-8-8C0,3.6,3.6,0,8,0z M8.4,3c0.1,0.1,0.2,0.2,0.3,0.3l0.1,0.1l3.9,7.5c0.2,0.4,0,0.8-0.3,1
	c-0.3,0.2-0.7,0.1-1-0.2l-0.1-0.1l-1.2-2.3H5.9l-1.2,2.3c-0.2,0.3-0.6,0.5-0.9,0.4l-0.1,0c-0.3-0.2-0.5-0.6-0.4-0.9l0-0.1l3.9-7.5
	C7.4,3,8,2.8,8.4,3z M8,5.2L6.7,7.8h2.7L8,5.2z M15.3,0.5c0.2,0.2,0.2,0.4,0.1,0.6l-0.1,0.1L12,5.3l-2.2-3C9.6,2.1,9.6,1.8,9.9,1.7
	c0.2-0.1,0.5-0.1,0.6,0l0.1,0.1L12,3.7l2.6-3.1C14.8,0.4,15.1,0.3,15.3,0.5z"/>
</svg>
