<?xml version="1.0" encoding="utf-8"?>
<!-- 
  Copyright (c) 2022, WSO2 LLC. (http://www.wso2.com). All Rights Reserved.
 
 - This software is the property of WSO2 Inc. and its suppliers, if any.
 - Dissemination of any information or reproduction of any material contained
 - herein is strictly forbidden, unless permitted by WSO2 in accordance with
 - the WSO2 Commercial License available at http://wso2.com/licenses.
 - For specific language governing the permissions and limitations under
 - this license, please see the license as well as any agreement you’ve
 - entered into with WSO2 governing the purchase of this software and any
 - associated services.
 -->
 <svg version="1.1" id="Layer_1" x="0px" y="0px" viewBox="0 0 16 16">
<path class="st0" d="M14.9,0.7c0-0.2-0.2-0.4-0.5-0.4l-0.1,0c-0.2,0-0.4,0.2-0.4,0.5l-0.2,3.1C12.4,2.1,10.3,1,8,1C4.1,1,1,4.1,1,8
	c0,3.9,3.1,7,7,7c1.8,0,3.5-0.7,4.8-1.9c0.6-0.6,1.2-1.3,1.5-2.1c0.1-0.3,0-0.5-0.2-0.7s-0.5,0-0.7,0.2c-0.3,0.7-0.8,1.3-1.3,1.8
	C11,13.4,9.6,14,8,14c-3.3,0-6-2.7-6-6c0-3.3,2.7-6,6-6c1.9,0,3.7,0.9,4.8,2.4L9.9,4.2l-0.1,0c-0.2,0-0.4,0.2-0.4,0.5
	c0,0.3,0.2,0.5,0.5,0.5l4.7,0.3L14.9,0.7L14.9,0.7z"/>
</svg>
