<?xml version="1.0" encoding="utf-8"?>
<!-- 
  Copyright (c) 2022, WSO2 LLC. (http://www.wso2.com). All Rights Reserved.
 
 - This software is the property of WSO2 Inc. and its suppliers, if any.
 - Dissemination of any information or reproduction of any material contained
 - herein is strictly forbidden, unless permitted by WSO2 in accordance with
 - the WSO2 Commercial License available at http://wso2.com/licenses.
 - For specific language governing the permissions and limitations under
 - this license, please see the license as well as any agreement you’ve
 - entered into with WSO2 governing the purchase of this software and any
 - associated services.
 -->
 <svg version="1.1" id="Layer_1" x="0px" y="0px" viewBox="0 0 16 16">
<path class="st0" d="M7.5,5.5c0-2,1.5-3.7,3.4-4C10.7,1.3,10.5,1,10.1,1L10,1H3C2.5,1,2.1,1.4,2,1.9L2,2v12.3l4.5-2.5l4.5,2.5V9.5
	C9,9.2,7.5,7.5,7.5,5.5z M10,0c0.9,0,1.7,0.6,1.9,1.5c2,0.2,3.6,1.9,3.6,4c0,2-1.5,3.7-3.5,4V16l-5.5-3L1,16V2c0-1.1,0.9-2,2-2H10z
	 M14.5,5.5c0,1.5-1.1,2.7-2.5,3c-0.2,0-0.3,0-0.5,0s-0.3,0-0.5,0C9.6,8.2,8.5,7,8.5,5.5s1.1-2.7,2.5-3c0.2,0,0.3,0,0.5,0
	s0.3,0,0.5,0C13.4,2.8,14.5,4,14.5,5.5z"/>
</svg>
