<?xml version="1.0" encoding="utf-8"?>
<!-- 
  Copyright (c) 2022, WSO2 LLC. (http://www.wso2.com). All Rights Reserved.
 
 - This software is the property of WSO2 Inc. and its suppliers, if any.
 - Dissemination of any information or reproduction of any material contained
 - herein is strictly forbidden, unless permitted by WSO2 in accordance with
 - the WSO2 Commercial License available at http://wso2.com/licenses.
 - For specific language governing the permissions and limitations under
 - this license, please see the license as well as any agreement you’ve
 - entered into with WSO2 governing the purchase of this software and any
 - associated services.
 -->
 <svg version="1.1" id="Layer_1" x="0px" y="0px" viewBox="0 0 16 16">
<path class="st0" d="M3,5c1.1,0,2-0.9,2-2S4.1,1,3,1S1,1.9,1,3S1.9,5,3,5z M3.5,6C4.9,5.7,6,4.5,6,3c0-1.7-1.3-3-3-3S0,1.3,0,3
	c0,1.5,1.1,2.7,2.5,3V10C1.1,10.3,0,11.5,0,13c0,1.7,1.3,3,3,3s3-1.3,3-3c0-1.5-1-2.7-2.4-2.9C3.8,9.4,4.3,9,5,9h6
	c1.4,0,2.5-1.1,2.5-2.5V6C14.9,5.7,16,4.5,16,3c0-1.7-1.3-3-3-3s-3,1.3-3,3c0,1.5,1.1,2.7,2.5,3v0.5C12.5,7.3,11.8,8,11,8H5
	C4.4,8,3.9,8.2,3.5,8.5V6z M3,15c1.1,0,2-0.9,2-2s-0.9-2-2-2s-2,0.9-2,2S1.9,15,3,15z M15,3c0,1.1-0.9,2-2,2s-2-0.9-2-2s0.9-2,2-2
	S15,1.9,15,3z"/>
</svg>
