<?xml version="1.0" encoding="utf-8"?>
<!-- 
  Copyright (c) 2022, WSO2 LLC. (http://www.wso2.com). All Rights Reserved.
 
 - This software is the property of WSO2 Inc. and its suppliers, if any.
 - Dissemination of any information or reproduction of any material contained
 - herein is strictly forbidden, unless permitted by WSO2 in accordance with
 - the WSO2 Commercial License available at http://wso2.com/licenses.
 - For specific language governing the permissions and limitations under
 - this license, please see the license as well as any agreement you’ve
 - entered into with WSO2 governing the purchase of this software and any
 - associated services.
 -->
 <svg version="1.1" id="Layer_1" x="0px" y="0px" viewBox="0 0 16 16">
<path class="st0" d="M12,5c0,2.2-1.8,4-4,4C5.8,9,4,7.2,4,5s1.8-4,4-4C10.2,1,12,2.8,12,5z M10,9.6C9.4,9.9,8.7,10,8,10
	S6.6,9.9,6,9.6V12c0,0.3,0.2,0.5,0.5,0.5h3c0.3,0,0.5-0.2,0.5-0.5V9.6z M11,9c1.2-0.9,2-2.4,2-4c0-2.8-2.2-5-5-5C5.2,0,3,2.2,3,5
	c0,1.6,0.8,3.1,2,4v3c0,0.8,0.7,1.5,1.5,1.5V14c0,0.8,0.7,1.5,1.5,1.5s1.5-0.7,1.5-1.5v-0.5c0.8,0,1.5-0.7,1.5-1.5V9z M7.5,14v-0.5
	h1V14c0,0.3-0.2,0.5-0.5,0.5S7.5,14.3,7.5,14z M11,5.5C11,5.2,10.8,5,10.5,5S10,5.2,10,5.5C10,6.3,9.3,7,8.5,7C8.2,7,8,7.2,8,7.5
	S8.2,8,8.5,8C9.9,8,11,6.9,11,5.5z"/>
</svg>
