<?xml version="1.0" encoding="utf-8"?>
<!-- 
  Copyright (c) 2022, WSO2 LLC. (http://www.wso2.com). All Rights Reserved.
 
 - This software is the property of WSO2 Inc. and its suppliers, if any.
 - Dissemination of any information or reproduction of any material contained
 - herein is strictly forbidden, unless permitted by WSO2 in accordance with
 - the WSO2 Commercial License available at http://wso2.com/licenses.
 - For specific language governing the permissions and limitations under
 - this license, please see the license as well as any agreement you’ve
 - entered into with WSO2 governing the purchase of this software and any
 - associated services.
 -->
 <svg version="1.1" id="Layer_1" x="0px" y="0px" viewBox="0 0 16 16">
<path class="st0" d="M4,0c0.2,0,0.4,0.2,0.5,0.4l0,0.1V2h7V0.5C11.5,0.2,11.7,0,12,0c0.2,0,0.4,0.2,0.5,0.4l0,0.1V2H14
	c1.1,0,2,0.9,2,2v10c0,1.1-0.9,2-2,2H2c-1.1,0-2-0.9-2-2V4c0-1.1,0.9-2,2-2h1.5V0.5C3.5,0.2,3.7,0,4,0z M3.5,3H2C1.4,3,1,3.4,1,4v10
	c0,0.6,0.4,1,1,1h12c0.6,0,1-0.4,1-1V4c0-0.6-0.4-1-1-1h-1.5v1c0,0.3-0.2,0.5-0.5,0.5c-0.2,0-0.4-0.2-0.5-0.4l0-0.1V3h-7v1
	c0,0.3-0.2,0.5-0.5,0.5c-0.2,0-0.4-0.2-0.5-0.4l0-0.1V3z M4,11c0.2,0,0.4,0.2,0.5,0.4l0,0.1V12c0,0.3-0.2,0.5-0.5,0.5
	c-0.2,0-0.4-0.2-0.5-0.4l0-0.1v-0.5C3.5,11.2,3.7,11,4,11z M8.5,11.4C8.4,11.2,8.2,11,8,11c-0.3,0-0.5,0.2-0.5,0.5V12l0,0.1
	c0,0.2,0.2,0.4,0.5,0.4c0.3,0,0.5-0.2,0.5-0.5L8.5,11.4L8.5,11.4z M12,11c0.2,0,0.4,0.2,0.5,0.4l0,0.1V12c0,0.3-0.2,0.5-0.5,0.5
	c-0.2,0-0.4-0.2-0.5-0.4l0-0.1v-0.5C11.5,11.2,11.7,11,12,11z M4.5,7.4C4.4,7.2,4.2,7,4,7C3.7,7,3.5,7.2,3.5,7.5V8l0,0.1
	c0,0.2,0.2,0.4,0.5,0.4c0.3,0,0.5-0.2,0.5-0.5L4.5,7.4L4.5,7.4z M8,7c0.2,0,0.4,0.2,0.5,0.4l0,0.1V8c0,0.3-0.2,0.5-0.5,0.5
	c-0.2,0-0.4-0.2-0.5-0.4l0-0.1V7.5C7.5,7.2,7.7,7,8,7z M12.5,7.4C12.4,7.2,12.2,7,12,7c-0.3,0-0.5,0.2-0.5,0.5V8l0,0.1
	c0,0.2,0.2,0.4,0.5,0.4c0.3,0,0.5-0.2,0.5-0.5L12.5,7.4L12.5,7.4z"/>
</svg>
