<?xml version="1.0" encoding="utf-8"?>
<!-- 
  Copyright (c) 2022, WSO2 LLC. (http://www.wso2.com). All Rights Reserved.
 
 - This software is the property of WSO2 Inc. and its suppliers, if any.
 - Dissemination of any information or reproduction of any material contained
 - herein is strictly forbidden, unless permitted by WSO2 in accordance with
 - the WSO2 Commercial License available at http://wso2.com/licenses.
 - For specific language governing the permissions and limitations under
 - this license, please see the license as well as any agreement you’ve
 - entered into with WSO2 governing the purchase of this software and any
 - associated services.
 -->
 <svg version="1.1" id="Layer_1" x="0px" y="0px" viewBox="0 0 16 16">
<path class="st0" d="M11,0c1.1,0,2,0.9,2,2v3.3c-0.3-0.1-0.7-0.2-1-0.3V2c0-0.5-0.4-0.9-0.9-1L11,1H2C1.5,1,1.1,1.4,1,1.9L1,2v12
	c0,0.5,0.4,0.9,0.9,1L2,15h4.5c0.3,0.4,0.7,0.7,1.2,1H2c-1.1,0-2-0.9-2-2V2c0-1.1,0.9-2,2-2H11z M3.5,4C3.2,4,3,4.2,3,4.5
	S3.2,5,3.5,5h4C7.8,5,8,4.8,8,4.5S7.8,4,7.5,4H3.5z M3,7.5C3,7.2,3.2,7,3.5,7h1C4.8,7,5,7.2,5,7.5S4.8,8,4.5,8h-1C3.2,8,3,7.8,3,7.5
	z M3.5,10C3.2,10,3,10.2,3,10.5S3.2,11,3.5,11S4,10.8,4,10.5S3.8,10,3.5,10z M11,6c-2.8,0-5,2.2-5,5c0,2.8,2.2,5,5,5
	c2.8,0,5-2.2,5-5C16,8.2,13.8,6,11,6z M8.6,10.1C8.8,10,9.1,10,9.3,10.1l0.1,0.1l1.3,1.3l2.3-2.3C13.1,9,13.4,9,13.6,9.1l0.1,0.1
	c0.2,0.2,0.2,0.4,0.1,0.6l-0.1,0.1l-3,3l-2-2C8.5,10.7,8.5,10.3,8.6,10.1z"/>
</svg>
