<?xml version="1.0" encoding="utf-8"?>
<!-- 
  Copyright (c) 2022, WSO2 LLC. (http://www.wso2.com). All Rights Reserved.
 
 - This software is the property of WSO2 Inc. and its suppliers, if any.
 - Dissemination of any information or reproduction of any material contained
 - herein is strictly forbidden, unless permitted by WSO2 in accordance with
 - the WSO2 Commercial License available at http://wso2.com/licenses.
 - For specific language governing the permissions and limitations under
 - this license, please see the license as well as any agreement you’ve
 - entered into with WSO2 governing the purchase of this software and any
 - associated services.
 -->
 <svg version="1.1" id="Layer_1" x="0px" y="0px" viewBox="0 0 16 16">
<path class="st0" d="M4.2,0.9C4,0.7,3.7,0.7,3.5,0.9L0,4.4l0.4,0.4l0,0l3.1,3.1l0.1,0.1C3.8,8,4,8,4.2,7.8l0.1-0.1
	c0.1-0.2,0.1-0.5-0.1-0.7L2,4.9h9.1l0.1,0c0.2,0,0.4-0.3,0.4-0.5c0-0.3-0.2-0.5-0.5-0.5H2l2.2-2.2l0.1-0.1C4.4,1.3,4.4,1.1,4.2,0.9z
	 M11.8,8.2c0.2-0.2,0.5-0.2,0.7,0l3.1,3.1c0,0,0.1,0.1,0.1,0.1l0.3,0.3l-0.3,0.3c0,0-0.1,0.1-0.1,0.1l-3.1,3.1l-0.1,0.1
	c-0.2,0.1-0.5,0.1-0.7-0.1L11.7,15c-0.1-0.2-0.1-0.5,0.1-0.7l2.2-2.2H4.9c-0.3,0-0.5-0.2-0.5-0.5c0-0.3,0.2-0.5,0.4-0.5l0.1,0H14
	l-2.2-2.2l-0.1-0.1C11.6,8.6,11.6,8.3,11.8,8.2z"/>
</svg>
