<?xml version="1.0" encoding="utf-8"?>
<!-- 
  Copyright (c) 2022, WSO2 LLC. (http://www.wso2.com). All Rights Reserved.
 
 - This software is the property of WSO2 Inc. and its suppliers, if any.
 - Dissemination of any information or reproduction of any material contained
 - herein is strictly forbidden, unless permitted by WSO2 in accordance with
 - the WSO2 Commercial License available at http://wso2.com/licenses.
 - For specific language governing the permissions and limitations under
 - this license, please see the license as well as any agreement you’ve
 - entered into with WSO2 governing the purchase of this software and any
 - associated services.
 -->
 <svg version="1.1" id="Layer_1" x="0px" y="0px" viewBox="0 0 16 16">
	<path d="M8.5,0c4,0.3,7.2,3.5,7.4,7.4l0,0V8c0,4.4-3.6,8-8,8c-1.9,0-3.7-0.7-5-1.8l0,0l-0.4-0.4l0,0c0,0-0.1-0.1-0.1-0.1l-0.1-0.1
		c0,0,0,0-0.1-0.1c0,0,0,0,0-0.1l-0.1-0.1c0,0,0,0,0,0C2,13.3,2,13.3,1.9,13.2c0,0,0,0,0,0c0-0.1-0.1-0.1-0.1-0.2
		c0,0-0.1-0.1-0.1-0.1c-0.1-0.1-0.2-0.3-0.3-0.4l0,0l0,0c-0.1-0.1-0.2-0.3-0.3-0.4c-0.1-0.1-0.1-0.2-0.2-0.3l0,0
		c-0.1-0.1-0.1-0.3-0.2-0.4l0,0c0,0,0,0,0,0c0,0,0-0.1,0-0.1c-0.1-0.3-0.3-0.7-0.4-1.1c0,0,0-0.1,0-0.1c0-0.1,0-0.1,0-0.2
		c0,0,0-0.1,0-0.1C0.1,9.3,0.1,9,0,8.7c0,0,0-0.1,0-0.1c0-0.1,0-0.1,0-0.2C0,8.3,0,8.1,0,8l0,0.3C0,8.2,0,8.1,0,8c0-0.2,0-0.3,0-0.5
		c0-0.3,0.1-0.6,0.1-0.9c0-0.1,0.1-0.3,0.1-0.4c0,0,0-0.1,0-0.1l0,0.1c0.2-0.7,0.4-1.4,0.8-2c0,0,0-0.1,0.1-0.1
		c0.2-0.4,0.5-0.8,0.8-1.1c0,0,0,0,0,0C2,2.8,2.1,2.6,2.2,2.5c0,0,0,0,0,0c0.1-0.1,0.2-0.2,0.3-0.3c0,0,0.1,0,0.1-0.1
		c0,0,0.1-0.1,0.1-0.1c0,0,0,0,0,0c0.2-0.2,0.5-0.4,0.7-0.6c0,0,0,0,0,0c0.1,0,0.1-0.1,0.2-0.1c0,0,0,0,0,0c0.6-0.4,1.3-0.7,2-0.9
		c0,0,0,0,0,0c0.4-0.1,0.8-0.2,1.2-0.3c0,0,0,0,0,0C7.2,0,7.4,0,7.6,0l0.1,0L8.5,0L8.5,0z M3.7,13.4l0.1,0.1C5,14.4,6.4,14.9,8,14.9
		l0.2,0c0,0,0.1,0,0.1,0c0.1,0,0.1,0,0.2,0c0.2,0,0.3,0,0.4,0c0,0,0,0,0,0l0,0c0,0,0.1,0,0.1,0l-0.1,0c0.1,0,0.2,0,0.3,0l-0.1,0
		c0.2,0,0.4-0.1,0.5-0.1c0,0,0,0,0.1,0l-0.1,0c0.1,0,0.1,0,0.2,0l-0.1,0c0.1,0,0.2,0,0.2-0.1l-0.1,0c0.1,0,0.1,0,0.2-0.1l-0.1,0
		c0.1,0,0.2,0,0.2-0.1l-0.1,0c0.1,0,0.2-0.1,0.3-0.1l-0.2,0.1c0.1,0,0.1,0,0.2-0.1l-0.1,0c0.1,0,0.1,0,0.2-0.1l-0.1,0
		c0.1,0,0.2-0.1,0.3-0.1l-0.1,0c0.1,0,0.2-0.1,0.2-0.1l-0.1,0c0.1,0,0.1-0.1,0.2-0.1l-0.1,0c0.1,0,0.1-0.1,0.2-0.1l-0.1,0.1
		c0.1,0,0.2-0.1,0.2-0.1l-0.1,0c0.1,0,0.2-0.1,0.2-0.1l-0.1,0.1c0.1,0,0.1-0.1,0.2-0.1l-0.1,0c0.1,0,0.1-0.1,0.2-0.1l-0.2,0.1
		c0.1,0,0.1-0.1,0.2-0.1l-0.1,0c0.1,0,0.1-0.1,0.2-0.1L11.5,14c0.1,0,0.1-0.1,0.2-0.1l-0.1,0.1c0.1-0.1,0.3-0.2,0.4-0.3
		c0.2-0.1,0.3-0.2,0.5-0.4c0,0,0.1-0.1,0.1-0.1l-0.1,0.1c0.1,0,0.1-0.1,0.2-0.2l-0.1,0.1c0.1-0.1,0.1-0.1,0.2-0.2l-0.1,0.1
		c0.1-0.1,0.1-0.1,0.2-0.2l-0.1,0.1c0.1-0.1,0.1-0.1,0.2-0.2L12.8,13c0.1-0.1,0.1-0.1,0.2-0.2l-0.1,0.1c0.1,0,0.1-0.1,0.1-0.2l0,0.1
		c0.1-0.1,0.1-0.1,0.2-0.2L13,12.8c0.1-0.1,0.1-0.1,0.2-0.2l0,0c0-0.1,0.1-0.1,0.1-0.2l-0.1,0.1c0.1-0.1,0.1-0.1,0.2-0.2l-0.1,0.1
		c0,0,0.1-0.1,0.1-0.1l-0.1,0.1c0.1-0.1,0.2-0.3,0.3-0.4c0,0,0-0.1,0.1-0.1L13.6,12c0-0.1,0.1-0.1,0.1-0.2l0,0.1
		c0-0.1,0.1-0.1,0.1-0.2l-0.1,0.1c0-0.1,0.1-0.1,0.1-0.2l-0.1,0.1c0.1-0.1,0.2-0.3,0.2-0.4c0,0,0-0.1,0-0.1l0,0.1
		c0-0.1,0.1-0.2,0.1-0.3l-0.1,0.2c0-0.1,0.1-0.1,0.1-0.2l0,0c0,0,0-0.1,0.1-0.1l0,0.1c0-0.1,0.1-0.1,0.1-0.2l-0.1,0.1
		c0-0.1,0.1-0.2,0.1-0.2l0,0.1c0-0.1,0.1-0.1,0.1-0.2l0,0.1c0.1-0.2,0.2-0.5,0.3-0.7c0,0,0-0.1,0-0.1c0-0.1,0.1-0.2,0.1-0.3
		c0.1-0.3,0.1-0.5,0.1-0.8l0-0.2l-6.7,0L3.7,13.4z M7.5,1.1l-0.2,0c-0.1,0-0.2,0-0.2,0l-0.1,0c-0.1,0-0.2,0-0.3,0.1c0,0,0,0,0,0l0,0
		c0,0-0.1,0-0.1,0c-0.1,0-0.2,0.1-0.4,0.1l-0.1,0c-0.1,0-0.2,0-0.2,0.1c-0.1,0-0.2,0.1-0.3,0.1c0,0-0.1,0-0.1,0l0.1,0
		c-0.1,0-0.1,0.1-0.2,0.1l0.1,0c-0.1,0-0.1,0.1-0.2,0.1l0.1,0c-0.1,0-0.1,0.1-0.2,0.1l0.1-0.1C5.1,1.7,5,1.7,5,1.8l0.1,0
		C5,1.8,4.9,1.8,4.8,1.8L5,1.8c-0.1,0-0.1,0.1-0.2,0.1l0.1,0c-0.1,0-0.1,0.1-0.2,0.1l0.1-0.1C4.7,1.9,4.6,2,4.5,2l0.1-0.1
		C4.6,2,4.5,2,4.5,2L4.5,2C4.5,2,4.4,2.1,4.3,2.1L4.5,2C4.3,2.1,4.2,2.2,4,2.3c0,0-0.1,0.1-0.1,0.1L4,2.3c0,0-0.1,0.1-0.1,0.1l0,0
		c-0.1,0-0.1,0.1-0.2,0.1l0.1-0.1C3.8,2.5,3.7,2.5,3.7,2.6l0.1,0c-0.1,0-0.1,0.1-0.2,0.1l0,0l-0.1,0c0,0-0.1,0.1-0.1,0.1l-0.1,0
		c0,0,0,0,0,0l0,0C3.3,2.9,3.3,2.9,3.2,3l0.1-0.1C3.3,2.9,3.2,3,3.2,3l0.1,0C3.2,3,3.1,3.1,3.1,3.1L3.2,3C3.1,3.1,3,3.2,3,3.2
		l0.1-0.1C3,3.2,2.9,3.3,2.9,3.3L3,3.2c0,0-0.1,0.1-0.1,0.1l0,0C2.8,3.4,2.8,3.4,2.7,3.5l0.1-0.1C2.8,3.4,2.7,3.5,2.7,3.6l0.1-0.1
		c0,0.1-0.1,0.1-0.1,0.2l0,0L2.5,3.7c0,0-0.1,0.1-0.1,0.1L2.4,4c0,0,0,0-0.1,0.1L2.4,4c0,0-0.1,0.1-0.1,0.2L2.3,4
		c0,0.1-0.1,0.1-0.1,0.2l0.1-0.1c0,0.1-0.1,0.1-0.1,0.2l0.1-0.1c0,0-0.1,0.1-0.1,0.1C2,4.6,1.9,4.8,1.8,5c0,0,0,0.1-0.1,0.2l0,0.1
		C1.6,5.4,1.5,5.7,1.4,5.9c0,0,0,0.1,0,0.1l0,0.1c0,0.1-0.1,0.2-0.1,0.3c0,0.2-0.1,0.3-0.1,0.5c0,0.1,0,0.2,0,0.3c0,0.1,0,0.2,0,0.3
		c0,0.1,0,0.2,0,0.3c0,0.1,0,0.2,0,0.3l0,0.3l0,0.1c0,0.1,0,0.2,0,0.2l0-0.2c0,0.1,0,0.2,0,0.3l0-0.1c0,0.3,0.1,0.6,0.2,1
		c0,0,0,0,0,0.1l0-0.1c0,0.1,0.1,0.2,0.1,0.3l0.1,0.3c0,0,0,0.1,0,0.1l0,0c0,0.1,0,0.1,0.1,0.2l-0.1-0.2c0,0.1,0.1,0.2,0.1,0.3
		l0-0.1c0,0.1,0.1,0.2,0.1,0.2l-0.1-0.2c0,0.1,0.1,0.2,0.2,0.4c0,0.1,0.1,0.1,0.1,0.2l-0.1-0.2c0,0.1,0.1,0.2,0.1,0.3l0-0.1
		c0.1,0.1,0.1,0.2,0.2,0.3l0.1,0.2l0,0.1c0,0,0,0,0,0.1c0,0.1,0.1,0.1,0.1,0.2l-0.1-0.2c0.1,0.1,0.1,0.2,0.2,0.3l-0.1-0.1
		C2.3,12,2.4,12,2.4,12.1L2.3,12c0.1,0.1,0.1,0.2,0.2,0.2l0,0l0.2,0.2c0,0,0,0,0.1,0.1c0.1,0.1,0.1,0.2,0.2,0.2l0,0l4.6-4.9V1.1z
		 M14.9,7.5c-0.3-3.4-3-6.1-6.4-6.4l0,6.4L14.9,7.5z"/>
</svg>
