<?xml version="1.0" encoding="utf-8"?>
<!-- 
  Copyright (c) 2022, WSO2 LLC. (http://www.wso2.com). All Rights Reserved.
 
 - This software is the property of WSO2 Inc. and its suppliers, if any.
 - Dissemination of any information or reproduction of any material contained
 - herein is strictly forbidden, unless permitted by WSO2 in accordance with
 - the WSO2 Commercial License available at http://wso2.com/licenses.
 - For specific language governing the permissions and limitations under
 - this license, please see the license as well as any agreement you’ve
 - entered into with WSO2 governing the purchase of this software and any
 - associated services.
 -->
 <svg version="1.1" id="Layer_1" x="0px" y="0px" viewBox="0 0 16 16">
<path class="st0" d="M8,16c4.4,0,8-3.6,8-8c0-0.3-0.2-0.5-0.5-0.5S15,7.7,15,8c0,3.9-3.1,7-7,7c-3.9,0-7-3.1-7-7c0-3.9,3.1-7,7-7
	c0.3,0,0.5-0.2,0.5-0.5S8.3,0,8,0C3.6,0,0,3.6,0,8C0,12.4,3.6,16,8,16z M13.5,3.7c0.2-0.2,0.5-0.2,0.7,0l0.1,0.1
	c0.2,0.2,0.2,0.5,0,0.7L8.9,9.9C8.7,10,8.4,10,8.2,9.9C8.1,9.8,8,9.8,8,9.7L5.1,6.9C5,6.7,5,6.4,5.1,6.2l0.1-0.1
	C5.4,6,5.7,6,5.9,6.1l2.6,2.6L13.5,3.7z"/>
</svg>
