<?xml version="1.0" encoding="utf-8"?>
<!-- 
  Copyright (c) 2022, WSO2 LLC. (http://www.wso2.com). All Rights Reserved.
 
 - This software is the property of WSO2 Inc. and its suppliers, if any.
 - Dissemination of any information or reproduction of any material contained
 - herein is strictly forbidden, unless permitted by WSO2 in accordance with
 - the WSO2 Commercial License available at http://wso2.com/licenses.
 - For specific language governing the permissions and limitations under
 - this license, please see the license as well as any agreement you’ve
 - entered into with WSO2 governing the purchase of this software and any
 - associated services.
 -->
 <svg version="1.1" id="Layer_1" x="0px" y="0px" viewBox="0 0 16 16">
<path class="st0" d="M14.9,1.9C16,3.4,15.9,5.6,14.5,7l-2.8,2.8l-1.3-1.3l1.2-1.2c0.2-0.2,0.2-0.5,0-0.8c-0.2-0.2-0.5-0.2-0.8,0
	L9.6,7.7L8.3,6.4l1.2-1.2c0.2-0.2,0.2-0.5,0-0.8c-0.2-0.2-0.5-0.2-0.8,0L7.5,5.6L6.2,4.3L9,1.5c1.4-1.4,3.6-1.5,5.2-0.4l1-1
	c0.2-0.2,0.5-0.2,0.8,0c0.2,0.2,0.2,0.5,0,0.8L14.9,1.9z M1.1,14.1l-1,1c-0.2,0.2-0.2,0.5,0,0.8c0.2,0.2,0.5,0.2,0.8,0l1-1
	C3.4,16,5.6,15.9,7,14.5l2.4-2.4l0.4-0.4l-0.4-0.4l-1-1l1-1c0.2-0.2,0.2-0.5,0-0.8c-0.2-0.2-0.5-0.2-0.8,0l-1,1L6.4,8.3l1-1
	c0.2-0.2,0.2-0.5,0-0.8c-0.2-0.2-0.5-0.2-0.8,0l-1,1l-1-1L4.3,6.2L3.9,6.6L1.5,9C0.1,10.4,0,12.6,1.1,14.1z M2.2,9.7l2-2l4,4l-2,2
	c-1.1,1.1-2.9,1.1-4,0C1.1,12.6,1.1,10.8,2.2,9.7z"/>
</svg>
