<?xml version="1.0" encoding="utf-8"?>
<!-- 
  Copyright (c) 2022, WSO2 LLC. (http://www.wso2.com). All Rights Reserved.
 
 - This software is the property of WSO2 Inc. and its suppliers, if any.
 - Dissemination of any information or reproduction of any material contained
 - herein is strictly forbidden, unless permitted by WSO2 in accordance with
 - the WSO2 Commercial License available at http://wso2.com/licenses.
 - For specific language governing the permissions and limitations under
 - this license, please see the license as well as any agreement you’ve
 - entered into with WSO2 governing the purchase of this software and any
 - associated services.
 -->
 <svg version="1.1" id="Layer_1" x="0px" y="0px" viewBox="0 0 16 16">
<path d="M13.6,0H2.4C1.1,0,0,1.1,0,2.4v11.2C0,14.9,1.1,16,2.4,16h11.2c1.3,0,2.4-1.1,2.4-2.4V2.4C16,1.1,14.9,0,13.6,0z M2.4,1.3
	h11.2c0.6,0,1.1,0.5,1.1,1.1v11.2c0,0.6-0.5,1.1-1.1,1.1H2.4c-0.6,0-1.1-0.5-1.1-1.1V2.4C1.3,1.8,1.8,1.3,2.4,1.3z"/>
</svg>
