<?xml version="1.0" encoding="utf-8"?>
<!-- 
  Copyright (c) 2022, WSO2 LLC. (http://www.wso2.com). All Rights Reserved.
 
 - This software is the property of WSO2 Inc. and its suppliers, if any.
 - Dissemination of any information or reproduction of any material contained
 - herein is strictly forbidden, unless permitted by WSO2 in accordance with
 - the WSO2 Commercial License available at http://wso2.com/licenses.
 - For specific language governing the permissions and limitations under
 - this license, please see the license as well as any agreement you’ve
 - entered into with WSO2 governing the purchase of this software and any
 - associated services.
 -->
 <svg version="1.1" id="Layer_1" x="0px" y="0px" viewBox="0 0 16 16">
<path class="st0" d="M8,0.5C3.9,0.5,0.5,3.9,0.5,8c0,4.1,3.4,7.5,7.5,7.5c4.1,0,7.5-3.4,7.5-7.5C15.5,3.9,12.1,0.5,8,0.5z M13,3.8
	c1,1.1,1.5,2.6,1.5,4.2c0,3.6-2.9,6.5-6.5,6.5c-1.6,0-3.1-0.6-4.2-1.5L13,3.8z M12.2,3.1l-9.2,9.2c-1-1.1-1.6-2.6-1.6-4.2
	c0-3.6,2.9-6.5,6.5-6.5C9.6,1.5,11.1,2.1,12.2,3.1z"/>
</svg>
