<?xml version="1.0" encoding="utf-8"?>
<!-- 
  Copyright (c) 2022, WSO2 LLC. (http://www.wso2.com). All Rights Reserved.
 
 - This software is the property of WSO2 Inc. and its suppliers, if any.
 - Dissemination of any information or reproduction of any material contained
 - herein is strictly forbidden, unless permitted by WSO2 in accordance with
 - the WSO2 Commercial License available at http://wso2.com/licenses.
 - For specific language governing the permissions and limitations under
 - this license, please see the license as well as any agreement you’ve
 - entered into with WSO2 governing the purchase of this software and any
 - associated services.
 -->
 <svg version="1.1" id="Layer_1" x="0px" y="0px" viewBox="0 0 16 16">
<path class="st0" d="M14.7,0.1c0.3-0.2,0.7-0.2,1,0.1c0.3,0.3,0.3,0.8,0,1.1L9.1,8l6.6,6.6c0.3,0.3,0.3,0.8,0,1.1
	c-0.3,0.3-0.7,0.3-1,0.1l-0.1-0.1L8,9.1l-6.6,6.6l-0.1,0.1c-0.3,0.2-0.7,0.2-1-0.1c-0.3-0.3-0.3-0.8,0-1.1L6.9,8L0.2,1.4
	c-0.3-0.3-0.3-0.8,0-1.1c0.3-0.3,0.7-0.3,1-0.1l0.1,0.1L8,6.9l6.6-6.6L14.7,0.1z"/>
</svg>
