<?xml version="1.0" encoding="utf-8"?>
<!-- 
  Copyright (c) 2022, WSO2 LLC. (http://www.wso2.com). All Rights Reserved.
 
 - This software is the property of WSO2 Inc. and its suppliers, if any.
 - Dissemination of any information or reproduction of any material contained
 - herein is strictly forbidden, unless permitted by WSO2 in accordance with
 - the WSO2 Commercial License available at http://wso2.com/licenses.
 - For specific language governing the permissions and limitations under
 - this license, please see the license as well as any agreement you’ve
 - entered into with WSO2 governing the purchase of this software and any
 - associated services.
 -->
 <svg version="1.1" id="Layer_1" x="0px" y="0px" viewBox="0 0 16 16">
<path class="st0" d="M8,2C5.1,2,2.7,4.6,3,7.5c-1.7-0.1-3,1.2-3,2.9c0,1.6,1.3,2.9,2.9,2.9h10.1c1.6,0,2.9-1.3,2.9-2.9
	c0-1.7-1.4-3-3-2.9C13.3,4.6,11,2,8,2z M6.2,9.1C5.8,9.6,5.1,8.9,5.5,8.4l2.1-2.1c0.2-0.2,0.5-0.2,0.7,0l2.2,2.1
	c0.5,0.5-0.3,1.2-0.8,0.7L8.5,7.9v3.3c0,0.7-1,0.7-1,0V7.9L6.2,9.1z"/>
</svg>
