<?xml version="1.0" encoding="utf-8"?>
<!-- 
  Copyright (c) 2022, WSO2 LLC. (http://www.wso2.com). All Rights Reserved.
 
 - This software is the property of WSO2 Inc. and its suppliers, if any.
 - Dissemination of any information or reproduction of any material contained
 - herein is strictly forbidden, unless permitted by WSO2 in accordance with
 - the WSO2 Commercial License available at http://wso2.com/licenses.
 - For specific language governing the permissions and limitations under
 - this license, please see the license as well as any agreement you’ve
 - entered into with WSO2 governing the purchase of this software and any
 - associated services.
 -->
 <svg version="1.1" id="Layer_1" x="0px" y="0px" viewBox="0 0 16 16">
<path d="M12.2,12.5c0.4,1.3-0.2,2.7-1.5,3.1C9.4,16,8,15.3,7.6,14c-0.4-1.3,0.2-2.7,1.5-3.1C10.4,10.5,11.7,11.2,12.2,12.5z
	 M6.6,11.7c0.4,1.3-0.2,2.7-1.5,3.1c-1.3,0.4-2.7-0.2-3.1-1.5c-0.4-1.3,0.2-2.7,1.5-3.1S6.2,10.4,6.6,11.7z M9.5,12.2
	c-0.6,0.2-0.9,0.8-0.7,1.4c0.2,0.6,0.8,0.9,1.4,0.7c0.6-0.2,0.9-0.8,0.7-1.4C10.7,12.3,10.1,12,9.5,12.2z M4,11.4
	c-0.6,0.2-0.9,0.8-0.7,1.4c0.2,0.6,0.8,0.9,1.4,0.7c0.6-0.2,0.9-0.8,0.7-1.4C5.2,11.5,4.5,11.2,4,11.4z M15.7,8.4
	c0.4,1.3-0.2,2.7-1.5,3.1c-1.3,0.4-2.7-0.2-3.1-1.5c-0.4-1.3,0.2-2.7,1.5-3.1C13.9,6.5,15.3,7.1,15.7,8.4z M10.4,7.2
	c0.4,1.3-0.2,2.7-1.5,3.1c-1.3,0.4-2.7-0.2-3.1-1.5C5.3,7.5,6,6.1,7.3,5.7C8.5,5.2,9.9,5.9,10.4,7.2z M13.1,8.2
	c-0.6,0.2-0.9,0.8-0.7,1.4c0.2,0.6,0.8,0.9,1.4,0.7c0.6-0.2,0.9-0.8,0.7-1.4C14.3,8.3,13.6,8,13.1,8.2z M4.9,6.3
	c0.4,1.3-0.2,2.7-1.5,3.1C2.1,9.8,0.7,9.1,0.3,7.9c-0.4-1.3,0.2-2.7,1.5-3.1C3.1,4.3,4.4,5,4.9,6.3z M7.7,6.9C7.1,7.1,6.8,7.8,7,8.4
	c0.2,0.6,0.8,0.9,1.4,0.7C9,8.9,9.3,8.2,9.1,7.6C8.9,7.1,8.3,6.7,7.7,6.9z M2.2,6C1.6,6.2,1.3,6.9,1.5,7.4C1.7,8,2.4,8.3,2.9,8.1
	c0.6-0.2,0.9-0.8,0.7-1.4C3.4,6.1,2.8,5.8,2.2,6z M14.2,3c0.4,1.3-0.2,2.7-1.5,3.1C11.4,6.6,10,5.9,9.6,4.6
	c-0.4-1.3,0.2-2.7,1.5-3.1S13.8,1.7,14.2,3z M8.6,2C9,3.2,8.3,4.6,7.1,5.1C5.8,5.5,4.4,4.8,3.9,3.5C3.5,2.3,4.2,0.9,5.5,0.4
	C6.7,0,8.1,0.7,8.6,2z M11.5,2.8c-0.6,0.2-0.9,0.8-0.7,1.4c0.2,0.6,0.8,0.9,1.4,0.7c0.6-0.2,0.9-0.8,0.7-1.4
	C12.7,2.9,12.1,2.6,11.5,2.8z M5.9,1.7C5.3,1.9,5,2.5,5.2,3.1C5.4,3.7,6,4,6.6,3.8C7.2,3.6,7.5,3,7.3,2.4C7.1,1.8,6.5,1.5,5.9,1.7z"
	/>
</svg>
