<?xml version="1.0" encoding="utf-8"?>
<!-- 
  Copyright (c) 2022, WSO2 LLC. (http://www.wso2.com). All Rights Reserved.
 
 - This software is the property of WSO2 Inc. and its suppliers, if any.
 - Dissemination of any information or reproduction of any material contained
 - herein is strictly forbidden, unless permitted by WSO2 in accordance with
 - the WSO2 Commercial License available at http://wso2.com/licenses.
 - For specific language governing the permissions and limitations under
 - this license, please see the license as well as any agreement you’ve
 - entered into with WSO2 governing the purchase of this software and any
 - associated services.
 -->
 <svg version="1.1" id="Layer_1" x="0px" y="0px" viewBox="0 0 16 16">
<path class="st0" d="M0,2.7C0,1.2,1.2,0,2.7,0s2.7,1.2,2.7,2.7C5.3,4,4.4,5,3.2,5.3v2.2h6.9c1.3,0,2.4-0.9,2.6-2.2
	c-1.2-0.3-2.1-1.3-2.1-2.6c0-1.5,1.2-2.7,2.7-2.7S16,1.2,16,2.7c0,1.3-0.9,2.4-2.2,2.6c-0.2,1.8-1.7,3.1-3.5,3.2l-0.2,0H3.2v2.2
	C4.4,11,5.3,12,5.3,13.3c0,1.5-1.2,2.7-2.7,2.7S0,14.8,0,13.3C0,12,0.9,11,2.1,10.7V5.3C0.9,5,0,4,0,2.7z M4.3,2.7
	c0-0.9-0.7-1.6-1.6-1.6S1.1,1.8,1.1,2.7s0.7,1.6,1.6,1.6S4.3,3.6,4.3,2.7z M14.9,2.7c0-0.9-0.7-1.6-1.6-1.6c-0.9,0-1.6,0.7-1.6,1.6
	s0.7,1.6,1.6,1.6C14.2,4.3,14.9,3.6,14.9,2.7z M2.7,11.7c0.9,0,1.6,0.7,1.6,1.6c0,0.9-0.7,1.6-1.6,1.6s-1.6-0.7-1.6-1.6
	C1.1,12.4,1.8,11.7,2.7,11.7z"/>
</svg>
