<?xml version="1.0" encoding="utf-8"?>
<!-- 
  Copyright (c) 2022, WSO2 LLC. (http://www.wso2.com). All Rights Reserved.
 
 - This software is the property of WSO2 Inc. and its suppliers, if any.
 - Dissemination of any information or reproduction of any material contained
 - herein is strictly forbidden, unless permitted by WSO2 in accordance with
 - the WSO2 Commercial License available at http://wso2.com/licenses.
 - For specific language governing the permissions and limitations under
 - this license, please see the license as well as any agreement you’ve
 - entered into with WSO2 governing the purchase of this software and any
 - associated services.
 -->
 <svg version="1.1" id="Layer_1" x="0px" y="0px" viewBox="0 0 16 16">
<path class="st0" d="M16,3.8c-0.1-1.8-1.6-3.3-3.5-3.3h-9l-0.2,0C1.5,0.6,0,2.1,0,4v10.1l0,0.2c0,0.5,0.3,1,0.7,1.3l0.1,0.1L1,15.7
	c0.6,0.3,0.7,0.2,1-0.2c0.1-0.1,0.1-0.2,0.2-0.3l2-2.7h8.2l0.2,0C14.5,12.4,16,10.9,16,9V4L16,3.8z M3.5,1.5h9l0.2,0
	C14,1.6,15,2.7,15,4v5l0,0.2c-0.1,1.3-1.2,2.3-2.5,2.3H3.8l-2.3,3.1l-0.1,0.1c0,0,0,0-0.1,0.1l0,0l-0.1-0.1C1.1,14.5,1,14.3,1,14.1
	V4l0-0.2C1.1,2.5,2.2,1.5,3.5,1.5z M1.4,14.8L1.4,14.8C1.2,14.9,1.7,15,1.4,14.8z M4,5c0-0.3,0.2-0.5,0.5-0.5h7
	C11.8,4.5,12,4.7,12,5s-0.2,0.5-0.5,0.5h-7C4.2,5.5,4,5.3,4,5z M4.5,8C4.2,8,4,8.2,4,8.5S4.2,9,4.5,9h4C8.8,9,9,8.8,9,8.5
	S8.8,8,8.5,8H4.5z"/>
</svg>
