<?xml version="1.0" encoding="utf-8"?>
<!-- 
  Copyright (c) 2022, WSO2 LLC. (http://www.wso2.com). All Rights Reserved.
 
 - This software is the property of WSO2 Inc. and its suppliers, if any.
 - Dissemination of any information or reproduction of any material contained
 - herein is strictly forbidden, unless permitted by WSO2 in accordance with
 - the WSO2 Commercial License available at http://wso2.com/licenses.
 - For specific language governing the permissions and limitations under
 - this license, please see the license as well as any agreement you’ve
 - entered into with WSO2 governing the purchase of this software and any
 - associated services.
 -->
 <svg version="1.1" id="Layer_1" x="0px" y="0px" viewBox="0 0 16 16">
<path d="M9.4,0.6l0.1,0.1l5.3,5.3c0.9,0.9,1,2.4,0.1,3.3l-0.1,0.1l-0.3,0.3l1,1c0.6,0.6,0.6,1.5,0.1,2.1L15.5,13L13,15.5
	c-0.6,0.6-1.6,0.6-2.2,0l-1-1l-0.3,0.3c-0.9,0.9-2.4,1-3.3,0.1l-0.1-0.1L0.7,9.5c-0.9-0.9-1-2.4-0.1-3.3l0.1-0.1l5.3-5.3
	C7-0.2,8.4-0.2,9.4,0.6z M12.1,9.3c-0.1-0.1-0.2-0.1-0.3,0l-2.5,2.5c-0.1,0.1-0.1,0.2,0,0.3l2.5,2.5c0.1,0.1,0.2,0.1,0.3,0l2.5-2.5
	c0.1-0.1,0.1-0.2,0-0.3L12.1,9.3z M7.1,1.6L7.1,1.6L1.7,7C1.3,7.4,1.2,8.1,1.6,8.5l0.1,0.1L7,13.9c0.4,0.4,1.1,0.4,1.5,0.1l0.1-0.1
	l0.3-0.3L8.3,13c-0.6-0.6-0.6-1.5-0.1-2.1l0.1-0.1l2.5-2.5c0.6-0.6,1.6-0.6,2.2,0l0.6,0.6l0.3-0.3c0.4-0.4,0.4-1.1,0.1-1.5L13.9,7
	L8.6,1.7C8.2,1.3,7.5,1.2,7.1,1.6z"/>
</svg>
