<?xml version="1.0" encoding="utf-8"?>
<!-- 
  Copyright (c) 2022, WSO2 LLC. (http://www.wso2.com). All Rights Reserved.
 
 - This software is the property of WSO2 Inc. and its suppliers, if any.
 - Dissemination of any information or reproduction of any material contained
 - herein is strictly forbidden, unless permitted by WSO2 in accordance with
 - the WSO2 Commercial License available at http://wso2.com/licenses.
 - For specific language governing the permissions and limitations under
 - this license, please see the license as well as any agreement you’ve
 - entered into with WSO2 governing the purchase of this software and any
 - associated services.
 -->
 <svg version="1.1" id="Layer_1" x="0px" y="0px" viewBox="0 0 16 16">
<path d="M9.4,0.6l0.1,0.1L14.8,6c0.8,0.8,0.9,2,0.4,2.9l-1.5-1.5l-0.1-0.1c-1-0.9-2.6-0.9-3.5,0.1L7.5,10l-0.1,0.1
	c-0.9,1-0.9,2.6,0.1,3.5L9,15.3c-0.9,0.5-2,0.4-2.8-0.3l-0.1-0.1L0.7,9.5c-0.9-0.9-1-2.4-0.1-3.3l0.1-0.1L6,0.8
	C7-0.2,8.4-0.2,9.4,0.6z M10.8,8.3l-2.5,2.5c-0.6,0.6-0.6,1.6,0,2.2l2.5,2.5c0.6,0.6,1.6,0.6,2.2,0l2.5-2.5c0.6-0.6,0.6-1.6,0-2.2
	L13,8.3C12.4,7.7,11.4,7.7,10.8,8.3z M9.3,11.8l2.5-2.5c0.1-0.1,0.2-0.1,0.3,0l2.5,2.5c0.1,0.1,0.1,0.2,0,0.3l-2.5,2.5
	c-0.1,0.1-0.2,0.1-0.3,0l-2.5-2.5C9.2,12,9.2,11.9,9.3,11.8z"/>
</svg>
