<?xml version="1.0" encoding="utf-8"?>
<!-- 
  Copyright (c) 2022, WSO2 LLC. (http://www.wso2.com). All Rights Reserved.
 
 - This software is the property of WSO2 Inc. and its suppliers, if any.
 - Dissemination of any information or reproduction of any material contained
 - herein is strictly forbidden, unless permitted by WSO2 in accordance with
 - the WSO2 Commercial License available at http://wso2.com/licenses.
 - For specific language governing the permissions and limitations under
 - this license, please see the license as well as any agreement you’ve
 - entered into with WSO2 governing the purchase of this software and any
 - associated services.
 -->
 <svg version="1.1" id="Layer_1" x="0px" y="0px" viewBox="0 0 16 16">
<path class="st0" d="M12,16c0.3,0,0.5-0.2,0.5-0.5v-2c0,0,0,0,0,0c1.1-0.2,2-1.2,2-2.5c0-1.2-0.9-2.2-2-2.5c0,0,0,0,0,0v-8
	C12.5,0.2,12.3,0,12,0s-0.5,0.2-0.5,0.5v8c0,0,0,0,0,0c-1.1,0.2-2,1.2-2,2.5c0,1.2,0.9,2.2,2,2.5c0,0,0,0,0,0v2
	C11.5,15.8,11.7,16,12,16z M12,12.5c0.8,0,1.5-0.7,1.5-1.5S12.8,9.5,12,9.5s-1.5,0.7-1.5,1.5S11.2,12.5,12,12.5z M3.5,2.5
	c-1.1,0.2-2,1.2-2,2.5s0.9,2.2,2,2.5c0,0,0,0,0,0v8C3.5,15.8,3.7,16,4,16s0.5-0.2,0.5-0.5v-8c0,0,0,0,0,0c1.1-0.2,2-1.2,2-2.5
	s-0.9-2.2-2-2.5c0,0,0,0,0,0v-2C4.5,0.2,4.3,0,4,0S3.5,0.2,3.5,0.5L3.5,2.5C3.5,2.5,3.5,2.5,3.5,2.5z M4,3.5c0.8,0,1.5,0.7,1.5,1.5
	S4.8,6.5,4,6.5S2.5,5.8,2.5,5S3.2,3.5,4,3.5z"/>
</svg>
