<?xml version="1.0" encoding="utf-8"?>
<!-- 
  Copyright (c) 2022, WSO2 LLC. (http://www.wso2.com). All Rights Reserved.
 
 - This software is the property of WSO2 Inc. and its suppliers, if any.
 - Dissemination of any information or reproduction of any material contained
 - herein is strictly forbidden, unless permitted by WSO2 in accordance with
 - the WSO2 Commercial License available at http://wso2.com/licenses.
 - For specific language governing the permissions and limitations under
 - this license, please see the license as well as any agreement you’ve
 - entered into with WSO2 governing the purchase of this software and any
 - associated services.
 -->
 <svg version="1.1" id="Layer_1" x="0px" y="0px" viewBox="0 0 16 16">
<path class="st0" d="M12,0c0.3,0,0.5,0.2,0.5,0.5v2c0,0,0,0,0,0c1.1,0.2,2,1.2,2,2.5s-0.9,2.2-2,2.5c0,0,0,0,0,0v8
	c0,0.3-0.2,0.5-0.5,0.5s-0.5-0.2-0.5-0.5v-8c0,0,0,0,0,0c-1.1-0.2-2-1.2-2-2.5s0.9-2.2,2-2.5c0,0,0,0,0,0v-2C11.5,0.2,11.7,0,12,0z
	 M4.5,13.5C4.5,13.5,4.5,13.5,4.5,13.5l0,2C4.5,15.8,4.3,16,4,16s-0.5-0.2-0.5-0.5v-2c0,0,0,0,0,0c-1.1-0.2-2-1.2-2-2.5
	c0-1.2,0.9-2.2,2-2.5c0,0,0,0,0,0v-8C3.5,0.2,3.7,0,4,0s0.5,0.2,0.5,0.5v8c0,0,0,0,0,0c1.1,0.2,2,1.2,2,2.5
	C6.5,12.2,5.6,13.2,4.5,13.5z"/>
</svg>
