<?xml version="1.0" encoding="utf-8"?>
<!-- 
  Copyright (c) 2022, WSO2 LLC. (http://www.wso2.com). All Rights Reserved.
 
 - This software is the property of WSO2 Inc. and its suppliers, if any.
 - Dissemination of any information or reproduction of any material contained
 - herein is strictly forbidden, unless permitted by WSO2 in accordance with
 - the WSO2 Commercial License available at http://wso2.com/licenses.
 - For specific language governing the permissions and limitations under
 - this license, please see the license as well as any agreement you’ve
 - entered into with WSO2 governing the purchase of this software and any
 - associated services.
 -->
 <svg version="1.1" id="Layer_1" x="0px" y="0px" viewBox="0 0 16 16">
<path class="st0" d="M4.1,0C2.2,0,0.7,1.5,0.7,3.4v9.1c0,1.9,1.5,3.4,3.4,3.4s3.4-1.5,3.4-3.4V3.4C7.5,1.5,6,0,4.1,0z M2.1,3.4
	c0-1.1,0.9-2.1,2.1-2.1s2.1,0.9,2.1,2.1v9.1c0,1.1-0.9,2.1-2.1,2.1s-2.1-0.9-2.1-2.1V3.4z M11.9,16c1.9,0,3.4-1.5,3.4-3.4V3.4
	c0-1.9-1.5-3.4-3.4-3.4S8.5,1.5,8.5,3.4v9.1C8.5,14.5,10,16,11.9,16z M13.9,12.6c0,1.1-0.9,2.1-2.1,2.1s-2.1-0.9-2.1-2.1V3.4
	c0-1.1,0.9-2.1,2.1-2.1s2.1,0.9,2.1,2.1V12.6z M3.4,3.2c0-0.4,0.3-0.7,0.7-0.7c0.4,0,0.7,0.3,0.7,0.7v2.3c0,0.4-0.3,0.7-0.7,0.7
	c-0.4,0-0.7-0.3-0.7-0.7V3.2z M11.9,9.8c-0.4,0-0.7,0.3-0.7,0.7v2.3c0,0.4,0.3,0.7,0.7,0.7c0.4,0,0.7-0.3,0.7-0.7v-2.3
	C12.6,10.1,12.3,9.8,11.9,9.8z"/>
</svg>
