<?xml version="1.0" encoding="utf-8"?>
<!-- 
  Copyright (c) 2022, WSO2 LLC. (http://www.wso2.com). All Rights Reserved.
 
 - This software is the property of WSO2 Inc. and its suppliers, if any.
 - Dissemination of any information or reproduction of any material contained
 - herein is strictly forbidden, unless permitted by WSO2 in accordance with
 - the WSO2 Commercial License available at http://wso2.com/licenses.
 - For specific language governing the permissions and limitations under
 - this license, please see the license as well as any agreement you’ve
 - entered into with WSO2 governing the purchase of this software and any
 - associated services.
 -->
 <svg version="1.1" id="Layer_1" x="0px" y="0px" viewBox="0 0 16 16">
<path d="M13.8,2.9c0.3,0.3,0.3,0.8,0,1.1c-0.3,0.3-0.8,0.3-1.1,0c-2.2-2.2-5.9-2.2-8.1,0c-2.2,2.2-2.2,5.9,0,8.1
	c2.2,2.2,5.9,2.2,8.1,0c0.3-0.3,0.8-0.3,1.1,0s0.3,0.8,0,1.1C11,16,6.4,16,3.6,13.1c-1.2-1.2-1.9-2.8-2.1-4.4l-0.7,0
	C0.4,8.8,0,8.4,0,8c0-0.4,0.3-0.7,0.6-0.7l0.1,0l0.7,0c0.2-1.6,0.9-3.2,2.1-4.4C6.4,0,11,0,13.8,2.9z M8.8,5c1.5,0,2.7,1.1,3,2.5
	l3.7,0c0.3,0,0.5,0.2,0.5,0.5c0,0.2-0.2,0.4-0.4,0.5l-0.1,0l-3.7,0c-0.2,1.4-1.5,2.5-3,2.5c-1.7,0-3-1.3-3-3S7.1,5,8.8,5z M8.8,6
	c-1.1,0-2,0.9-2,2s0.9,2,2,2s2-0.9,2-2S9.9,6,8.8,6z"/>
</svg>
