<?xml version="1.0" encoding="utf-8"?>
<!-- 
  Copyright (c) 2022, WSO2 LLC. (http://www.wso2.com). All Rights Reserved.
 
 - This software is the property of WSO2 Inc. and its suppliers, if any.
 - Dissemination of any information or reproduction of any material contained
 - herein is strictly forbidden, unless permitted by WSO2 in accordance with
 - the WSO2 Commercial License available at http://wso2.com/licenses.
 - For specific language governing the permissions and limitations under
 - this license, please see the license as well as any agreement you’ve
 - entered into with WSO2 governing the purchase of this software and any
 - associated services.
 -->
 <svg version="1.1" id="Layer_1" x="0px" y="0px" viewBox="0 0 16 16">
<path class="st0" d="M14.5,2.5h-11C3.2,2.5,3,2.7,3,3v12c0,0.3,0.2,0.5,0.5,0.5h11c0.3,0,0.5-0.2,0.5-0.5V3
	C15,2.7,14.8,2.5,14.5,2.5z M3.5,1c-1.1,0-2,0.9-2,2v12c0,1.1,0.9,2,2,2h11c1.1,0,2-0.9,2-2V3c0-1.1-0.9-2-2-2H3.5z M11.2,12
	c0.4,0,0.8,0.3,0.8,0.8c0,0.4-0.3,0.7-0.7,0.7l-0.1,0H6.8c-0.4,0-0.8-0.3-0.8-0.8c0-0.4,0.3-0.7,0.7-0.7l0.1,0H11.2z M12,6.5
	c0.3-0.3,0.3-0.8,0-1.1c-0.3-0.3-0.8-0.3-1.1,0L8.6,7.8L7,6.2C6.7,5.9,6.3,5.9,6,6.2C5.7,6.5,5.7,7,6,7.2l2.1,2.1l0.5,0.5l0.5-0.5
	L12,6.5z"/>
</svg>
