<?xml version="1.0" encoding="utf-8"?>
<!-- 
  Copyright (c) 2022, WSO2 LLC. (http://www.wso2.com). All Rights Reserved.
 
 - This software is the property of WSO2 Inc. and its suppliers, if any.
 - Dissemination of any information or reproduction of any material contained
 - herein is strictly forbidden, unless permitted by WSO2 in accordance with
 - the WSO2 Commercial License available at http://wso2.com/licenses.
 - For specific language governing the permissions and limitations under
 - this license, please see the license as well as any agreement you’ve
 - entered into with WSO2 governing the purchase of this software and any
 - associated services.
 -->
 <svg version="1.1" id="Layer_1" x="0px" y="0px" viewBox="0 0 16 16">
<path d="M8,0c1.8,0,3.3,1.5,3.4,3.3v0.2v2h1.2c1.4,0,2.5,1,2.5,2.4V8v5.5c0,1.4-1.1,2.5-2.5,2.5h-9c-1.4,0-2.5-1.1-2.5-2.5V8
	c0-1.4,1.1-2.5,2.5-2.5h1.1v-2C4.5,1.5,6.1,0,8,0z M12.5,6.9H3.4C2.8,6.9,2.4,7.4,2.4,8v5.5c0,0.6,0.5,1.1,1.1,1.1h9.1
	c0.6,0,1.1-0.5,1.1-1.1V8C13.6,7.4,13.2,6.9,12.5,6.9z M8,7.8c0.4,0,0.6,0.3,0.6,0.5v0.1v0.8c0.8,0.3,1.4,1,1.4,1.9c0,1.1-0.9,2-2,2
	s-2-0.9-2-2c0-0.9,0.5-1.6,1.4-1.9V8.5C7.3,8.1,7.6,7.8,8,7.8z M8,10.5c-0.4,0-0.7,0.3-0.7,0.7C7.3,11.7,7.5,12,8,12
	c0.5,0,0.7-0.3,0.7-0.7C8.7,10.8,8.4,10.5,8,10.5z M8,1.5c-1.1,0-2,0.8-2,1.9v0.2v2h4.1V3.5C10,2.4,9.1,1.5,8,1.5z"/>
</svg>
