<?xml version="1.0" encoding="utf-8"?>
<!-- 
  Copyright (c) 2022, WSO2 LLC. (http://www.wso2.com). All Rights Reserved.
 
 - This software is the property of WSO2 Inc. and its suppliers, if any.
 - Dissemination of any information or reproduction of any material contained
 - herein is strictly forbidden, unless permitted by WSO2 in accordance with
 - the WSO2 Commercial License available at http://wso2.com/licenses.
 - For specific language governing the permissions and limitations under
 - this license, please see the license as well as any agreement you’ve
 - entered into with WSO2 governing the purchase of this software and any
 - associated services.
 -->
 <svg version="1.1" id="Layer_1" x="0px" y="0px" viewBox="0 0 16 16">
<path d="M8,0c1.8,0,3.3,1.4,3.4,3.2l0,0.2v2.1h1.1c1.3,0,2.4,1,2.5,2.4l0,0.2v5.5c0,1.3-1,2.4-2.4,2.5l-0.2,0H3.4
	c-1.3,0-2.4-1-2.5-2.4l0-0.2V8c0-1.3,1-2.4,2.4-2.5l0.2,0h1.1V3.4C4.6,1.5,6.1,0,8,0z M8,7.8C7.7,7.8,7.4,8,7.3,8.4l0,0.1l0,0.8
	c-0.8,0.3-1.4,1-1.4,1.9c0,1.1,0.9,2.1,2.1,2.1c1.1,0,2.1-0.9,2.1-2.1c0-0.8-0.5-1.6-1.2-1.9L8.7,9.3l0-0.8l0-0.1
	C8.6,8,8.3,7.8,8,7.8z M8,10.5c0.4,0,0.7,0.3,0.7,0.7c0,0.4-0.3,0.7-0.7,0.7c-0.4,0-0.7-0.3-0.7-0.7C7.3,10.8,7.6,10.5,8,10.5z
	 M8,1.4c-1.1,0-2,0.8-2.1,1.9l0,0.1v2.1h4.1V3.4C10.1,2.3,9.1,1.4,8,1.4z"/>
</svg>
