<?xml version="1.0" encoding="utf-8"?>
<!-- 
  Copyright (c) 2022, WSO2 LLC. (http://www.wso2.com). All Rights Reserved.
 
 - This software is the property of WSO2 Inc. and its suppliers, if any.
 - Dissemination of any information or reproduction of any material contained
 - herein is strictly forbidden, unless permitted by WSO2 in accordance with
 - the WSO2 Commercial License available at http://wso2.com/licenses.
 - For specific language governing the permissions and limitations under
 - this license, please see the license as well as any agreement you’ve
 - entered into with WSO2 governing the purchase of this software and any
 - associated services.
 -->
 <svg version="1.1" id="Layer_1" x="0px" y="0px" viewBox="0 0 16 16">
<path class="st0" d="M10.6,1.3C10.7,1,11,0.9,11.3,1.1c0.2,0.1,0.3,0.4,0.2,0.6l0,0.1l-8,13C3.3,15,3,15.1,2.7,14.9
	c-0.2-0.1-0.3-0.4-0.2-0.6l0-0.1L10.6,1.3z M14.6,1.3C14.7,1,15,0.9,15.3,1.1c0.2,0.1,0.3,0.4,0.2,0.6l0,0.1l-8,13
	C7.3,15,7,15.1,6.7,14.9c-0.2-0.1-0.3-0.4-0.2-0.6l0-0.1L14.6,1.3z M2,5.2C2,5.7,1.7,6,1.2,6C0.8,6,0.5,5.7,0.5,5.2
	c0-0.4,0.3-0.8,0.8-0.8C1.7,4.5,2,4.8,2,5.2z M2,10.8c0,0.4-0.3,0.8-0.8,0.8c-0.4,0-0.8-0.3-0.8-0.8S0.8,10,1.2,10
	C1.7,10,2,10.3,2,10.8z"/>
</svg>
