<?xml version="1.0" encoding="utf-8"?>
<!-- 
  Copyright (c) 2022, WSO2 LLC. (http://www.wso2.com). All Rights Reserved.
 
 - This software is the property of WSO2 Inc. and its suppliers, if any.
 - Dissemination of any information or reproduction of any material contained
 - herein is strictly forbidden, unless permitted by WSO2 in accordance with
 - the WSO2 Commercial License available at http://wso2.com/licenses.
 - For specific language governing the permissions and limitations under
 - this license, please see the license as well as any agreement you’ve
 - entered into with WSO2 governing the purchase of this software and any
 - associated services.
 -->
 <svg version="1.1" id="Layer_1" x="0px" y="0px" viewBox="0 0 16 16">
<path class="st0" d="M3.5,0.9c0-0.2-0.2-0.4-0.5-0.4C2.7,0.5,2.5,0.7,2.5,1v1.5H1l-0.1,0C0.7,2.6,0.5,2.8,0.5,3
	c0,0.3,0.2,0.5,0.5,0.5h1.5V5l0,0.1c0,0.2,0.2,0.4,0.5,0.4c0.3,0,0.5-0.2,0.5-0.5V3.5H15l0.1,0c0.2,0,0.4-0.2,0.4-0.5
	c0-0.3-0.2-0.5-0.5-0.5H3.5L3.5,0.9L3.5,0.9z M15.5,13c0-0.3-0.2-0.5-0.5-0.5h-1.5V11l0-0.1c0-0.2-0.2-0.4-0.5-0.4
	c-0.3,0-0.5,0.2-0.5,0.5v1.5H1l-0.1,0c-0.2,0-0.4,0.2-0.4,0.5c0,0.3,0.2,0.5,0.5,0.5h11.5V15l0,0.1c0,0.2,0.2,0.4,0.5,0.4
	c0.3,0,0.5-0.2,0.5-0.5v-1.5H15l0.1,0C15.3,13.4,15.5,13.2,15.5,13z M15,7.5c0.3,0,0.5,0.2,0.5,0.5c0,0.2-0.2,0.4-0.4,0.5l-0.1,0
	H8.5V10c0,0.3-0.2,0.5-0.5,0.5c-0.2,0-0.4-0.2-0.5-0.4l0-0.1V8.5H1C0.7,8.5,0.5,8.3,0.5,8c0-0.2,0.2-0.4,0.4-0.5l0.1,0h6.5V6
	c0-0.3,0.2-0.5,0.5-0.5c0.2,0,0.4,0.2,0.5,0.4l0,0.1v1.5H15z"/>
</svg>
