<?xml version="1.0" encoding="utf-8"?>
<!-- 
  Copyright (c) 2022, WSO2 LLC. (http://www.wso2.com). All Rights Reserved.
 
 - This software is the property of WSO2 Inc. and its suppliers, if any.
 - Dissemination of any information or reproduction of any material contained
 - herein is strictly forbidden, unless permitted by WSO2 in accordance with
 - the WSO2 Commercial License available at http://wso2.com/licenses.
 - For specific language governing the permissions and limitations under
 - this license, please see the license as well as any agreement you’ve
 - entered into with WSO2 governing the purchase of this software and any
 - associated services.
 -->
 <svg version="1.1" id="Layer_1" x="0px" y="0px" viewBox="0 0 16 16">
<path class="st0" d="M8,0c1.6,0,2.9,1.2,3,2.8L11,3h3h0.5C14.8,3,15,3.2,15,3.5S14.8,4,14.5,4H14v9c0,1.7-1.3,3-3,3H5
	c-1.7,0-3-1.3-3-3V4H1.5C1.2,4,1,3.8,1,3.5S1.2,3,1.5,3H2h3C5,1.3,6.3,0,8,0z M10,3c0-1.1-0.9-2-2-2C6.9,1,6.1,1.8,6,2.9L6,3H10z
	 M3,4v9c0,1.1,0.8,1.9,1.9,2L5,15h6c1.1,0,1.9-0.8,2-1.9l0-0.1V4H3z M6.5,12.5C6.5,12.8,6.3,13,6,13s-0.5-0.2-0.5-0.5v-6
	C5.5,6.2,5.7,6,6,6s0.5,0.2,0.5,0.5V12.5z M10,13c0.3,0,0.5-0.2,0.5-0.5v-6C10.5,6.2,10.3,6,10,6C9.7,6,9.5,6.2,9.5,6.5v6
	C9.5,12.8,9.7,13,10,13z"/>
</svg>
