<?xml version="1.0" encoding="utf-8"?>
<!-- 
  Copyright (c) 2022, WSO2 LLC. (http://www.wso2.com). All Rights Reserved.
 
 - This software is the property of WSO2 Inc. and its suppliers, if any.
 - Dissemination of any information or reproduction of any material contained
 - herein is strictly forbidden, unless permitted by WSO2 in accordance with
 - the WSO2 Commercial License available at http://wso2.com/licenses.
 - For specific language governing the permissions and limitations under
 - this license, please see the license as well as any agreement you’ve
 - entered into with WSO2 governing the purchase of this software and any
 - associated services.
 -->
 <svg version="1.1" id="Layer_1" x="0px" y="0px" viewBox="0 0 16 16">
<path class="st0" d="M10.6,0.6c0-0.3-0.2-0.5-0.5-0.5H5.9l-0.1,0c-0.2,0-0.4,0.3-0.4,0.5c0,0.3,0.2,0.5,0.5,0.5h1.6v12.9L2.1,8.7
	L2,8.6C1.8,8.5,1.5,8.5,1.3,8.7c-0.2,0.2-0.2,0.5,0,0.7L8,16.1l6.7-6.7l0.1-0.1c0.1-0.2,0.1-0.5-0.1-0.7l-0.1-0.1
	c-0.2-0.1-0.5-0.1-0.7,0.1l-5.4,5.4V1.2h1.6l0.1,0C10.4,1.1,10.6,0.9,10.6,0.6z"/>
</svg>
