<?xml version="1.0" encoding="utf-8"?>
<!-- 
  Copyright (c) 2022, WSO2 LLC. (http://www.wso2.com). All Rights Reserved.
 
 - This software is the property of WSO2 Inc. and its suppliers, if any.
 - Dissemination of any information or reproduction of any material contained
 - herein is strictly forbidden, unless permitted by WSO2 in accordance with
 - the WSO2 Commercial License available at http://wso2.com/licenses.
 - For specific language governing the permissions and limitations under
 - this license, please see the license as well as any agreement you’ve
 - entered into with WSO2 governing the purchase of this software and any
 - associated services.
 -->
 <svg version="1.1" id="Layer_1" x="0px" y="0px" viewBox="0 0 16 16">
<path class="st0" d="M8.8,1c0.3,0,0.5-0.2,0.6-0.4c0-0.3-0.2-0.5-0.4-0.6c-2-0.2-4,0.3-5.7,1.5C3,1.7,3,2,3.1,2.3
	c0.2,0.2,0.5,0.3,0.7,0.1C5.3,1.3,7,0.8,8.8,1z M14.4,3.3c1.2,1.6,1.7,3.6,1.5,5.6c0,0.3-0.3,0.5-0.6,0.4c-0.3,0-0.5-0.3-0.4-0.6
	c0.2-1.7-0.3-3.5-1.3-4.9c-0.2-0.2-0.1-0.5,0.1-0.7C14,3,14.3,3,14.4,3.3z M2.4,12.2C1.3,10.7,0.9,9,1,7.2c0-0.3-0.2-0.5-0.4-0.6
	C0.3,6.7,0.1,6.9,0,7.1c-0.2,2,0.3,4,1.5,5.6C1.7,13,2,13,2.3,12.9C2.5,12.7,2.5,12.4,2.4,12.2z M12.7,14.5c0.2-0.2,0.3-0.5,0.1-0.7
	c-0.2-0.2-0.5-0.3-0.7-0.1c-1.4,1-3.2,1.5-4.9,1.3c-0.3,0-0.5,0.2-0.6,0.4c0,0.3,0.2,0.5,0.4,0.6C9.1,16.2,11.1,15.6,12.7,14.5z"/>
</svg>
