<?xml version="1.0" encoding="utf-8"?>
<!-- 
  Copyright (c) 2022, WSO2 LLC. (http://www.wso2.com). All Rights Reserved.
 
 - This software is the property of WSO2 Inc. and its suppliers, if any.
 - Dissemination of any information or reproduction of any material contained
 - herein is strictly forbidden, unless permitted by WSO2 in accordance with
 - the WSO2 Commercial License available at http://wso2.com/licenses.
 - For specific language governing the permissions and limitations under
 - this license, please see the license as well as any agreement you’ve
 - entered into with WSO2 governing the purchase of this software and any
 - associated services.
 -->
 <svg version="1.1" id="Layer_1" x="0px" y="0px" viewBox="0 0 16 16">
<path class="st0" d="M2,2c0,0.3,0.2,0.5,0.5,0.5h11C13.8,2.5,14,2.3,14,2s-0.2-0.5-0.5-0.5h-11C2.2,1.5,2,1.7,2,2z M2,6
	c0,0.3,0.2,0.5,0.5,0.5h11C13.8,6.5,14,6.3,14,6s-0.2-0.5-0.5-0.5h-11C2.2,5.5,2,5.7,2,6z M2.5,10.5C2.2,10.5,2,10.3,2,10
	s0.2-0.5,0.5-0.5h11c0.3,0,0.5,0.2,0.5,0.5s-0.2,0.5-0.5,0.5H2.5z M2,14c0,0.3,0.2,0.5,0.5,0.5h7c0.3,0,0.5-0.2,0.5-0.5
	s-0.2-0.5-0.5-0.5h-7C2.2,13.5,2,13.7,2,14z"/>
</svg>
