<?xml version="1.0" encoding="utf-8"?>
<!-- 
  Copyright (c) 2022, WSO2 LLC. (http://www.wso2.com). All Rights Reserved.
 
 - This software is the property of WSO2 Inc. and its suppliers, if any.
 - Dissemination of any information or reproduction of any material contained
 - herein is strictly forbidden, unless permitted by WSO2 in accordance with
 - the WSO2 Commercial License available at http://wso2.com/licenses.
 - For specific language governing the permissions and limitations under
 - this license, please see the license as well as any agreement you’ve
 - entered into with WSO2 governing the purchase of this software and any
 - associated services.
 -->
 <svg version="1.1" id="Layer_1" x="0px" y="0px" viewBox="0 0 16 16">
<path class="st0" d="M7.7,4L5.8,0.5L0,11.6h4.2c0.9,2.5,3.3,4.1,6,4c3.3-0.2,5.9-3,5.7-6.3c-0.2-3.3-3-5.9-6.3-5.7
	C8.9,3.6,8.2,3.8,7.7,4z M8.1,4.9l3.5,6.7H5.2c0.8,1.9,2.7,3.1,4.8,3c2.8-0.1,4.9-2.5,4.7-5.3c-0.1-2.8-2.5-4.9-5.3-4.7
	C9.1,4.6,8.6,4.7,8.1,4.9z M5.8,2.6l4.2,7.9H1.7L5.8,2.6z"/>
</svg>
