<?xml version="1.0" encoding="utf-8"?>
<!-- 
  Copyright (c) 2022, WSO2 LLC. (http://www.wso2.com). All Rights Reserved.
 
 - This software is the property of WSO2 Inc. and its suppliers, if any.
 - Dissemination of any information or reproduction of any material contained
 - herein is strictly forbidden, unless permitted by WSO2 in accordance with
 - the WSO2 Commercial License available at http://wso2.com/licenses.
 - For specific language governing the permissions and limitations under
 - this license, please see the license as well as any agreement you’ve
 - entered into with WSO2 governing the purchase of this software and any
 - associated services.
 -->
 <svg version="1.1" id="Layer_1" x="0px" y="0px" viewBox="0 0 16 16">
<path d="M14.1,6.4c1,0,1.8,0.8,1.9,1.9l0,0.1v5.3c0,1.1-0.8,1.9-1.8,2l-0.1,0H7.4c-1,0-1.8-0.8-1.9-1.9l0-0.1V8.4
	c0-1.1,0.8-1.9,1.8-2l0.1,0H14.1z M14.1,7.8H7.4C7,7.8,6.8,8,6.7,8.4l0,0.1v5.3c0,0.3,0.2,0.6,0.5,0.7l0.1,0h6.7
	c0.3,0,0.6-0.3,0.6-0.6l0-0.1V8.4C14.7,8.1,14.5,7.8,14.1,7.8z M11.2,11.8c0.3,0,0.6,0.3,0.6,0.7c0,0.3-0.2,0.6-0.5,0.7l-0.1,0H8.7
	c-0.3,0-0.6-0.3-0.6-0.7c0-0.3,0.2-0.6,0.5-0.7l0.1,0H11.2z M8.2,0.2c1.9,0,3.7,1.1,4.4,2.7l0.1,0.2l0.1,0c1,0,2,0.5,2.5,1.3
	l0.1,0.2c0.2,0.3,0.1,0.7-0.2,0.9c-0.3,0.2-0.7,0.1-0.9-0.2c-0.3-0.5-0.8-0.8-1.4-0.9l-0.2,0l-0.9,0l-0.3-0.8
	C11,2.4,9.7,1.6,8.2,1.6c-1.7,0-3.1,1.1-3.4,2.6l0,0.2L4.7,5.3l-1,0.2C2.3,5.8,1.3,6.9,1.3,8.2c0,1.4,1.1,2.6,2.6,2.7
	c0.4,0,0.6,0.4,0.6,0.7c0,0.4-0.4,0.6-0.7,0.6C1.7,12,0,10.2,0,8.2c0-1.9,1.3-3.5,3.2-3.9l0.2-0.1C3.8,2,5.7,0.3,8,0.2L8.2,0.2z
	 M12.9,9.1c0.3,0,0.6,0.3,0.6,0.7c0,0.3-0.2,0.6-0.5,0.7l-0.1,0H8.7C8.3,10.4,8,10.1,8,9.8c0-0.3,0.2-0.6,0.5-0.7l0.1,0H12.9z"/>
</svg>
