<?xml version="1.0" encoding="utf-8"?>
<!-- 
  Copyright (c) 2022, WSO2 LLC. (http://www.wso2.com). All Rights Reserved.
 
 - This software is the property of WSO2 Inc. and its suppliers, if any.
 - Dissemination of any information or reproduction of any material contained
 - herein is strictly forbidden, unless permitted by WSO2 in accordance with
 - the WSO2 Commercial License available at http://wso2.com/licenses.
 - For specific language governing the permissions and limitations under
 - this license, please see the license as well as any agreement you’ve
 - entered into with WSO2 governing the purchase of this software and any
 - associated services.
 -->
 <svg version="1.1" id="Layer_1" x="0px" y="0px" viewBox="0 0 16 16">
	<path d="M13.8,6.8h-3c-0.7-0.7-1.5-1.3-2.5-1.6C8.9,4.6,9.2,3.8,9.2,3c0-1.7-1.3-3-3-3c-1.7,0-3,1.3-3,3c0,0.8,0.4,1.6,0.9,2.2
		C1.7,6,0,8.3,0,11v1.7c0.1,1.1,1,2.1,2.2,2.1h2.5C5,15.5,5.8,16,6.6,16h7.2c1.2,0,2.2-1,2.2-2.2V9C16,7.8,15,6.8,13.8,6.8z
		 M6.2,1.2C7.2,1.2,8,2,8,3c0,1-0.8,1.8-1.8,1.8C5.2,4.8,4.4,4,4.4,3C4.4,2,5.2,1.2,6.2,1.2z M2.1,13.6c-0.5,0-0.9-0.5-0.9-1v-1.8
		C1.3,8.1,3.5,6,6.2,6c1,0,1.9,0.3,2.7,0.8H6.6c-1.2,0-2.2,1-2.2,2.2v4.6L2.1,13.6L2.1,13.6z M9.4,12.6c0.2,0.2,0.2,0.5,0,0.8
		l-0.1,0.1c-0.2,0.2-0.6,0.2-0.8,0.1l-0.1-0.1l-2-2.1l2-2c0.2-0.2,0.6-0.2,0.8,0c0.2,0.2,0.2,0.5,0.1,0.8l-0.1,0.1l-1.2,1.2
		L9.4,12.6z M11.6,13.4L11.6,13.4c-0.3,0.2-0.6,0.2-0.8,0l-0.1-0.1c-0.2-0.2-0.2-0.6,0.1-0.8l1.2-1.2l-1.2-1.2l-0.1-0.1
		c-0.2-0.2-0.2-0.6,0.1-0.8c0.2-0.2,0.6-0.2,0.9,0l2,2L11.6,13.4z"/>
</svg>
