<?xml version="1.0" encoding="utf-8"?>
<!-- 
  Copyright (c) 2022, WSO2 LLC. (http://www.wso2.com). All Rights Reserved.
 
 - This software is the property of WSO2 Inc. and its suppliers, if any.
 - Dissemination of any information or reproduction of any material contained
 - herein is strictly forbidden, unless permitted by WSO2 in accordance with
 - the WSO2 Commercial License available at http://wso2.com/licenses.
 - For specific language governing the permissions and limitations under
 - this license, please see the license as well as any agreement you’ve
 - entered into with WSO2 governing the purchase of this software and any
 - associated services.
 -->
 <svg version="1.1" id="Layer_1" x="0px" y="0px" viewBox="0 0 16 16">
<path class="st0" d="M2,1h4c0.6,0,1,0.4,1,1S6.6,3,6,3H2C1.4,3,1,2.6,1,2S1.4,1,2,1z M0,2c0-1.1,0.9-2,2-2h4c1.1,0,2,0.9,2,2
	S7.1,4,6,4H4.5v2h2c0.6,0,1,0.4,1,1v2H10c0,0,0,0,0,0c0.2-1.4,1.5-2.5,3-2.5c1.7,0,3,1.3,3,3c0,1.7-1.3,3-3,3c-1.5,0-2.7-1.1-3-2.5
	c0,0,0,0,0,0H7.5v2c0,0.6-0.4,1-1,1h-2v2.5C4.5,15.8,4.3,16,4,16s-0.5-0.2-0.5-0.5V13h-2c-0.6,0-1-0.4-1-1V7c0-0.6,0.4-1,1-1h2V4H2
	C0.9,4,0,3.1,0,2z M4,7H1.5v5h5V7H4z M13,11.5c1.1,0,2-0.9,2-2c0-1.1-0.9-2-2-2s-2,0.9-2,2C11,10.6,11.9,11.5,13,11.5z"/>
</svg>
