<?xml version="1.0" encoding="utf-8"?>
<!-- 
  Copyright (c) 2022, WSO2 LLC. (http://www.wso2.com). All Rights Reserved.
 
 - This software is the property of WSO2 Inc. and its suppliers, if any.
 - Dissemination of any information or reproduction of any material contained
 - herein is strictly forbidden, unless permitted by WSO2 in accordance with
 - the WSO2 Commercial License available at http://wso2.com/licenses.
 - For specific language governing the permissions and limitations under
 - this license, please see the license as well as any agreement you’ve
 - entered into with WSO2 governing the purchase of this software and any
 - associated services.
 -->
 <svg version="1.1" id="Layer_1" x="0px" y="0px" viewBox="0 0 16 16">
<path class="st0" d="M8.5-1c0-0.3-0.2-0.5-0.5-0.5S7.5-1.3,7.5-1v5.5H4c-1.1,0-2,0.9-2,2v3c0,1.1,0.9,2,2,2h3.5V16
	c0,0.3,0.2,0.5,0.5,0.5s0.5-0.2,0.5-0.5v-4.5H12c1.1,0,2-0.9,2-2v-3c0-1.1-0.9-2-2-2H8.5V-1z M8.5,8c0,0.3-0.2,0.5-0.5,0.5
	S7.5,8.3,7.5,8S7.7,7.5,8,7.5S8.5,7.7,8.5,8z M5,8.5c0.3,0,0.5-0.2,0.5-0.5S5.3,7.5,5,7.5S4.5,7.7,4.5,8S4.7,8.5,5,8.5z M11.5,8
	c0,0.3-0.2,0.5-0.5,0.5S10.5,8.3,10.5,8s0.2-0.5,0.5-0.5S11.5,7.7,11.5,8z M4,5.5h8c0.6,0,1,0.4,1,1v3c0,0.6-0.4,1-1,1H4
	c-0.6,0-1-0.4-1-1v-3C3,5.9,3.4,5.5,4,5.5z"/>
</svg>
