<?xml version="1.0" encoding="utf-8"?>
<!-- 
  Copyright (c) 2022, WSO2 LLC. (http://www.wso2.com). All Rights Reserved.
 
 - This software is the property of WSO2 Inc. and its suppliers, if any.
 - Dissemination of any information or reproduction of any material contained
 - herein is strictly forbidden, unless permitted by WSO2 in accordance with
 - the WSO2 Commercial License available at http://wso2.com/licenses.
 - For specific language governing the permissions and limitations under
 - this license, please see the license as well as any agreement you’ve
 - entered into with WSO2 governing the purchase of this software and any
 - associated services.
 -->
 <svg version="1.1" id="Layer_1" x="0px" y="0px" viewBox="0 0 16 16">
<path class="st0" d="M12.5,0.5c1.1,0,2,0.9,2,2v11c0,1.1-0.9,2-2,2h-9c-1.1,0-2-0.9-2-2v-11c0-1.1,0.9-2,2-2H12.5z M12.5,1.5h-9
	c-0.5,0-0.9,0.4-1,0.9l0,0.1v11c0,0.5,0.4,0.9,0.9,1l0.1,0h9c0.5,0,0.9-0.4,1-0.9l0-0.1v-11c0-0.5-0.4-0.9-0.9-1L12.5,1.5z M5,4
	C4.7,4,4.5,4.2,4.5,4.5C4.5,4.8,4.7,5,5,5h6c0.3,0,0.5-0.2,0.5-0.5C11.5,4.2,11.3,4,11,4H5z M6.5,8c0-0.3,0.2-0.5,0.5-0.5h4
	c0.3,0,0.5,0.2,0.5,0.5c0,0.3-0.2,0.5-0.5,0.5H7C6.7,8.5,6.5,8.3,6.5,8z M5,7.5C4.7,7.5,4.5,7.8,4.5,8c0,0.3,0.2,0.5,0.5,0.5
	S5.5,8.3,5.5,8C5.5,7.8,5.3,7.5,5,7.5z M6.5,11.5C6.5,11.2,6.7,11,7,11h4c0.3,0,0.5,0.2,0.5,0.5S11.3,12,11,12H7
	C6.7,12,6.5,11.8,6.5,11.5z M5,11c-0.3,0-0.5,0.2-0.5,0.5S4.7,12,5,12s0.5-0.2,0.5-0.5S5.3,11,5,11z"/>
</svg>
