<?xml version="1.0" encoding="utf-8"?>
<!-- 
  Copyright (c) 2022, WSO2 LLC. (http://www.wso2.com). All Rights Reserved.
 
 - This software is the property of WSO2 Inc. and its suppliers, if any.
 - Dissemination of any information or reproduction of any material contained
 - herein is strictly forbidden, unless permitted by WSO2 in accordance with
 - the WSO2 Commercial License available at http://wso2.com/licenses.
 - For specific language governing the permissions and limitations under
 - this license, please see the license as well as any agreement you’ve
 - entered into with WSO2 governing the purchase of this software and any
 - associated services.
 -->
 <svg version="1.1" id="Layer_1" x="0px" y="0px" viewBox="0 0 16 16">
	<path class="st0" d="M13,1.8C13,1.3,12.7,1,12.3,1H5.7L5.6,1C5.3,1.1,5,1.4,5,1.8c0,0.4,0.3,0.8,0.7,0.8h6.6l0.1,0
	C12.7,2.4,13,2.1,13,1.8z M14.3,4.5c0.4,0,0.7,0.3,0.7,0.8c0,0.4-0.3,0.7-0.6,0.7l-0.1,0H3.7C3.3,6,3,5.7,3,5.2
	c0-0.4,0.3-0.7,0.6-0.7l0.1,0H14.3z M1,9.5V8h1.5h13H17v1.5v5.6c0,1-0.9,1.9-1.9,1.9H2.9C1.9,17,1,16.2,1,15.1V9.5z M15.5,9.5h-13
	v5.6c0,0.1,0.1,0.4,0.4,0.4h12.1c0.3,0,0.4-0.2,0.4-0.4V9.5z"/>
</svg>
