<?xml version="1.0" encoding="utf-8"?>
<!-- 
  Copyright (c) 2022, WSO2 LLC. (http://www.wso2.com). All Rights Reserved.
 
 - This software is the property of WSO2 Inc. and its suppliers, if any.
 - Dissemination of any information or reproduction of any material contained
 - herein is strictly forbidden, unless permitted by WSO2 in accordance with
 - the WSO2 Commercial License available at http://wso2.com/licenses.
 - For specific language governing the permissions and limitations under
 - this license, please see the license as well as any agreement you’ve
 - entered into with WSO2 governing the purchase of this software and any
 - associated services.
 -->
 <svg version="1.1" id="Layer_1" x="0px" y="0px" viewBox="0 0 16 16">
<path class="st0" d="M7.5,0.5C7.5,0.2,7.7,0,8,0s0.5,0.2,0.5,0.5v10.3l4.6-4.6c0.2-0.2,0.5-0.2,0.7,0c0.2,0.2,0.2,0.5,0,0.7
	l-5.5,5.5L8,12.7l-0.4-0.4L2.1,6.9C2,6.7,2,6.3,2.1,6.1C2.3,6,2.7,6,2.9,6.1l4.6,4.6V0.5z M15,13.5c0.2,0,0.4,0.2,0.5,0.4l0,0.1
	c0,0.8-0.6,1.4-1.4,1.5l-0.1,0H2c-0.8,0-1.4-0.6-1.5-1.4l0-0.1c0-0.3,0.2-0.5,0.5-0.5c0.2,0,0.4,0.2,0.5,0.4l0,0.1
	c0,0.2,0.2,0.4,0.4,0.5l0.1,0h12c0.2,0,0.4-0.2,0.5-0.4l0-0.1C14.5,13.7,14.7,13.5,15,13.5z"/>
</svg>
