<?xml version="1.0" encoding="utf-8"?>
<!-- 
  Copyright (c) 2022, WSO2 LLC. (http://www.wso2.com). All Rights Reserved.
 
 - This software is the property of WSO2 Inc. and its suppliers, if any.
 - Dissemination of any information or reproduction of any material contained
 - herein is strictly forbidden, unless permitted by WSO2 in accordance with
 - the WSO2 Commercial License available at http://wso2.com/licenses.
 - For specific language governing the permissions and limitations under
 - this license, please see the license as well as any agreement you’ve
 - entered into with WSO2 governing the purchase of this software and any
 - associated services.
 -->
 <svg version="1.1" id="Layer_1" x="0px" y="0px" viewBox="0 0 16 16">
<path class="st0" d="M15.5,4C15.8,4,16,4.2,16,4.5S15.8,5,15.5,5h-15C0.2,5,0,4.8,0,4.5S0.2,4,0.5,4H15.5z M15.5,7.5
	C15.8,7.5,16,7.7,16,8s-0.2,0.5-0.5,0.5h-15C0.2,8.5,0,8.3,0,8s0.2-0.5,0.5-0.5H15.5z M16,11.5c0-0.3-0.2-0.5-0.5-0.5h-15
	C0.2,11,0,11.2,0,11.5S0.2,12,0.5,12h15C15.8,12,16,11.8,16,11.5z"/>
</svg>
