<?xml version="1.0" encoding="utf-8"?>
<!-- 
  Copyright (c) 2022, WSO2 LLC. (http://www.wso2.com). All Rights Reserved.
 
 - This software is the property of WSO2 Inc. and its suppliers, if any.
 - Dissemination of any information or reproduction of any material contained
 - herein is strictly forbidden, unless permitted by WSO2 in accordance with
 - the WSO2 Commercial License available at http://wso2.com/licenses.
 - For specific language governing the permissions and limitations under
 - this license, please see the license as well as any agreement you’ve
 - entered into with WSO2 governing the purchase of this software and any
 - associated services.
 -->
 <svg version="1.1" id="Layer_1" x="0px" y="0px" viewBox="0 0 16 16">
<path class="st0" d="M16,2.3C15.9,1,14.8,0,13.5,0h-8L5.3,0C4,0.1,3,1.2,3,2.5V3H2.5C1.1,3,0,4.1,0,5.5v8C0,14.9,1.1,16,2.5,16h8
	c1.4,0,2.5-1.1,2.5-2.5V13h0.5l0.2,0c1.3-0.1,2.3-1.2,2.3-2.5v-8L16,2.3z M13,12h0.5c0.8,0,1.4-0.6,1.5-1.4l0-0.1v-8
	c0-0.8-0.6-1.4-1.4-1.5l-0.1,0h-8C4.7,1,4.1,1.6,4,2.4l0,0.1V3h6.5C11.9,3,13,4.1,13,5.5V12z M10.5,4h-8C1.7,4,1,4.7,1,5.5v8
	C1,14.3,1.7,15,2.5,15h8c0.8,0,1.5-0.7,1.5-1.5v-8C12,4.7,11.3,4,10.5,4z M6,12.5C6,12.8,6.2,13,6.5,13S7,12.8,7,12.5V10h2.5
	C9.8,10,10,9.8,10,9.5S9.8,9,9.5,9H7V6.5C7,6.2,6.8,6,6.5,6S6,6.2,6,6.5V9H3.5C3.2,9,3,9.2,3,9.5S3.2,10,3.5,10H6V12.5z"/>
</svg>
