<?xml version="1.0" encoding="utf-8"?>
<!-- 
  Copyright (c) 2022, WSO2 LLC. (http://www.wso2.com). All Rights Reserved.
 
 - This software is the property of WSO2 Inc. and its suppliers, if any.
 - Dissemination of any information or reproduction of any material contained
 - herein is strictly forbidden, unless permitted by WSO2 in accordance with
 - the WSO2 Commercial License available at http://wso2.com/licenses.
 - For specific language governing the permissions and limitations under
 - this license, please see the license as well as any agreement you’ve
 - entered into with WSO2 governing the purchase of this software and any
 - associated services.
 -->
 <svg version="1.1" id="Layer_1" x="0px" y="0px" viewBox="0 0 16 16">
<path class="st0" d="M1.5,2.5h13C15.3,2.5,16,3.2,16,4v8c0,0.8-0.7,1.5-1.5,1.5h-13C0.7,13.5,0,12.8,0,12V4C0,3.2,0.7,2.5,1.5,2.5z
	 M1.9,3.5h12.1L8.3,8.1L8.2,8.2C8.1,8.3,7.8,8.2,7.7,8.1L1.9,3.5z M1,11.6V4l4.7,3.8L1,11.6z M1.4,12.5C1.5,12.5,1.5,12.5,1.4,12.5
	l13.1,0c0,0,0,0,0.1,0L9.5,8.4L8.9,8.9C8.4,9.3,7.7,9.3,7.2,9L7.1,8.9L6.5,8.4L1.4,12.5z M10.3,7.8l4.7,3.8V4L10.3,7.8z"/>
</svg>
