<?xml version="1.0" encoding="utf-8"?>
<!-- 
  Copyright (c) 2022, WSO2 LLC. (http://www.wso2.com). All Rights Reserved.
 
 - This software is the property of WSO2 Inc. and its suppliers, if any.
 - Dissemination of any information or reproduction of any material contained
 - herein is strictly forbidden, unless permitted by WSO2 in accordance with
 - the WSO2 Commercial License available at http://wso2.com/licenses.
 - For specific language governing the permissions and limitations under
 - this license, please see the license as well as any agreement you’ve
 - entered into with WSO2 governing the purchase of this software and any
 - associated services.
 -->
 <svg version="1.1" id="Layer_1" x="0px" y="0px" viewBox="0 0 16 16">
<path d="M3.1,15.6C2,12.4,1.5,9.8,1.5,8S2,3.6,3.1,0.4C3.1,0.2,3,0.1,2.9,0c0,0-0.1,0-0.1,0H2.1C0.7,2.3,0,5,0,8
	c0,2.9,0.7,5.6,2.1,8h0.7C3,16,3.1,15.9,3.1,15.6C3.1,15.7,3.1,15.6,3.1,15.6z M6.8,13c0.8,0,1.6-0.2,2.3-0.6c0.7-0.4,1.4-1,2.1-1.9
	l-0.3-0.3c-0.6,0.5-1.1,0.9-1.5,1.1S8.4,11.8,8,11.8c-0.5,0-0.8-0.1-1.1-0.4c-0.3-0.3-0.4-0.7-0.4-1.1c0-0.3,0-0.6,0.1-1
	C7.3,9.1,7.9,9,8.4,8.9c0.7-0.2,1.3-0.5,1.8-0.8c0.5-0.4,1-0.8,1.4-1.4C11.9,6.2,12,5.8,12,5.3c0-0.4-0.1-0.7-0.4-1
	C11.3,4.1,10.9,4,10.4,4c-1,0-2.1,0.3-3.1,0.9S5.5,6.4,4.9,7.4C4.3,8.4,4,9.5,4,10.5c0,0.7,0.2,1.2,0.6,1.7C5,12.7,5.7,13,6.8,13z
	 M6.7,8.7c0.5-1.5,1-2.7,1.7-3.5c0.4-0.4,0.7-0.6,1-0.6c0.1,0,0.3,0.1,0.4,0.2C9.8,4.9,9.9,5,9.9,5.2c0,0.4-0.1,0.9-0.3,1.3
	C9.4,7,9.1,7.4,8.8,7.7C8.5,8,8.2,8.2,7.9,8.4C7.6,8.5,7.2,8.6,6.7,8.7z M12.9,15.6c1-3.2,1.6-5.8,1.6-7.6S14,3.6,12.9,0.4
	c-0.1-0.2,0-0.3,0.2-0.4c0,0,0.1,0,0.1,0h0.7C15.3,2.3,16,5,16,8c0,2.9-0.7,5.6-2.1,8h-0.7C13,16,12.9,15.9,12.9,15.6
	C12.9,15.7,12.9,15.6,12.9,15.6z"/>
</svg>
