<?xml version="1.0" encoding="utf-8"?>
<!-- 
  Copyright (c) 2022, WSO2 LLC. (http://www.wso2.com). All Rights Reserved.
 
 - This software is the property of WSO2 Inc. and its suppliers, if any.
 - Dissemination of any information or reproduction of any material contained
 - herein is strictly forbidden, unless permitted by WSO2 in accordance with
 - the WSO2 Commercial License available at http://wso2.com/licenses.
 - For specific language governing the permissions and limitations under
 - this license, please see the license as well as any agreement you’ve
 - entered into with WSO2 governing the purchase of this software and any
 - associated services.
 -->
 <svg version="1.1" id="Layer_1" x="0px" y="0px" viewBox="0 0 16 16">
<path d="M8,0c4.4,0,8,3.6,8,8c0,4.4-3.6,8-8,8c-4.4,0-8-3.6-8-8C0,3.6,3.6,0,8,0z M8,1.4c-3.7,0-6.6,3-6.6,6.6c0,3.7,3,6.6,6.6,6.6
	c3.7,0,6.6-3,6.6-6.6C14.6,4.3,11.7,1.4,8,1.4z M8,3.7c2.4,0,4.3,1.9,4.3,4.3c0,0.2,0,0.3,0,0.5c0.2,0.3,0.3,0.7,0.3,1.1
	c0,1.4-1.1,2.5-2.5,2.5c-0.2,0-0.4,0-0.5-0.1l0.1,0c-0.5,0.2-1.1,0.3-1.6,0.3c-2.4,0-4.3-1.9-4.3-4.3C3.7,5.6,5.6,3.7,8,3.7z
	 M10.1,8.5C9.4,8.5,8.9,9,8.9,9.6c0,0.6,0.5,1.1,1.1,1.1c0.6,0,1.1-0.5,1.1-1.1C11.2,9,10.7,8.5,10.1,8.5z"/>
</svg>
