<?xml version="1.0" encoding="utf-8"?>
<!-- 
  Copyright (c) 2022, WSO2 LLC. (http://www.wso2.com). All Rights Reserved.
 
 - This software is the property of WSO2 Inc. and its suppliers, if any.
 - Dissemination of any information or reproduction of any material contained
 - herein is strictly forbidden, unless permitted by WSO2 in accordance with
 - the WSO2 Commercial License available at http://wso2.com/licenses.
 - For specific language governing the permissions and limitations under
 - this license, please see the license as well as any agreement you’ve
 - entered into with WSO2 governing the purchase of this software and any
 - associated services.
 -->
 <svg version="1.1" id="Layer_1" x="0px" y="0px" viewBox="0 0 16 16">
<path class="st0" d="M1.3,5.1l3.8-3.8C5.3,1.1,5.6,1,5.8,1h4.3c0.3,0,0.5,0.1,0.7,0.3l3.8,3.8C14.9,5.3,15,5.6,15,5.8v4.3
	c0,0.3-0.1,0.5-0.3,0.7l-3.8,3.8c-0.2,0.2-0.4,0.3-0.7,0.3H5.8c-0.3,0-0.5-0.1-0.7-0.3l-3.8-3.8C1.1,10.7,1,10.4,1,10.2V5.8
	C1,5.6,1.1,5.3,1.3,5.1L0.6,4.4L1.3,5.1z M4.4,0.6L0.6,4.4C0.2,4.8,0,5.3,0,5.8v4.3c0,0.5,0.2,1,0.6,1.4l3.8,3.8
	C4.8,15.8,5.3,16,5.8,16h4.3c0.5,0,1-0.2,1.4-0.6l3.8-3.8c0.4-0.4,0.6-0.9,0.6-1.4V5.8c0-0.5-0.2-1-0.6-1.4l-3.8-3.8
	C11.2,0.2,10.7,0,10.2,0H5.8C5.3,0,4.8,0.2,4.4,0.6z M10.9,5.1c0.2,0.2,0.2,0.5,0,0.7L8.7,8l2.2,2.2c0.2,0.2,0.2,0.5,0,0.7
	c-0.2,0.2-0.5,0.2-0.7,0L8,8.7l-2.2,2.2c-0.2,0.2-0.5,0.2-0.7,0c-0.2-0.2-0.2-0.5,0-0.7L7.3,8L5.1,5.8c-0.2-0.2-0.2-0.5,0-0.7
	c0.2-0.2,0.5-0.2,0.7,0L8,7.3l2.2-2.2C10.4,4.9,10.7,4.9,10.9,5.1z"/>
</svg>
