<?xml version="1.0" encoding="utf-8"?>
<!-- 
  Copyright (c) 2022, WSO2 LLC. (http://www.wso2.com). All Rights Reserved.
 
 - This software is the property of WSO2 Inc. and its suppliers, if any.
 - Dissemination of any information or reproduction of any material contained
 - herein is strictly forbidden, unless permitted by WSO2 in accordance with
 - the WSO2 Commercial License available at http://wso2.com/licenses.
 - For specific language governing the permissions and limitations under
 - this license, please see the license as well as any agreement you’ve
 - entered into with WSO2 governing the purchase of this software and any
 - associated services.
 -->
 <svg version="1.1" id="Layer_1" x="0px" y="0px" viewBox="0 0 16 16">
<path class="st0" d="M8,0C3.6,0,0,3.6,0,8c0,4.4,3.6,8,8,8c4.4,0,8-3.6,8-8C16,3.6,12.4,0,8,0z M8,1c3.9,0,7,3.1,7,7
	c0,3.9-3.1,7-7,7c-3.9,0-7-3.1-7-7C1,4.1,4.1,1,8,1z M5.3,6.6C5.1,6.5,4.8,6.5,4.6,6.7c-0.2,0.2-0.2,0.5,0,0.7L8,10.7l3.4-3.3
	l0.1-0.1c0.1-0.2,0.1-0.5-0.1-0.6l-0.1-0.1c-0.2-0.1-0.5-0.1-0.6,0.1L8,9.3L5.3,6.6L5.3,6.6z"/>
</svg>
