<?xml version="1.0" encoding="utf-8"?>
<!-- 
  Copyright (c) 2022, WSO2 LLC. (http://www.wso2.com). All Rights Reserved.
 
 - This software is the property of WSO2 Inc. and its suppliers, if any.
 - Dissemination of any information or reproduction of any material contained
 - herein is strictly forbidden, unless permitted by WSO2 in accordance with
 - the WSO2 Commercial License available at http://wso2.com/licenses.
 - For specific language governing the permissions and limitations under
 - this license, please see the license as well as any agreement you’ve
 - entered into with WSO2 governing the purchase of this software and any
 - associated services.
 -->
 <svg version="1.1" id="Layer_1" x="0px" y="0px" viewBox="0 0 16 16">
<path d="M2.5,1c0.4,0,0.8,0.3,0.8,0.8c0,0.4-0.3,0.7-0.6,0.7l-0.1,0h-1v11h1c0.4,0,0.7,0.3,0.7,0.6l0,0.1c0,0.4-0.3,0.7-0.6,0.7
	l-0.1,0H1.2c-0.6,0-1.2-0.5-1.2-1.1l0-0.1V2.2C0,1.6,0.5,1.1,1.1,1l0.1,0H2.5z M14.8,1c0.6,0,1.2,0.5,1.2,1.1l0,0.1v11.5
	c0,0.6-0.5,1.2-1.1,1.2l-0.1,0h-1.2c-0.4,0-0.8-0.3-0.8-0.8c0-0.4,0.3-0.7,0.6-0.7l0.1,0l1,0v-11l-1,0c-0.4,0-0.7-0.3-0.7-0.6l0-0.1
	c0-0.4,0.3-0.7,0.6-0.7l0.1,0H14.8z M8.7,2.6l0.2,0.1l3.3,1.9c0.5,0.3,0.8,0.8,0.9,1.4l0,0.2v3.8c0,0.6-0.3,1.1-0.7,1.4l-0.1,0.1
	l-3.3,1.9c-0.5,0.3-1.1,0.3-1.6,0.1l-0.2-0.1l-3.3-1.9c-0.5-0.3-0.8-0.8-0.9-1.4l0-0.2V6.1c0-0.6,0.3-1.1,0.7-1.4l0.1-0.1l3.3-1.9
	C7.6,2.4,8.2,2.3,8.7,2.6z M8,8.6l-3.7,2l3.3,1.9c0.2,0.1,0.4,0.1,0.6,0l0.1,0l3.3-1.9L8,8.6z M7.5,3.6L4.3,5.4C4.1,5.5,4,5.7,3.9,6
	l0,0.1l0,3.6l3.6-2L7.5,3.6z M8.5,3.6v4.1l3.6,2l0-3.6c0-0.2-0.1-0.4-0.3-0.6l-0.1-0.1L8.5,3.6z"/>
</svg>
