<?xml version="1.0" encoding="utf-8"?>
<!-- 
  Copyright (c) 2022, WSO2 LLC. (http://www.wso2.com). All Rights Reserved.
 
 - This software is the property of WSO2 Inc. and its suppliers, if any.
 - Dissemination of any information or reproduction of any material contained
 - herein is strictly forbidden, unless permitted by WSO2 in accordance with
 - the WSO2 Commercial License available at http://wso2.com/licenses.
 - For specific language governing the permissions and limitations under
 - this license, please see the license as well as any agreement you’ve
 - entered into with WSO2 governing the purchase of this software and any
 - associated services.
 -->
 <svg version="1.1" id="Layer_1" x="0px" y="0px" viewBox="0 0 16 16">
<path class="st0" d="M16,1.5C15.9,0.6,15.2,0,14.4,0H6.6L6.5,0C5.6,0.1,5,0.8,5,1.6v4.4l0,0.1c0,0.2,0.2,0.4,0.5,0.4
	C5.8,6.6,6,6.3,6,6.1V1.6l0-0.1C6.1,1.2,6.3,1,6.6,1h7.8l0.1,0c0.3,0,0.5,0.3,0.5,0.6v7.8l0,0.1c0,0.3-0.3,0.5-0.6,0.5H9.9l-0.1,0
	c-0.2,0-0.4,0.2-0.4,0.5c0,0.3,0.2,0.5,0.5,0.5h4.4l0.1,0c0.8-0.1,1.5-0.8,1.5-1.6V1.6L16,1.5z M13,3v3.5C13,6.8,12.8,7,12.5,7
	c-0.2,0-0.4-0.2-0.5-0.4l0-0.1l0-1.8l-8.1,8.1c-0.2,0.2-0.5,0.2-0.7,0C3,12.7,3,12.4,3.1,12.2l0.1-0.1L11.3,4L9.5,4
	C9.3,4,9.1,3.8,9,3.6l0-0.1C9,3.3,9.2,3.1,9.4,3l0.1,0H13z M3.5,9C3.8,9,4,9.2,4,9.5S3.8,10,3.5,10C2.1,10,1,11.1,1,12.5
	S2.1,15,3.5,15S6,13.9,6,12.5C6,12.2,6.2,12,6.5,12S7,12.2,7,12.5C7,14.4,5.4,16,3.5,16S0,14.4,0,12.5S1.6,9,3.5,9z"/>
</svg>
