<?xml version="1.0" encoding="utf-8"?>
<!-- 
  Copyright (c) 2022, WSO2 LLC. (http://www.wso2.com). All Rights Reserved.
 
 - This software is the property of WSO2 Inc. and its suppliers, if any.
 - Dissemination of any information or reproduction of any material contained
 - herein is strictly forbidden, unless permitted by WSO2 in accordance with
 - the WSO2 Commercial License available at http://wso2.com/licenses.
 - For specific language governing the permissions and limitations under
 - this license, please see the license as well as any agreement you’ve
 - entered into with WSO2 governing the purchase of this software and any
 - associated services.
 -->
 <svg version="1.1" id="Layer_1" x="0px" y="0px" viewBox="0 0 16 16">
<path class="st0" d="M0,3.8C0.1,2,1.6,0.5,3.5,0.5h9l0.2,0C14.5,0.6,16,2.1,16,4v10.1l0,0.2c0,0.5-0.3,1-0.7,1.3l-0.1,0.1L15,15.7
	c-0.6,0.3-0.7,0.2-1-0.2c-0.1-0.1-0.1-0.2-0.2-0.3l-2-2.7H3.5l-0.2,0C1.5,12.4,0,10.9,0,9V4L0,3.8z M12.5,1.5h-9l-0.2,0
	C2,1.6,1,2.7,1,4v5l0,0.2c0.1,1.3,1.2,2.3,2.5,2.3h8.8l2.3,3.1l0.1,0.1c0,0,0,0,0.1,0.1l-0.1,0c-0.3,0.2,0.2,0.2,0.1,0l0,0l0.1-0.1
	c0.1-0.1,0.2-0.3,0.2-0.6V4l0-0.2C14.9,2.5,13.8,1.5,12.5,1.5z M6,6.5c0,0.6-0.4,1-1,1s-1-0.4-1-1s0.4-1,1-1S6,5.9,6,6.5z M11,7.5
	c0.6,0,1-0.4,1-1s-0.4-1-1-1s-1,0.4-1,1S10.4,7.5,11,7.5z"/>
</svg>
