<?xml version="1.0" encoding="utf-8"?>
<!-- 
  Copyright (c) 2022, WSO2 LLC. (http://www.wso2.com). All Rights Reserved.
 
 - This software is the property of WSO2 Inc. and its suppliers, if any.
 - Dissemination of any information or reproduction of any material contained
 - herein is strictly forbidden, unless permitted by WSO2 in accordance with
 - the WSO2 Commercial License available at http://wso2.com/licenses.
 - For specific language governing the permissions and limitations under
 - this license, please see the license as well as any agreement you’ve
 - entered into with WSO2 governing the purchase of this software and any
 - associated services.
 -->
 <svg version="1.1" id="Layer_1" x="0px" y="0px" viewBox="0 0 16 16">
<path class="st0" d="M1.5,0.5h13c0.5,0,1,0.4,1,1c0,0.2-0.1,0.4-0.2,0.6l-5.3,6l0,4.7c0,0.5-0.3,1-0.7,1.3l-0.1,0.1l-1.7,1.3
	c-0.5,0.2-1.1,0-1.3-0.4C6,14.8,6,14.7,6,14.5l0-6.5l-5.3-6c-0.3-0.4-0.2-1,0.1-1.3l0.1-0.1C1.1,0.6,1.3,0.5,1.5,0.5z M14.5,1.5h-13
	L7,7.7v6.8l1.7-1.3C8.9,13.1,9,12.9,9,12.7v-5L14.5,1.5z"/>
</svg>
