<?xml version="1.0" encoding="utf-8"?>
<!-- 
  Copyright (c) 2022, WSO2 LLC. (http://www.wso2.com). All Rights Reserved.
 
 - This software is the property of WSO2 Inc. and its suppliers, if any.
 - Dissemination of any information or reproduction of any material contained
 - herein is strictly forbidden, unless permitted by WSO2 in accordance with
 - the WSO2 Commercial License available at http://wso2.com/licenses.
 - For specific language governing the permissions and limitations under
 - this license, please see the license as well as any agreement you’ve
 - entered into with WSO2 governing the purchase of this software and any
 - associated services.
 -->
 <svg version="1.1" id="Layer_1" x="0px" y="0px" viewBox="0 0 16 16">
<path d="M14.5,0.5h-13c-0.2,0-0.4,0.1-0.6,0.2L0.8,0.8C0.5,1.1,0.4,1.6,0.7,2.1l5.3,6l0,6.5c0,0.2,0,0.3,0.1,0.4
	c0.2,0.5,0.8,0.7,1.3,0.4l1.7-1.3L9.3,14c0.4-0.3,0.7-0.7,0.7-1.3l0-4.7l5.3-6c0.1-0.2,0.2-0.4,0.2-0.6C15.5,0.9,15.1,0.5,14.5,0.5z
	"/>
</svg>
