<?xml version="1.0" encoding="utf-8"?>
<!-- 
  Copyright (c) 2022, WSO2 LLC. (http://www.wso2.com). All Rights Reserved.
 
 - This software is the property of WSO2 Inc. and its suppliers, if any.
 - Dissemination of any information or reproduction of any material contained
 - herein is strictly forbidden, unless permitted by WSO2 in accordance with
 - the WSO2 Commercial License available at http://wso2.com/licenses.
 - For specific language governing the permissions and limitations under
 - this license, please see the license as well as any agreement you’ve
 - entered into with WSO2 governing the purchase of this software and any
 - associated services.
 -->
 <svg version="1.1" id="Layer_1" x="0px" y="0px" viewBox="0 0 16 16">
<path class="st0" d="M10.5,0c0.2,0,0.4,0.2,0.5,0.4l0,0.1v15c0,0.3-0.2,0.5-0.5,0.5c-0.2,0-0.4-0.2-0.5-0.4l0-0.1v-15
	C10,0.2,10.2,0,10.5,0z M16,4.4c0-0.2-0.2-0.4-0.5-0.4C15.2,4,15,4.2,15,4.5v11l0,0.1c0,0.2,0.2,0.4,0.5,0.4c0.3,0,0.5-0.2,0.5-0.5
	L16,4.4L16,4.4z M1,11.4c0-0.2-0.2-0.4-0.5-0.4C0.2,11,0,11.2,0,11.5v4l0,0.1c0,0.2,0.2,0.4,0.5,0.4C0.8,16,1,15.8,1,15.5L1,11.4
	L1,11.4z M6,7.4C5.9,7.2,5.7,7,5.5,7C5.2,7,5,7.2,5,7.5v8l0,0.1c0,0.2,0.2,0.4,0.5,0.4C5.8,16,6,15.8,6,15.5L6,7.4L6,7.4z"/>
</svg>
