<?xml version="1.0" encoding="utf-8"?>
<!-- 
  Copyright (c) 2022, WSO2 LLC. (http://www.wso2.com). All Rights Reserved.
 
 - This software is the property of WSO2 Inc. and its suppliers, if any.
 - Dissemination of any information or reproduction of any material contained
 - herein is strictly forbidden, unless permitted by WSO2 in accordance with
 - the WSO2 Commercial License available at http://wso2.com/licenses.
 - For specific language governing the permissions and limitations under
 - this license, please see the license as well as any agreement you’ve
 - entered into with WSO2 governing the purchase of this software and any
 - associated services.
 -->
 <svg version="1.1" id="Layer_1" x="0px" y="0px" viewBox="0 0 16 16">
<path class="st0" d="M0,2.7C0.1,1.2,1.3,0,2.8,0h5.6l0.2,0c1.5,0.1,2.7,1.3,2.7,2.8V5h2.2c1.3,0,2.4,1,2.5,2.3l0,0.2v7.9
	c0,0.1,0,0.1-0.1,0.2c-0.1,0.1-0.2,0.1-0.3,0l-0.1,0L13,13H7.5c-1.3,0-2.3-0.9-2.5-2.2l0-0.2l0-0.2v-2l-1.5,0l-2.3,2.3l-0.1,0.1
	c-0.3,0.2-0.7,0.2-1-0.1C0.1,10.6,0,10.5,0,10.3V2.8L0,2.7z M5,7.5L5,7.5C5,6.2,6,5.1,7.3,5l0.2,0h2.8l0-2.2l0-0.1
	C10.3,1.8,9.5,1,8.5,1H2.8L2.7,1C1.8,1.1,1,1.9,1,2.8l0,6.8l2.1-2.1H5z M13.5,6h-6C6.7,6,6.1,6.6,6,7.4l0,0.1l0,3l0,0.1
	c0,0.7,0.6,1.3,1.4,1.4l0.1,0h5.9l1.6,1.6V7.5c0-0.8-0.6-1.4-1.4-1.5L13.5,6z"/>
</svg>
