<?xml version="1.0" encoding="utf-8"?>
<!-- 
  Copyright (c) 2022, WSO2 LLC. (http://www.wso2.com). All Rights Reserved.
 
 - This software is the property of WSO2 Inc. and its suppliers, if any.
 - Dissemination of any information or reproduction of any material contained
 - herein is strictly forbidden, unless permitted by WSO2 in accordance with
 - the WSO2 Commercial License available at http://wso2.com/licenses.
 - For specific language governing the permissions and limitations under
 - this license, please see the license as well as any agreement you’ve
 - entered into with WSO2 governing the purchase of this software and any
 - associated services.
 -->
 <svg version="1.1" id="Layer_1" x="0px" y="0px" viewBox="0 0 16 16">
<path class="st0" d="M15,0.5h0.5V1v4c0,0.3-0.2,0.5-0.5,0.5S14.5,5.3,14.5,5V2.2l-4.1,4.1c-0.2,0.2-0.5,0.2-0.7,0
	c-0.2-0.2-0.2-0.5,0-0.7l4.1-4.1H11c-0.3,0-0.5-0.2-0.5-0.5c0-0.3,0.2-0.5,0.5-0.5H15z M5.6,9.6c0.2-0.2,0.5-0.2,0.7,0
	c0.2,0.2,0.2,0.5,0,0.7l-4.1,4.1H5c0.3,0,0.5,0.2,0.5,0.5S5.3,15.5,5,15.5H1H0.5V15v-4c0-0.3,0.2-0.5,0.5-0.5c0.3,0,0.5,0.2,0.5,0.5
	v2.8L5.6,9.6z M1,0.5H0.5V1v4c0,0.3,0.2,0.5,0.5,0.5c0.3,0,0.5-0.2,0.5-0.5V2.2l4.1,4.1c0.2,0.2,0.5,0.2,0.7,0
	c0.2-0.2,0.2-0.5,0-0.7L2.2,1.5H5c0.3,0,0.5-0.2,0.5-0.5c0-0.3-0.2-0.5-0.5-0.5H1z M10.4,9.6c-0.2-0.2-0.5-0.2-0.7,0
	c-0.2,0.2-0.2,0.5,0,0.7l4.1,4.1H11c-0.3,0-0.5,0.2-0.5,0.5s0.2,0.5,0.5,0.5h4h0.5V15v-4c0-0.3-0.2-0.5-0.5-0.5s-0.5,0.2-0.5,0.5
	v2.8L10.4,9.6z"/>
</svg>
