<?xml version="1.0" encoding="utf-8"?>
<!-- 
  Copyright (c) 2022, WSO2 LLC. (http://www.wso2.com). All Rights Reserved.
 
 - This software is the property of WSO2 Inc. and its suppliers, if any.
 - Dissemination of any information or reproduction of any material contained
 - herein is strictly forbidden, unless permitted by WSO2 in accordance with
 - the WSO2 Commercial License available at http://wso2.com/licenses.
 - For specific language governing the permissions and limitations under
 - this license, please see the license as well as any agreement you’ve
 - entered into with WSO2 governing the purchase of this software and any
 - associated services.
 -->
 <svg version="1.1" id="Layer_1" x="0px" y="0px" viewBox="0 0 16 16">
<path d="M1.6,15c1.3,0,2.3-0.8,3-2.4c0.5-1.1,1.1-3.5,1.9-7.1h1.5l0.2-0.6H6.6l0.3-1.1C7.1,3,7.3,2.4,7.6,2c0.2-0.4,0.5-0.6,0.8-0.6
	c0.1,0,0.2,0,0.2,0.1c0,0.1,0.1,0.1,0.1,0.1c0,0,0,0.1-0.1,0.3C8.4,2.1,8.4,2.2,8.4,2.3c0,0.2,0.1,0.4,0.2,0.5C8.8,3,9,3.1,9.2,3.1
	c0.2,0,0.4-0.1,0.6-0.2C9.9,2.7,10,2.5,10,2.3c0-0.4-0.2-0.7-0.5-0.9C9.2,1.1,8.8,1,8.3,1C7.7,1,7.1,1.2,6.5,1.7
	C6,2.1,5.6,2.6,5.3,3.3C5,4,4.8,4.5,4.7,4.9H3.5L3.4,5.5h1.2L3.9,8.2c-0.7,3-1.1,4.8-1.3,5.4c-0.2,0.6-0.5,0.9-0.9,0.9
	c-0.1,0-0.1,0-0.2,0s-0.1-0.1-0.1-0.1c0,0,0-0.1,0.1-0.3c0.1-0.1,0.1-0.2,0.1-0.4c0-0.2-0.1-0.4-0.2-0.6C1.2,13,1,12.9,0.8,12.9
	c-0.2,0-0.4,0.1-0.6,0.2C0.1,13.3,0,13.5,0,13.8c0,0.3,0.1,0.6,0.4,0.9C0.7,14.9,1.1,15,1.6,15z M8.7,12c0.5,0,0.9-0.2,1.3-0.6
	c0.2-0.3,0.6-0.8,1.1-1.7l0.1-0.2c0,0.1,0.1,0.3,0.2,0.6c0.1,0.3,0.2,0.6,0.2,0.7c0.1,0.3,0.2,0.5,0.3,0.6c0.2,0.3,0.5,0.4,0.9,0.4
	c0.4,0,0.9-0.2,1.3-0.6c0.4-0.4,0.8-0.8,1.1-1.3l-0.3-0.2c-0.2,0.3-0.4,0.5-0.5,0.6c-0.2,0.2-0.4,0.3-0.5,0.3
	c-0.2,0-0.3-0.1-0.4-0.2c-0.1-0.1-0.2-0.3-0.3-0.6c-0.1-0.2-0.1-0.4-0.2-0.7c-0.1-0.2-0.1-0.6-0.2-1l-0.2-0.8c0.4-0.6,0.7-1,0.9-1.2
	c0.2-0.2,0.4-0.3,0.6-0.3c0.1,0,0.2,0.1,0.4,0.2c0.2,0.1,0.4,0.2,0.5,0.2c0.2,0,0.5-0.1,0.6-0.3C15.9,6,16,5.8,16,5.6
	c0-0.2,0-0.4-0.1-0.5c-0.2-0.3-0.4-0.4-0.9-0.4c-0.3,0-0.7,0.2-1.1,0.5c-0.4,0.3-0.9,0.9-1.5,1.6l-0.1-0.5c-0.1-0.3-0.1-0.6-0.2-0.9
	c-0.1-0.3-0.2-0.5-0.4-0.7c-0.2,0-0.6,0.1-1.1,0.2C10.1,4.9,9.6,5,9.1,5v0.4c0.1,0,0.2,0,0.3,0c0.1,0,0.2,0,0.2,0
	c0.3,0,0.4,0,0.5,0.1c0.2,0.1,0.3,0.5,0.4,0.9l0.1,0.6c0.1,0.3,0.1,0.6,0.2,0.9C10.9,8.4,11,8.6,11,8.8l-0.3,0.5
	c-0.3,0.5-0.6,0.9-0.7,1c-0.1,0.1-0.3,0.2-0.4,0.2c-0.1,0-0.2-0.1-0.5-0.2c-0.2-0.1-0.4-0.2-0.6-0.2c-0.3,0-0.5,0.1-0.6,0.3
	c-0.2,0.2-0.2,0.4-0.2,0.6c0,0.3,0.1,0.5,0.3,0.7C8.2,11.9,8.4,12,8.7,12z"/>
</svg>
