<?xml version="1.0" encoding="utf-8"?>
<!-- 
  Copyright (c) 2022, WSO2 LLC. (http://www.wso2.com). All Rights Reserved.
 
 - This software is the property of WSO2 Inc. and its suppliers, if any.
 - Dissemination of any information or reproduction of any material contained
 - herein is strictly forbidden, unless permitted by WSO2 in accordance with
 - the WSO2 Commercial License available at http://wso2.com/licenses.
 - For specific language governing the permissions and limitations under
 - this license, please see the license as well as any agreement you’ve
 - entered into with WSO2 governing the purchase of this software and any
 - associated services.
 -->
 <svg version="1.1" id="Layer_1" x="0px" y="0px" viewBox="0 0 16 16">
<path class="st0" d="M5.6,0.5c0.3,0,0.5,0.2,0.5,0.5c0,0.2-0.2,0.4-0.4,0.5l-0.1,0H3.8c-1.2,0-2.3,1-2.3,2.2l0,0.2v8.4
	c0,1.2,1,2.3,2.2,2.3l0.2,0h8.4c1.2,0,2.3-1,2.3-2.2l0-0.2v-1.8c0-0.3,0.2-0.5,0.5-0.5c0.2,0,0.4,0.2,0.5,0.4l0,0.1v1.8
	c0,1.8-1.4,3.2-3.1,3.3l-0.2,0H3.8c-1.8,0-3.2-1.4-3.3-3.1l0-0.2V3.8c0-1.8,1.4-3.2,3.1-3.3l0.2,0H5.6z M15,1.5v4
	C15,5.8,14.8,6,14.5,6c-0.2,0-0.4-0.2-0.5-0.4l0-0.1V2.7L7.4,9.4c-0.2,0.2-0.5,0.2-0.7,0C6.5,9.2,6.5,8.9,6.6,8.7l0.1-0.1L13.3,2
	h-2.8c-0.2,0-0.4-0.2-0.5-0.4l0-0.1c0-0.2,0.2-0.4,0.4-0.5l0.1,0h4c0,0,0,0,0,0H15V1.5C15,1.5,15,1.5,15,1.5z"/>
</svg>
