<?xml version="1.0" encoding="utf-8"?>
<!-- 
  Copyright (c) 2022, WSO2 LLC. (http://www.wso2.com). All Rights Reserved.
 
 - This software is the property of WSO2 Inc. and its suppliers, if any.
 - Dissemination of any information or reproduction of any material contained
 - herein is strictly forbidden, unless permitted by WSO2 in accordance with
 - the WSO2 Commercial License available at http://wso2.com/licenses.
 - For specific language governing the permissions and limitations under
 - this license, please see the license as well as any agreement you’ve
 - entered into with WSO2 governing the purchase of this software and any
 - associated services.
 -->
 <svg version="1.1" id="Layer_1" x="0px" y="0px" viewBox="0 0 16 16">
<path class="st0" d="M4.5,0.4c1.9,0,3.4,1.5,3.5,3.3l0,0.2V5h6.5C15.3,5,16,5.7,16,6.5v8c0,0.8-0.7,1.5-1.5,1.5h-9
	C4.7,16,4,15.3,4,14.5v-8C4,5.7,4.7,5,5.5,5H7V3.9c0-1.3-1-2.4-2.3-2.5l-0.2,0h-1c-1.3,0-2.4,1-2.5,2.3l0,0.2v1.6C1,5.8,0.8,6,0.5,6
	C0.3,6,0.1,5.8,0,5.6l0-0.1V3.9C0,2,1.5,0.5,3.3,0.4l0.2,0H4.5z M5.5,6h2h7C14.8,6,15,6.2,15,6.5v8c0,0.3-0.2,0.5-0.5,0.5h-9
	C5.2,15,5,14.8,5,14.5v-8C5,6.2,5.2,6,5.5,6z M12.9,8.1C12.7,8,12.3,8,12.2,8.2l-2.2,3L8.4,9.6L8.3,9.6C8.1,9.5,7.8,9.5,7.6,9.6
	c-0.2,0.2-0.2,0.5,0,0.7l2.4,2.4L13,8.8l0-0.1C13.1,8.5,13.1,8.3,12.9,8.1z"/>
</svg>
