<?xml version="1.0" encoding="utf-8"?>
<!-- 
  Copyright (c) 2022, WSO2 LLC. (http://www.wso2.com). All Rights Reserved.
 
 - This software is the property of WSO2 Inc. and its suppliers, if any.
 - Dissemination of any information or reproduction of any material contained
 - herein is strictly forbidden, unless permitted by WSO2 in accordance with
 - the WSO2 Commercial License available at http://wso2.com/licenses.
 - For specific language governing the permissions and limitations under
 - this license, please see the license as well as any agreement you’ve
 - entered into with WSO2 governing the purchase of this software and any
 - associated services.
 -->
 <svg version="1.1" id="Layer_1" x="0px" y="0px" viewBox="0 0 16 16">
<path class="st0" d="M7.3,11.3C6.6,11.7,5.8,12,5,12c-2.2,0-4-1.8-4-4c0-2.2,1.8-4,4-4c0.8,0,1.6,0.3,2.3,0.7C6.5,5.6,6,6.7,6,8
	S6.5,10.4,7.3,11.3z M8,12c-0.8,0.6-1.9,1-3,1c-2.8,0-5-2.2-5-5c0-2.8,2.2-5,5-5c1.1,0,2.2,0.4,3,1c0.8-0.6,1.9-1,3-1
	c2.8,0,5,2.2,5,5c0,2.8-2.2,5-5,5C9.9,13,8.8,12.6,8,12z M8.7,4.7C9.4,4.3,10.2,4,11,4c2.2,0,4,1.8,4,4c0,2.2-1.8,4-4,4
	c-0.8,0-1.6-0.3-2.3-0.7C9.5,10.4,10,9.3,10,8S9.5,5.6,8.7,4.7z M8,5.4C8.6,6.1,9,7,9,8s-0.4,1.9-1,2.6C7.4,9.9,7,9,7,8
	S7.4,6.1,8,5.4z"/>
</svg>
