<?xml version="1.0" encoding="utf-8"?>
<!-- 
  Copyright (c) 2022, WSO2 LLC. (http://www.wso2.com). All Rights Reserved.
 
 - This software is the property of WSO2 Inc. and its suppliers, if any.
 - Dissemination of any information or reproduction of any material contained
 - herein is strictly forbidden, unless permitted by WSO2 in accordance with
 - the WSO2 Commercial License available at http://wso2.com/licenses.
 - For specific language governing the permissions and limitations under
 - this license, please see the license as well as any agreement you’ve
 - entered into with WSO2 governing the purchase of this software and any
 - associated services.
 -->
 <svg version="1.1" id="Layer_1" x="0px" y="0px" viewBox="0 0 16 16">
<path d="M13.1,0C14.7,0,16,1.3,16,2.9v10.3c0,1.6-1.3,2.9-2.9,2.9H2.9C1.3,16,0,14.7,0,13.1V2.9C0,1.3,1.3,0,2.9,0H13.1z M13.1,1.1
	H2.9c-0.9,0-1.7,0.8-1.7,1.7v10.3c0,0.9,0.8,1.7,1.7,1.7h10.3c0.9,0,1.7-0.8,1.7-1.7V2.9C14.9,1.9,14.1,1.1,13.1,1.1z M12.6,2.3
	c0.6,0,1.1,0.5,1.1,1.1v2.3c0,0.6-0.5,1.1-1.1,1.1H3.4c-0.6,0-1.1-0.5-1.1-1.1V3.4c0-0.6,0.5-1.1,1.1-1.1H12.6z M12.6,3.4H3.4v2.3
	h9.1V3.4z"/>
</svg>
