<?xml version="1.0" encoding="utf-8"?>
<!-- 
  Copyright (c) 2022, WSO2 LLC. (http://www.wso2.com). All Rights Reserved.
 
 - This software is the property of WSO2 Inc. and its suppliers, if any.
 - Dissemination of any information or reproduction of any material contained
 - herein is strictly forbidden, unless permitted by WSO2 in accordance with
 - the WSO2 Commercial License available at http://wso2.com/licenses.
 - For specific language governing the permissions and limitations under
 - this license, please see the license as well as any agreement you’ve
 - entered into with WSO2 governing the purchase of this software and any
 - associated services.
 -->
 <svg version="1.1" id="Layer_1" x="0px" y="0px" viewBox="0 0 16 16">
<path class="st0" d="M1.1,1.1C1.3,1,1.6,1,1.8,1.1l0.1,0.1l2.1,2.1L4.7,4l1.6,1.6L7,6.3L9.7,9l0.7,0.7l1.7,1.7l0.7,0.7l2,2
	c0.2,0.2,0.2,0.5,0,0.7c-0.2,0.2-0.4,0.2-0.6,0.1l-0.1-0.1l-2.1-2.1l0,0c-0.3,0.2-0.6,0.4-0.9,0.5h0C10.1,13.8,9.1,14,8,14
	c-1.9,0-3.7-0.5-5.5-2.4c-0.6-0.6-1.2-1.4-1.8-2.4c0,0,0,0,0,0L0.5,8.8v0L0,8v0l0.5-0.8v0c0.9-1.5,1.8-2.6,2.7-3.4l-2-2
	C1,1.7,1,1.3,1.1,1.1z M3.8,4.6C3.6,4.8,3.4,5,3.1,5.2l0,0C2.5,5.9,1.9,6.7,1.2,7.8L1.1,8v0l0.3,0.5C1.5,8.7,1.6,8.9,1.7,9
	c0.5,0.7,0.9,1.3,1.4,1.8c1.6,1.7,3.3,2.1,4.9,2.1c1.1,0,2.2-0.2,3.3-0.9l-1.6-1.6h0c-0.3,0.2-0.6,0.4-1,0.5l0,0C8.5,11,8.3,11,8,11
	c-0.9,0-1.7-0.4-2.3-1C5.3,9.4,5,8.8,5,8c0-0.3,0-0.5,0.1-0.8c0.1-0.3,0.2-0.7,0.5-1L3.8,4.6L3.8,4.6z M6.3,7C6.1,7.3,6,7.6,6,8
	c0,0,0,0.1,0,0.1c0,0.1,0,0.2,0.1,0.4C6.3,9.4,7.1,10,8,10c0.4,0,0.7-0.1,1-0.3L6.3,7L6.3,7z M13.6,11.5l-0.7-0.7
	c0.6-0.7,1.3-1.5,1.9-2.6L14.9,8l-0.3-0.5c-2.1-3.5-4.2-4.3-6.4-4.4L8,3.1c-0.8,0-1.6,0.1-2.4,0.4L4.8,2.7C5.9,2.2,6.9,2,8,2
	c2.5,0,5,0.9,7.3,4.8L16,8l-0.5,0.8C14.9,9.9,14.3,10.8,13.6,11.5z M7.2,5.1C7.5,5,7.7,5,8,5c1.7,0,3,1.3,3,3c0,0.3,0,0.5-0.1,0.8
	L7.2,5.1z"/>
</svg>
