<?xml version="1.0" encoding="utf-8"?>
<!-- 
  Copyright (c) 2022, WSO2 LLC. (http://www.wso2.com). All Rights Reserved.
 
 - This software is the property of WSO2 Inc. and its suppliers, if any.
 - Dissemination of any information or reproduction of any material contained
 - herein is strictly forbidden, unless permitted by WSO2 in accordance with
 - the WSO2 Commercial License available at http://wso2.com/licenses.
 - For specific language governing the permissions and limitations under
 - this license, please see the license as well as any agreement you’ve
 - entered into with WSO2 governing the purchase of this software and any
 - associated services.
 -->
 <svg version="1.1" id="Layer_1" x="0px" y="0px" viewBox="0 0 16 16">
<path d="M9,0.1L17.7,5c0.3,0.2,0.4,0.7,0.2,1c-0.2,0.3-0.6,0.4-0.9,0.3l-0.1-0.1l-0.6-0.3l0,9.3c0,1.5-1.1,2.7-2.6,2.7l-0.2,0h-9
	c-1.5,0-2.7-1.1-2.7-2.6l0-0.2l0-9.3L1.2,6.2c-0.3,0.2-0.7,0.2-1-0.1L0.1,6c-0.2-0.3-0.2-0.7,0.1-1L0.3,5L9,0.1z M9,1.9L3.2,5.1
	l0,10.2c0,0.6,0.5,1.2,1.1,1.2l0.1,0h9c0.6,0,1.2-0.5,1.2-1.1l0-0.1l0-10.2L9,1.9z M11.9,7.3c0.3,0.3,0.3,0.8,0,1.1
	c-0.3,0.3-0.8,0.3-1.1,0c-0.9-0.9-2.3-0.9-3.2,0c-0.9,0.9-0.9,2.3,0,3.2c0.9,0.9,2.3,0.9,3.2,0c0.3-0.3,0.8-0.3,1.1,0
	c0.3,0.3,0.3,0.8,0,1.1c-1.5,1.5-3.8,1.5-5.3,0c-1.5-1.5-1.5-3.8,0-5.3C8,5.9,10.4,5.9,11.9,7.3z"/>
</svg>
