<?xml version="1.0" encoding="utf-8"?>
<!-- 
  Copyright (c) 2022, WSO2 LLC. (http://www.wso2.com). All Rights Reserved.
 
 - This software is the property of WSO2 Inc. and its suppliers, if any.
 - Dissemination of any information or reproduction of any material contained
 - herein is strictly forbidden, unless permitted by WSO2 in accordance with
 - the WSO2 Commercial License available at http://wso2.com/licenses.
 - For specific language governing the permissions and limitations under
 - this license, please see the license as well as any agreement you’ve
 - entered into with WSO2 governing the purchase of this software and any
 - associated services.
 -->
 <svg version="1.1" id="Layer_1" x="0px" y="0px" viewBox="0 0 16 16">
<path d="M10.5,2.5c-0.3-0.3-0.8-0.3-1.1,0c-0.3,0.3-0.3,0.7-0.1,1l0.1,0.1L13.9,8l-4.5,4.5c-0.3,0.3-0.3,0.7-0.1,1l0.1,0.1
	c0.3,0.3,0.7,0.3,1,0.1l0.1-0.1L16,8L10.5,2.5z M5.3,2.6c0.2-0.2,0.5-0.2,0.7,0c0.2,0.2,0.2,0.4,0.1,0.6L6.1,3.4L1.4,8L6,12.6
	c0.2,0.2,0.2,0.4,0.1,0.6L6,13.3c-0.2,0.2-0.4,0.2-0.6,0.1l-0.1-0.1L0,8L5.3,2.6z"/>
</svg>
