<?xml version="1.0" encoding="utf-8"?>
<!-- 
  Copyright (c) 2022, WSO2 LLC. (http://www.wso2.com). All Rights Reserved.
 
 - This software is the property of WSO2 Inc. and its suppliers, if any.
 - Dissemination of any information or reproduction of any material contained
 - herein is strictly forbidden, unless permitted by WSO2 in accordance with
 - the WSO2 Commercial License available at http://wso2.com/licenses.
 - For specific language governing the permissions and limitations under
 - this license, please see the license as well as any agreement you’ve
 - entered into with WSO2 governing the purchase of this software and any
 - associated services.
 -->
 <svg version="1.1" id="Layer_1" x="0px" y="0px" viewBox="0 0 16 16">
<path class="st0" d="M0.5,2c0-0.8,0.7-1.5,1.5-1.5h4.4c0.6,0,1.1,0.3,1.3,0.8l1.6,3.2H14c0.8,0,1.5,0.7,1.5,1.5v8
	c0,0.8-0.7,1.5-1.5,1.5H2c-0.8,0-1.5-0.7-1.5-1.5v-4c0-0.3,0.2-0.5,0.5-0.5h6.8L6.1,7.9C6,7.7,6,7.3,6.1,7.1C6.3,7,6.7,7,6.9,7.1
	l2.5,2.5L9.7,10l-0.4,0.4l-2.5,2.5c-0.2,0.2-0.5,0.2-0.7,0c-0.2-0.2-0.2-0.5,0-0.7l1.6-1.6H1.5V14c0,0.3,0.2,0.5,0.5,0.5h12
	c0.3,0,0.5-0.2,0.5-0.5V6c0-0.3-0.2-0.5-0.5-0.5H9.8H9H1H0.5V5V2z M6.8,1.8l1.4,2.7H1.5V2c0-0.3,0.2-0.5,0.5-0.5h4.4
	C6.6,1.5,6.7,1.6,6.8,1.8z"/>
</svg>
