<?xml version="1.0" encoding="utf-8"?>
<!-- 
  Copyright (c) 2022, WSO2 LLC. (http://www.wso2.com). All Rights Reserved.
 
 - This software is the property of WSO2 Inc. and its suppliers, if any.
 - Dissemination of any information or reproduction of any material contained
 - herein is strictly forbidden, unless permitted by WSO2 in accordance with
 - the WSO2 Commercial License available at http://wso2.com/licenses.
 - For specific language governing the permissions and limitations under
 - this license, please see the license as well as any agreement you’ve
 - entered into with WSO2 governing the purchase of this software and any
 - associated services.
 -->
 <svg version="1.1" id="Layer_1" x="0px" y="0px" viewBox="0 0 16 16">
<path class="st0" d="M0,8c0-4.4,3.6-8,8-8c4.4,0,8,3.6,8,8c0,4.4-3.6,8-8,8C3.6,16,0,12.4,0,8z M15,8c0-3.9-3.1-7-7-7
	C4.1,1,1,4.1,1,8c0,3.9,3.1,7,7,7C11.9,15,15,11.9,15,8z M8,3c0.6,0,1,0.4,1,1S8.6,5,8,5C7.4,5,7,4.6,7,4S7.4,3,8,3z M8.7,7.2
	C8.7,6.8,8.4,6.5,8,6.5c-0.4,0-0.8,0.3-0.8,0.8v5l0,0.1C7.3,12.7,7.6,13,8,13c0.4,0,0.8-0.3,0.8-0.8v-5L8.7,7.2z"/>
</svg>
