<?xml version="1.0" encoding="utf-8"?>
<!-- 
  Copyright (c) 2022, WSO2 LLC. (http://www.wso2.com). All Rights Reserved.
 
 - This software is the property of WSO2 Inc. and its suppliers, if any.
 - Dissemination of any information or reproduction of any material contained
 - herein is strictly forbidden, unless permitted by WSO2 in accordance with
 - the WSO2 Commercial License available at http://wso2.com/licenses.
 - For specific language governing the permissions and limitations under
 - this license, please see the license as well as any agreement you’ve
 - entered into with WSO2 governing the purchase of this software and any
 - associated services.
 -->
 <svg version="1.1" id="Layer_1" x="0px" y="0px" viewBox="0 0 16 16">
<path d="M9,0c0.4,0,0.7,0.3,0.7,0.7c0,0.4-0.3,0.7-0.7,0.7C4.8,1.4,1.4,4.8,1.4,9c0,4.2,3.4,7.6,7.6,7.6c4.2,0,7.6-3.4,7.6-7.6
	c0-0.4,0.3-0.7,0.7-0.7C17.7,8.3,18,8.6,18,9c0,5-4,9-9,9c-5,0-9-4-9-9C0,4,4,0,9,0z M9,3.7c0.4,0,0.7,0,1.1,0.1l0,1.7L7.8,7.8
	L7.7,7.9L7.6,8.1c-0.4,0.7-0.4,1.5,0.1,2l0.1,0.1l0.1,0.1l0.1,0.1c0.6,0.4,1.4,0.4,2-0.1l0.1-0.1l2.3-2.3l1.7,0
	c0.1,0.3,0.1,0.7,0.1,1.1c0,2.9-2.4,5.3-5.3,5.3c-2.9,0-5.3-2.4-5.3-5.3C3.7,6.1,6.1,3.7,9,3.7z M14.4,0.1c0.4,0,0.7,0.3,0.8,0.7
	l0,0.1l0,1.9h1.9c0.1,0,0.3,0,0.4,0.1l0.1,0.1L17.6,3c0.3,0.3,0.3,0.7,0.1,1l-0.1,0.1l-2.8,2.8l-2.8,0L9.5,9.5c-0.3,0.3-0.7,0.3-1,0
	C8.3,9.2,8.2,8.9,8.4,8.6l0.1-0.1l2.6-2.6l0-2.8l2.8-2.8C14,0.2,14.2,0.1,14.4,0.1z"/>
</svg>
