<?xml version="1.0" encoding="utf-8"?>
<!-- 
  Copyright (c) 2022, WSO2 LLC. (http://www.wso2.com). All Rights Reserved.
 
 - This software is the property of WSO2 Inc. and its suppliers, if any.
 - Dissemination of any information or reproduction of any material contained
 - herein is strictly forbidden, unless permitted by WSO2 in accordance with
 - the WSO2 Commercial License available at http://wso2.com/licenses.
 - For specific language governing the permissions and limitations under
 - this license, please see the license as well as any agreement you’ve
 - entered into with WSO2 governing the purchase of this software and any
 - associated services.
 -->
 <svg version="1.1" id="Layer_1" x="0px" y="0px" viewBox="0 0 16 16">
<path d="M6.3,0.5c1.1-0.6,2.4-0.6,3.5,0l4.1,2.3c1.1,0.6,1.7,1.7,1.7,3v4.6c0,1.2-0.7,2.3-1.7,3l-4.1,2.3c-1.1,0.6-2.4,0.6-3.5,0
	l-4.1-2.3c-1.1-0.6-1.7-1.7-1.7-3V5.7c0-1.2,0.7-2.3,1.7-3L6.3,0.5z M8.7,1.5l0,7.4L11.2,7c0.3-0.2,0.6-0.2,0.9,0.1l0.1,0.1
	C12.3,7.4,12.3,7.8,12,8L12,8.1l-4,3l-4-3C3.7,7.9,3.7,7.5,3.9,7.2C4.1,6.9,4.5,6.8,4.8,7L4.8,7l2.5,1.9l0-7.4
	c-0.1,0-0.2,0.1-0.2,0.1L7,1.6L2.9,3.9c-0.6,0.4-1,1-1,1.8v4.6c0,0.7,0.4,1.4,1,1.8L7,14.4c0.6,0.4,1.4,0.4,2.1,0l4.1-2.3
	c0.6-0.4,1-1,1-1.8V5.7c0-0.7-0.4-1.4-1-1.8L9,1.6C8.9,1.6,8.8,1.5,8.7,1.5z"/>
</svg>
