<?xml version="1.0" encoding="utf-8"?>
<!-- 
  Copyright (c) 2022, WSO2 LLC. (http://www.wso2.com). All Rights Reserved.
 
 - This software is the property of WSO2 Inc. and its suppliers, if any.
 - Dissemination of any information or reproduction of any material contained
 - herein is strictly forbidden, unless permitted by WSO2 in accordance with
 - the WSO2 Commercial License available at http://wso2.com/licenses.
 - For specific language governing the permissions and limitations under
 - this license, please see the license as well as any agreement you’ve
 - entered into with WSO2 governing the purchase of this software and any
 - associated services.
 -->
 <svg version="1.1" id="Layer_1" x="0px" y="0px" viewBox="0 0 16 16">
<path d="M8.3,0.1l0,9.9L5.4,7.9L5.4,7.8C5,7.7,4.6,7.7,4.4,8.1C4.2,8.4,4.2,8.9,4.6,9.1L9,12.4l4.4-3.3L13.5,9
	c0.3-0.3,0.3-0.7,0.1-1L13.5,8c-0.3-0.3-0.7-0.3-1-0.1L9.7,10l0-9.9c0.4,0.1,0.8,0.2,1.2,0.4l4.6,2.6c1.2,0.7,2,2,2,3.3v5.2
	c0,1.4-0.7,2.6-2,3.3L11,17.5c-1.2,0.7-2.7,0.7-3.9,0l-4.6-2.6c-1.2-0.7-2-2-2-3.3V6.4c0-1.4,0.7-2.6,2-3.3L7,0.5
	C7.4,0.3,7.8,0.2,8.3,0.1z"/>
</svg>
