<?xml version="1.0" encoding="utf-8"?>
<!-- 
  Copyright (c) 2022, WSO2 LLC. (http://www.wso2.com). All Rights Reserved.
 
 - This software is the property of WSO2 Inc. and its suppliers, if any.
 - Dissemination of any information or reproduction of any material contained
 - herein is strictly forbidden, unless permitted by WSO2 in accordance with
 - the WSO2 Commercial License available at http://wso2.com/licenses.
 - For specific language governing the permissions and limitations under
 - this license, please see the license as well as any agreement you’ve
 - entered into with WSO2 governing the purchase of this software and any
 - associated services.
 -->
 <svg version="1.1" id="Layer_1" x="0px" y="0px" viewBox="0 0 16 16">
<path d="M12,0.2c1,0,1.8,0.8,1.8,1.8v12c0,1-0.8,1.8-1.8,1.8H4c-1,0-1.8-0.8-1.8-1.8V2C2.2,1,3,0.2,4,0.2H12z M12,1.8H4
	C3.9,1.8,3.8,1.9,3.8,2v1.5H6c0.3,0,0.5,0.2,0.5,0.5c0,0.2-0.2,0.4-0.4,0.5L6,4.5H3.8v2H5c0.3,0,0.5,0.2,0.5,0.5
	c0,0.2-0.2,0.4-0.4,0.5L5,7.5H3.8v2H6c0.3,0,0.5,0.2,0.5,0.5c0,0.2-0.2,0.4-0.4,0.5l-0.1,0H3.8v2H5c0.3,0,0.5,0.2,0.5,0.5
	c0,0.2-0.2,0.4-0.4,0.5l-0.1,0H3.8V14c0,0.1,0.1,0.2,0.2,0.2l0.1,0h8c0.1,0,0.2-0.1,0.2-0.2V2C12.2,1.9,12.1,1.8,12,1.8z"/>
</svg>
