<?xml version="1.0" encoding="utf-8"?>
<!-- 
  Copyright (c) 2022, WSO2 LLC. (http://www.wso2.com). All Rights Reserved.
 
 - This software is the property of WSO2 Inc. and its suppliers, if any.
 - Dissemination of any information or reproduction of any material contained
 - herein is strictly forbidden, unless permitted by WSO2 in accordance with
 - the WSO2 Commercial License available at http://wso2.com/licenses.
 - For specific language governing the permissions and limitations under
 - this license, please see the license as well as any agreement you’ve
 - entered into with WSO2 governing the purchase of this software and any
 - associated services.
 -->
 <svg version="1.1" id="Layer_1" x="0px" y="0px" viewBox="0 0 16 16">
<path class="st0" d="M6,2.4c0.6,1.1,0.2,2.6-0.9,3.2C3.9,6.2,2.5,5.8,1.9,4.6C1.2,3.5,1.6,2.1,2.8,1.4C3.9,0.8,5.4,1.2,6,2.4z
	 M6.1,6.2c1.3-1,1.7-2.9,0.9-4.4C6,0.1,3.9-0.5,2.2,0.4C0.5,1.4-0.1,3.5,0.9,5.2c0.8,1.5,2.7,2.2,4.2,1.6l2.8,5.1l2,3.6l0.3,0.5
	l0.5-0.3l4.6-2.5c0.3-0.2,0.4-0.5,0.2-0.8c-0.2-0.3-0.5-0.4-0.8-0.2l-4.1,2.3l-1.4-2.6l2.6-1.4c0.3-0.2,0.4-0.5,0.2-0.8
	c-0.2-0.3-0.5-0.4-0.8-0.2l-2.6,1.4L6.1,6.2z"/>
</svg>
