<?xml version="1.0" encoding="utf-8"?>
<!-- 
  Copyright (c) 2022, WSO2 LLC. (http://www.wso2.com). All Rights Reserved.
 
 - This software is the property of WSO2 Inc. and its suppliers, if any.
 - Dissemination of any information or reproduction of any material contained
 - herein is strictly forbidden, unless permitted by WSO2 in accordance with
 - the WSO2 Commercial License available at http://wso2.com/licenses.
 - For specific language governing the permissions and limitations under
 - this license, please see the license as well as any agreement you’ve
 - entered into with WSO2 governing the purchase of this software and any
 - associated services.
 -->
 <svg version="1.1" id="Layer_1" x="0px" y="0px" viewBox="0 0 16 16">
<path class="st0" d="M3.1,0C1.6,0,0.4,1.2,0.4,2.7v10.7c0,1.5,1.2,2.7,2.7,2.7h9.6c1.5,0,2.7-1.2,2.7-2.7c0-0.3-0.2-0.5-0.5-0.5
	s-0.5,0.2-0.5,0.5c0,0.9-0.7,1.6-1.6,1.6H3.1c-0.9,0-1.6-0.7-1.6-1.6V2.7c0-0.9,0.7-1.6,1.6-1.6h9.6c0.9,0,1.6,0.7,1.6,1.6
	c0,0.3,0.2,0.5,0.5,0.5s0.5-0.2,0.5-0.5c0-1.5-1.2-2.7-2.7-2.7H3.1z M15.2,7.6l-2.1-2.1c-0.2-0.2-0.5-0.2-0.8,0
	c-0.2,0.2-0.2,0.5,0,0.8l1.2,1.2H6.3C6,7.5,5.8,7.7,5.8,8c0,0.3,0.2,0.5,0.5,0.5h7.2l-1.2,1.2c-0.2,0.2-0.2,0.5,0,0.8
	c0.2,0.2,0.5,0.2,0.8,0l2.1-2.1L15.6,8L15.2,7.6z"/>
</svg>
