<?xml version="1.0" encoding="utf-8"?>
<!-- 
  Copyright (c) 2022, WSO2 LLC. (http://www.wso2.com). All Rights Reserved.
 
 - This software is the property of WSO2 Inc. and its suppliers, if any.
 - Dissemination of any information or reproduction of any material contained
 - herein is strictly forbidden, unless permitted by WSO2 in accordance with
 - the WSO2 Commercial License available at http://wso2.com/licenses.
 - For specific language governing the permissions and limitations under
 - this license, please see the license as well as any agreement you’ve
 - entered into with WSO2 governing the purchase of this software and any
 - associated services.
 -->
 <svg version="1.1" id="Layer_1" x="0px" y="0px" viewBox="0 0 16 16">
<path class="st0" d="M7.5,0h1C9.3,0,10,0.7,10,1.5V16H6V1.5C6,0.7,6.7,0,7.5,0z M8.6,1L8.6,1L7.5,1C7.2,1,7,1.2,7,1.5V15h2V1.5
	C9,1.3,8.8,1.1,8.6,1z M1.5,8h1C3.3,8,4,8.7,4,9.5V16H0V9.5C0,8.7,0.7,8,1.5,8z M2.6,9L2.6,9L1.5,9C1.2,9,1,9.2,1,9.5V15h2V9.5
	C3,9.3,2.8,9.1,2.6,9z M14.5,3h-1C12.7,3,12,3.7,12,4.5V16h4V4.5C16,3.7,15.3,3,14.5,3z M14.5,4L14.5,4C14.8,4.1,15,4.3,15,4.5V15
	h-2V4.5C13,4.2,13.2,4,13.5,4H14.5z"/>
</svg>
