<?xml version="1.0" encoding="utf-8"?>
<!-- 
  Copyright (c) 2022, WSO2 LLC. (http://www.wso2.com). All Rights Reserved.
 
 - This software is the property of WSO2 Inc. and its suppliers, if any.
 - Dissemination of any information or reproduction of any material contained
 - herein is strictly forbidden, unless permitted by WSO2 in accordance with
 - the WSO2 Commercial License available at http://wso2.com/licenses.
 - For specific language governing the permissions and limitations under
 - this license, please see the license as well as any agreement you’ve
 - entered into with WSO2 governing the purchase of this software and any
 - associated services.
 -->
 <svg version="1.1" id="Layer_1" x="0px" y="0px" viewBox="0 0 16 16">
<path class="st0" d="M3.3,6.2C3.5,6,3.8,6,4,6.2c0.2,0.2,0.2,0.5,0.1,0.7L4,6.9L2.6,8.4c-1.4,1.4-1.4,3.7,0,5.1
	c1.4,1.4,3.5,1.4,4.9,0.1l0.1-0.1L9.1,12c0.2-0.2,0.5-0.2,0.7,0c0.2,0.2,0.2,0.5,0.1,0.7l-0.1,0.1l-1.4,1.4c-1.8,1.8-4.7,1.8-6.5,0
	c-1.7-1.7-1.8-4.5-0.1-6.4l0.1-0.2L3.3,6.2z M7.6,1.8c1.8-1.8,4.7-1.8,6.5,0c1.7,1.7,1.8,4.5,0.1,6.4l-0.1,0.2l-1.4,1.4
	c-0.2,0.2-0.5,0.2-0.7,0c-0.2-0.2-0.2-0.5-0.1-0.7L12,9.1l1.4-1.4c1.4-1.4,1.4-3.7,0-5.1c-1.4-1.4-3.5-1.4-4.9-0.1L8.4,2.6L6.9,4
	C6.7,4.2,6.4,4.2,6.2,4C6,3.8,6,3.6,6.1,3.4l0.1-0.1L7.6,1.8z M11.4,4.6c-0.2-0.2-0.5-0.2-0.7,0l-6.1,6.1l-0.1,0.1
	c-0.1,0.2-0.1,0.5,0.1,0.7c0.2,0.2,0.5,0.2,0.7,0l6.1-6.1l0.1-0.1C11.6,5,11.6,4.7,11.4,4.6z"/>
</svg>
