<?xml version="1.0" encoding="utf-8"?>
<!-- 
  Copyright (c) 2022, WSO2 LLC. (http://www.wso2.com). All Rights Reserved.
 
 - This software is the property of WSO2 Inc. and its suppliers, if any.
 - Dissemination of any information or reproduction of any material contained
 - herein is strictly forbidden, unless permitted by WSO2 in accordance with
 - the WSO2 Commercial License available at http://wso2.com/licenses.
 - For specific language governing the permissions and limitations under
 - this license, please see the license as well as any agreement you’ve
 - entered into with WSO2 governing the purchase of this software and any
 - associated services.
 -->
 <svg version="1.1" id="Layer_1" x="0px" y="0px" viewBox="0 0 16 16">
<path class="st0" d="M8,4.9c0.3,0,0.5-0.2,0.5-0.5V0.6C8.5,0.3,8.3,0,8,0C7.7,0,7.5,0.3,7.5,0.6v3.8C7.5,4.6,7.7,4.9,8,4.9z
	 M4.3,7.5c0.3,0,0.5,0.2,0.5,0.5c0,0.3-0.2,0.5-0.5,0.5H0.6C0.3,8.5,0,8.3,0,8c0-0.3,0.2-0.5,0.5-0.5H4.3z M11.7,8.5
	c-0.3,0-0.5-0.2-0.5-0.5c0-0.3,0.2-0.5,0.5-0.5h3.8C15.7,7.5,16,7.7,16,8c0,0.3-0.2,0.5-0.5,0.5H11.7z M8.5,15.4
	C8.5,15.7,8.3,16,8,16c-0.3,0-0.5-0.2-0.5-0.5v-3.8c0-0.3,0.2-0.5,0.5-0.5c0.3,0,0.5,0.2,0.5,0.5V15.4z M5,10.2l-2.7,2.7
	c-0.2,0.2-0.2,0.6,0,0.8c0.1,0.1,0.2,0.2,0.4,0.2c0.1,0,0.3-0.1,0.4-0.2L5.8,11c0.2-0.2,0.2-0.6,0-0.8C5.6,10,5.2,10,5,10.2z
	 M11,5.8c-0.1,0.1-0.2,0.2-0.4,0.2s-0.3-0.1-0.4-0.2C10,5.6,10,5.2,10.2,5l2.7-2.7c0.2-0.2,0.6-0.2,0.8,0c0.2,0.2,0.2,0.6,0,0.8
	L11,5.8z M5,5.8c0.1,0.1,0.2,0.2,0.4,0.2c0.1,0,0.3-0.1,0.4-0.2C6,5.6,6,5.2,5.8,5L3.1,2.4c-0.2-0.2-0.6-0.2-0.8,0
	c-0.2,0.2-0.2,0.6,0,0.8L5,5.8z M13.3,13.8c-0.1,0-0.3-0.1-0.4-0.2L10.2,11c-0.2-0.2-0.2-0.6,0-0.8c0.2-0.2,0.6-0.2,0.8,0l2.7,2.7
	c0.2,0.2,0.2,0.6,0,0.8C13.5,13.8,13.4,13.8,13.3,13.8z"/>
</svg>
