<?xml version="1.0" encoding="utf-8"?>
<!-- 
  Copyright (c) 2022, WSO2 LLC. (http://www.wso2.com). All Rights Reserved.
 
 - This software is the property of WSO2 Inc. and its suppliers, if any.
 - Dissemination of any information or reproduction of any material contained
 - herein is strictly forbidden, unless permitted by WSO2 in accordance with
 - the WSO2 Commercial License available at http://wso2.com/licenses.
 - For specific language governing the permissions and limitations under
 - this license, please see the license as well as any agreement you’ve
 - entered into with WSO2 governing the purchase of this software and any
 - associated services.
 -->
 <svg version="1.1" id="Layer_1" x="0px" y="0px" viewBox="0 0 16 16">
<path class="st0" d="M8,0c1.9,0,3.4,1.5,3.5,3.3l0,0.2V6H13c1.1,0,2,0.9,2,2v6c0,1.1-0.9,2-2,2H3c-1.1,0-2-0.9-2-2V8
	c0-1.1,0.9-2,2-2h1.5V3.5C4.5,1.6,6.1,0,8,0z M10.5,3.5V6h-5V3.5C5.5,2.1,6.6,1,8,1S10.5,2.1,10.5,3.5z M8,12c0.6,0,1-0.4,1-1
	s-0.4-1-1-1s-1,0.4-1,1S7.4,12,8,12z"/>
</svg>
