<?xml version="1.0" encoding="utf-8"?>
<!-- 
  Copyright (c) 2022, WSO2 LLC. (http://www.wso2.com). All Rights Reserved.
 
 - This software is the property of WSO2 Inc. and its suppliers, if any.
 - Dissemination of any information or reproduction of any material contained
 - herein is strictly forbidden, unless permitted by WSO2 in accordance with
 - the WSO2 Commercial License available at http://wso2.com/licenses.
 - For specific language governing the permissions and limitations under
 - this license, please see the license as well as any agreement you’ve
 - entered into with WSO2 governing the purchase of this software and any
 - associated services.
 -->
 <svg version="1.1" id="Layer_1" x="0px" y="0px" viewBox="0 0 16 16">
<path d="M7.7,9c-1.1,0-2,0.9-2,2s0.9,2,2,2c1.1,0,2-0.9,2-2S8.8,9,7.7,9z M7.7,12c-0.5,0-1-0.5-1-1s0.5-1,1-1s1,0.5,1,1
	S8.2,12,7.7,12z M13,6h-1.5V3.5c0-0.1,0-0.1,0-0.2C11.4,1.5,9.9,0,8,0C6.5,0,4.5,1.2,4.5,3.5V6H3C2,6.1,1.1,6.7,1,8v6
	c0,0.6,0.6,2.1,2,2h10c1.2-0.1,2-0.8,2-2V8C15,6.5,13.6,6,13,6z M5.5,3.5C5.5,2.1,6.6,1,8,1c1.7,0,2.5,1.4,2.5,2.5V6h-5V3.5z M13,15
	H3c-0.5,0-1-0.5-1-1V8c0-0.5,0.5-1,1-1h10c0.6,0,1,0.5,1,1v6C14,14.5,13.6,15,13,15z"/>
</svg>
