<?xml version="1.0" encoding="utf-8"?>
<!-- 
  Copyright (c) 2022, WSO2 LLC. (http://www.wso2.com). All Rights Reserved.
 
 - This software is the property of WSO2 Inc. and its suppliers, if any.
 - Dissemination of any information or reproduction of any material contained
 - herein is strictly forbidden, unless permitted by WSO2 in accordance with
 - the WSO2 Commercial License available at http://wso2.com/licenses.
 - For specific language governing the permissions and limitations under
 - this license, please see the license as well as any agreement you’ve
 - entered into with WSO2 governing the purchase of this software and any
 - associated services.
 -->
 <svg version="1.1" id="Layer_1" x="0px" y="0px" viewBox="0 0 16 16">
<path class="st0" d="M13.7,1.1H2.3c-0.6,0-1.1,0.5-1.1,1.1v11.4c0,0.6,0.5,1.1,1.1,1.1h11.4c0.6,0,1.1-0.5,1.1-1.1V2.3
	C14.9,1.7,14.3,1.1,13.7,1.1z M2.3,0C1,0,0,1,0,2.3v11.4C0,15,1,16,2.3,16h11.4c1.3,0,2.3-1,2.3-2.3V2.3C16,1,15,0,13.7,0H2.3z
	 M3.4,4c0-0.3,0.3-0.6,0.6-0.6S4.6,3.7,4.6,4S4.3,4.6,4,4.6S3.4,4.3,3.4,4z M4,6.9c-0.3,0-0.6,0.3-0.6,0.6C3.4,7.7,3.7,8,4,8
	s0.6-0.3,0.6-0.6C4.6,7.1,4.3,6.9,4,6.9z M3.4,10.9c0-0.3,0.3-0.6,0.6-0.6s0.6,0.3,0.6,0.6c0,0.3-0.3,0.6-0.6,0.6S3.4,11.2,3.4,10.9
	z M7.4,3.4C7.1,3.4,6.9,3.7,6.9,4s0.3,0.6,0.6,0.6H12c0.3,0,0.6-0.3,0.6-0.6S12.3,3.4,12,3.4H7.4z M6.9,7.4c0-0.3,0.3-0.6,0.6-0.6
	H12c0.3,0,0.6,0.3,0.6,0.6C12.6,7.7,12.3,8,12,8H7.4C7.1,8,6.9,7.7,6.9,7.4z M7.4,10.3c-0.3,0-0.6,0.3-0.6,0.6
	c0,0.3,0.3,0.6,0.6,0.6H12c0.3,0,0.6-0.3,0.6-0.6c0-0.3-0.3-0.6-0.6-0.6H7.4z"/>
</svg>
