<?xml version="1.0" encoding="utf-8"?>
<!-- 
  Copyright (c) 2022, WSO2 LLC. (http://www.wso2.com). All Rights Reserved.
 
 - This software is the property of WSO2 Inc. and its suppliers, if any.
 - Dissemination of any information or reproduction of any material contained
 - herein is strictly forbidden, unless permitted by WSO2 in accordance with
 - the WSO2 Commercial License available at http://wso2.com/licenses.
 - For specific language governing the permissions and limitations under
 - this license, please see the license as well as any agreement you’ve
 - entered into with WSO2 governing the purchase of this software and any
 - associated services.
 -->
 <svg version="1.1" id="Layer_1" x="0px" y="0px" viewBox="0 0 16 16">
<path class="st0" d="M5.8,0.3C5,0.6,4.6,1.4,4.8,2.2l0.1,0.2C3.9,3,3.1,3.8,2.5,4.8L2.3,4.8l-0.1,0C1.4,4.6,0.6,5.1,0.4,5.9l0,0.2
	l0,0.2c0,0.8,0.4,1.5,1.2,1.7l0.2,0.1c0,0.6,0.1,1.1,0.2,1.7c0.2,0.6,0.4,1.1,0.7,1.6l-0.1,0.1c-0.6,0.6-0.6,1.6,0,2.3l0.1,0.1
	c0.6,0.5,1.5,0.5,2.1-0.1l0.1-0.1c1,0.6,2.1,0.9,3.3,0.9l0.1,0.2c0.2,0.9,1.1,1.4,1.9,1.1l0.1,0c0.7-0.3,1.2-1.1,1-1.9l-0.1-0.2
	c1-0.6,1.8-1.4,2.4-2.4l0.2,0.1l0.1,0c0.8,0.1,1.6-0.4,1.8-1.2l0-0.2l0-0.2c0-0.8-0.4-1.5-1.2-1.7l-0.2-0.1c0-0.6-0.1-1.1-0.2-1.7
	c-0.2-0.6-0.4-1.1-0.7-1.6l0.1-0.1c0.6-0.6,0.6-1.6,0-2.3l-0.1-0.1c-0.6-0.5-1.5-0.5-2.1,0.1l-0.1,0.1c-1-0.6-2.1-0.9-3.3-0.9
	L7.9,1.4C7.6,0.6,6.8,0,5.9,0.3L5.8,0.3z M3.6,5.1c0.4-0.7,1-1.2,1.6-1.6l0,0c0.3-0.2,0.6-0.4,1-0.5L5.8,2C5.8,1.7,5.9,1.4,6.2,1.3
	c0.3-0.1,0.6,0.1,0.6,0.4l0.3,1.1c0.1,0,0.3,0,0.4,0l0.3,0c0.1,0,0.3,0,0.4,0l0,0c0.8,0,1.5,0.2,2.2,0.6v0c0.3,0.2,0.6,0.4,0.9,0.6
	L12,3.1c0.2-0.2,0.5-0.2,0.7,0c0.2,0.2,0.2,0.5,0,0.8L12,4.6c0.1,0.1,0.2,0.2,0.2,0.3l0.2,0.2c0.1,0.1,0.1,0.2,0.2,0.3l0,0
	c0.2,0.3,0.3,0.7,0.4,1.1c0.1,0.4,0.2,0.8,0.2,1.2l0,0c0,0.4,0,0.7-0.1,1.1l1,0.3c0.3,0.1,0.4,0.3,0.4,0.6l0,0.1
	c-0.1,0.2-0.3,0.4-0.6,0.4l-0.1,0l-1-0.3c-0.1,0.3-0.3,0.7-0.5,1h0c-0.4,0.7-1,1.2-1.6,1.6v0c-0.3,0.2-0.6,0.4-1,0.5l0.3,1.1
	c0.1,0.3-0.1,0.6-0.4,0.7c-0.3,0.1-0.6-0.1-0.6-0.4l-0.3-1.1c-0.1,0-0.3,0-0.4,0l-0.3,0c-0.1,0-0.3,0-0.4,0h0
	c-0.8,0-1.5-0.2-2.2-0.6l0,0c-0.3-0.2-0.6-0.4-0.9-0.6L4,12.9c-0.2,0.2-0.5,0.2-0.7,0c-0.2-0.2-0.2-0.5,0-0.8L4,11.4
	c-0.1-0.1-0.2-0.2-0.2-0.3l-0.2-0.2c-0.1-0.1-0.1-0.2-0.2-0.3l0,0C3.2,10.1,3.1,9.7,3,9.4C2.8,9,2.8,8.6,2.8,8.2l0,0
	c0-0.4,0-0.7,0.1-1.1l-1-0.3C1.5,6.8,1.4,6.5,1.4,6.2l0-0.1C1.5,5.9,1.7,5.7,2,5.8l0.1,0l1,0.3c0-0.1,0.1-0.2,0.1-0.3l0.1-0.2
	C3.4,5.4,3.5,5.2,3.6,5.1L3.6,5.1z M7,4.4C5.1,4.9,3.9,7,4.5,8.9C5,10.9,7,12.1,9,11.6c2-0.5,3.1-2.6,2.6-4.6C11,5.1,9,3.9,7,4.4z
	 M7.3,5.4c1.4-0.4,2.8,0.5,3.2,1.9c0.4,1.4-0.4,2.9-1.8,3.3c-1.4,0.4-2.8-0.5-3.2-1.9C5.1,7.3,5.9,5.8,7.3,5.4z"/>
</svg>
