<?xml version="1.0" encoding="utf-8"?>
<!-- 
  Copyright (c) 2022, WSO2 LLC. (http://www.wso2.com). All Rights Reserved.
 
 - This software is the property of WSO2 Inc. and its suppliers, if any.
 - Dissemination of any information or reproduction of any material contained
 - herein is strictly forbidden, unless permitted by WSO2 in accordance with
 - the WSO2 Commercial License available at http://wso2.com/licenses.
 - For specific language governing the permissions and limitations under
 - this license, please see the license as well as any agreement you’ve
 - entered into with WSO2 governing the purchase of this software and any
 - associated services.
 -->
 <svg version="1.1" id="Layer_1" x="0px" y="0px" viewBox="0 0 16 16">
<path d="M12.2,0c0.5,0,1,0.3,1.3,0.7l1.6,2.4L16,13.6c0,1.3-1.1,2.4-2.4,2.4H2.4C1.1,16,0,14.9,0,13.6L0.9,3.1l1.6-2.4
	C2.8,0.3,3.3,0,3.8,0H12.2z M13.8,4H2.2l-0.8,9.6c0,0.5,0.4,1,0.9,1.1l0.1,0l0.1,0h11.1c0.6,0,1.1-0.5,1.1-1.1L13.8,4z M10.7,6
	c0.4,0,0.7,0.3,0.7,0.7C11.3,8.5,9.8,10,8,10c-1.8,0-3.3-1.5-3.3-3.3C4.7,6.3,5,6,5.3,6S6,6.3,6,6.7c0,1.1,0.9,2,2,2
	c1.1,0,1.9-0.8,2-1.9l0-0.1C10,6.3,10.3,6,10.7,6z M12.2,1.3H3.8c-0.1,0-0.1,0-0.2,0.1L2.8,2.7h10.4l-0.8-1.2c0,0,0-0.1-0.1-0.1
	L12.2,1.3L12.2,1.3z"/>
</svg>
