<?xml version="1.0" encoding="utf-8"?>
<!-- 
  Copyright (c) 2022, WSO2 LLC. (http://www.wso2.com). All Rights Reserved.
 
 - This software is the property of WSO2 Inc. and its suppliers, if any.
 - Dissemination of any information or reproduction of any material contained
 - herein is strictly forbidden, unless permitted by WSO2 in accordance with
 - the WSO2 Commercial License available at http://wso2.com/licenses.
 - For specific language governing the permissions and limitations under
 - this license, please see the license as well as any agreement you’ve
 - entered into with WSO2 governing the purchase of this software and any
 - associated services.
 -->
 <svg version="1.1" id="Layer_1" x="0px" y="0px" viewBox="0 0 16 16">
<path d="M13.7,0c0.5,0,1,0.2,1.4,0.7l0.1,0.1L17,3.5l1,11.7c0,1.5-1.1,2.7-2.6,2.7l-0.2,0H2.8c-1.5,0-2.7-1.1-2.7-2.6l0-0.2L1,3.5
	l1.8-2.7C3.1,0.3,3.6,0.1,4.1,0l0.2,0H13.7z M12,6.8c-0.4,0-0.8,0.3-0.8,0.8l0,0.2C11.2,8.8,10.2,9.8,9,9.8c-1.2,0-2.2-1-2.2-2.2
	c0-0.4-0.3-0.8-0.8-0.8S5.2,7.1,5.2,7.5c0,2.1,1.7,3.8,3.8,3.8c2.1,0,3.8-1.7,3.8-3.8C12.8,7.1,12.4,6.8,12,6.8z M13.7,1.5H4.3
	c-0.1,0-0.1,0-0.2,0.1l0,0L3.2,3h11.7l-0.9-1.4c0,0-0.1-0.1-0.1-0.1L13.7,1.5L13.7,1.5z"/>
</svg>
