<?xml version="1.0" encoding="utf-8"?>
<!-- 
  Copyright (c) 2022, WSO2 LLC. (http://www.wso2.com). All Rights Reserved.
 
 - This software is the property of WSO2 Inc. and its suppliers, if any.
 - Dissemination of any information or reproduction of any material contained
 - herein is strictly forbidden, unless permitted by WSO2 in accordance with
 - the WSO2 Commercial License available at http://wso2.com/licenses.
 - For specific language governing the permissions and limitations under
 - this license, please see the license as well as any agreement you’ve
 - entered into with WSO2 governing the purchase of this software and any
 - associated services.
 -->
 <svg version="1.1" id="Layer_1" x="0px" y="0px" viewBox="0 0 16 16">
<path class="st0" d="M11.6,1.7c-0.2,0-0.5,0.2-0.5,0.5s0.2,0.5,0.5,0.5c0.2,0,0.5-0.2,0.5-0.5S11.8,1.7,11.6,1.7z M9.8,2.1
	c0-1,0.8-1.8,1.8-1.8s1.8,0.8,1.8,1.8s-0.8,1.8-1.8,1.8S9.8,3.1,9.8,2.1z M6.2,3.5c-0.7,0-1.4,0.6-1.4,1.4s0.6,1.4,1.4,1.4
	s1.4-0.6,1.4-1.4S6.9,3.5,6.2,3.5z M3.5,4.8c0-1.5,1.2-2.7,2.7-2.7s2.7,1.2,2.7,2.7S7.7,7.5,6.2,7.5S3.5,6.3,3.5,4.8z M-0.1,15.7
	h1.4h6.7h3.2h1.4v-0.5c0-0.3,0-0.6,0-0.8c-0.4-3.3-3-5.9-6.3-5.9c-3.2,0-5.9,2.6-6.3,5.9c0,0.3,0,0.6,0,0.8V15.7z M6.2,9.8
	c2.4,0,4.5,1.9,4.9,4.5H7.9H1.3C1.7,11.7,3.8,9.8,6.2,9.8z M11.6,5.1c-0.8,0-1.5,0.2-2.1,0.5C9.1,5.8,9,6.2,9.2,6.5
	C9.4,6.8,9.8,7,10.1,6.8c0.4-0.2,0.9-0.4,1.5-0.4c1.5,0,2.7,1,2.9,2.3h-2.9c-0.4,0-0.7,0.3-0.7,0.7s0.3,0.7,0.7,0.7h3.6h0.7V9.4V9.1
	C15.9,6.8,13.9,5.1,11.6,5.1z"/>
</svg>
