<?xml version="1.0" encoding="utf-8"?>
<!-- 
  Copyright (c) 2022, WSO2 LLC. (http://www.wso2.com). All Rights Reserved.
 
 - This software is the property of WSO2 Inc. and its suppliers, if any.
 - Dissemination of any information or reproduction of any material contained
 - herein is strictly forbidden, unless permitted by WSO2 in accordance with
 - the WSO2 Commercial License available at http://wso2.com/licenses.
 - For specific language governing the permissions and limitations under
 - this license, please see the license as well as any agreement you’ve
 - entered into with WSO2 governing the purchase of this software and any
 - associated services.
 -->
 <svg version="1.1" id="Layer_1" x="0px" y="0px" viewBox="0 0 16 16">
<path d="M4.2,0.8L4.2,0.8c0.2,0,0.4,0,0.8,0C3.5,2.1,2.6,4.1,2.6,6.2c0,4,3.2,7.2,7.2,7.2c1.3,0,2.5-0.4,3.6-1l0,1.2
	c0,1.3-1,2.4-2.3,2.5l-0.2,0H2.4l-0.2,0C1,16,0,15.1-0.1,13.8l0-0.2V3.3l0-0.2C0,1.9,1,0.9,2.2,0.8l0.2,0H4.2z M9.8,0.1
	c3.4,0,6.1,2.7,6.1,6.1c0,3.4-2.7,6.1-6.1,6.1c-3.4,0-6.1-2.7-6.1-6.1C3.7,2.9,6.4,0.1,9.8,0.1z M9.8,1.5c-2.6,0-4.7,2.1-4.7,4.7
	c0,2.6,2.1,4.7,4.7,4.7s4.7-2.1,4.7-4.7C14.5,3.6,12.4,1.5,9.8,1.5z M9.8,3.5c1.5,0,2.7,1.2,2.7,2.7c0,1.3-1,2.4-2.2,2.7
	c0.3-0.4,0.4-0.8,0.4-1.3c0-1.2-1-2.3-2.3-2.3c-0.5,0-0.9,0.2-1.3,0.4C7.4,4.5,8.5,3.5,9.8,3.5z"/>
</svg>
