<?xml version="1.0" encoding="utf-8"?>
<!-- 
  Copyright (c) 2022, WSO2 LLC. (http://www.wso2.com). All Rights Reserved.
 
 - This software is the property of WSO2 Inc. and its suppliers, if any.
 - Dissemination of any information or reproduction of any material contained
 - herein is strictly forbidden, unless permitted by WSO2 in accordance with
 - the WSO2 Commercial License available at http://wso2.com/licenses.
 - For specific language governing the permissions and limitations under
 - this license, please see the license as well as any agreement you’ve
 - entered into with WSO2 governing the purchase of this software and any
 - associated services.
 -->
 <svg version="1.1" id="Layer_1" x="0px" y="0px" viewBox="0 0 16 16">
<path d="M4.3,0.8L4.3,0.8C4.8,0.8,5,1.1,5,1.4c0,0.4-0.3,0.7-0.7,0.7H2.6l-0.1,0c-0.6,0.1-1,0.5-1,1.1v10.2l0,0.1
	c0.1,0.6,0.5,1,1.1,1h8l0.1,0c0.6-0.1,1-0.5,1-1.1l0-0.1c0-0.3,0.3-0.6,0.7-0.6c0.4,0,0.7,0.3,0.7,0.7c0,1.4-1.1,2.4-2.4,2.4h-8
	l-0.1,0c-1.3-0.1-2.3-1.1-2.3-2.4V3.2l0-0.1c0.1-1.3,1.1-2.3,2.4-2.3H4.3z M9.9,0.1c3.3,0,6,2.7,6,6c0,3.3-2.7,6-6,6
	c-3.3,0-6-2.7-6-6C3.9,2.8,6.6,0.1,9.9,0.1z M9.9,1.4c-2.6,0-4.7,2.1-4.7,4.7c0,2.6,2.1,4.7,4.7,4.7s4.7-2.1,4.7-4.7
	C14.6,3.5,12.5,1.4,9.9,1.4z M9.9,3.4c1.5,0,2.7,1.2,2.7,2.7c0,1.3-0.9,2.4-2.2,2.6c0.3-0.4,0.4-0.8,0.4-1.3c0-1.2-1-2.2-2.2-2.2
	c-0.5,0-0.9,0.2-1.3,0.4C7.5,4.4,8.6,3.4,9.9,3.4z"/>
</svg>
