<?xml version="1.0" encoding="utf-8"?>
<!-- 
  Copyright (c) 2022, WSO2 LLC. (http://www.wso2.com). All Rights Reserved.
 
 - This software is the property of WSO2 Inc. and its suppliers, if any.
 - Dissemination of any information or reproduction of any material contained
 - herein is strictly forbidden, unless permitted by WSO2 in accordance with
 - the WSO2 Commercial License available at http://wso2.com/licenses.
 - For specific language governing the permissions and limitations under
 - this license, please see the license as well as any agreement you’ve
 - entered into with WSO2 governing the purchase of this software and any
 - associated services.
 -->
 <svg version="1.1" id="Layer_1" x="0px" y="0px" viewBox="0 0 16 16">
	<path d="M8,3.3l1,2.6l0.1,0.4L9.3,7L10,7l0.4,0l2.8,0.1L11,8.8l-0.3,0.3l-0.5,0.4l0.2,0.6l0.1,0.4l0.8,2.7l-2.3-1.6l-0.4-0.2
		L8,11.1l-0.6,0.4l-0.4,0.2l-2.3,1.6l0.8-2.7l0.1-0.4l0.2-0.6L5.3,9.1L5,8.8L2.8,7.1L5.6,7L6,7l0.7,0l0.2-0.6L7,5.9L8,3.3 M8,0.4
		L6.1,5.6L6,6L5.5,6L0,6.2l4.3,3.4l0.3,0.3l-0.1,0.4l-1.5,5.3l4.6-3.1L8,12.3l0.4,0.2l4.6,3.1l-1.5-5.3l-0.1-0.4l0.3-0.3L16,6.2
		L10.5,6L10,6L9.9,5.6L8,0.4L8,0.4z"/>
</svg>
