<?xml version="1.0" encoding="utf-8"?>
<!-- 
  Copyright (c) 2022, WSO2 LLC. (http://www.wso2.com). All Rights Reserved.
 
 - This software is the property of WSO2 Inc. and its suppliers, if any.
 - Dissemination of any information or reproduction of any material contained
 - herein is strictly forbidden, unless permitted by WSO2 in accordance with
 - the WSO2 Commercial License available at http://wso2.com/licenses.
 - For specific language governing the permissions and limitations under
 - this license, please see the license as well as any agreement you’ve
 - entered into with WSO2 governing the purchase of this software and any
 - associated services.
 -->
 <svg version="1.1" id="Layer_1" x="0px" y="0px" viewBox="0 0 16 16">
<path class="st0" d="M10.4,0L10.4,0h3.9c0.9,0,1.6,0.6,1.7,1.5l0,0l0,0l0,0.1l0,0v0v5.8c0,0.9-0.6,1.6-1.5,1.7l0,0l0,0l-0.1,0l0,0h0
	h-3.9c-0.9,0-1.6-0.6-1.7-1.5l0,0l0,0l0-0.1l0,0v0V1.7c0-0.9,0.6-1.6,1.5-1.7l0,0l0,0L10.4,0L10.4,0z M10.4,1.4L10.4,1.4
	c-0.2,0-0.3,0.1-0.3,0.3v5.8l0,0.1c0,0.1,0.1,0.2,0.3,0.2h3.9l0.1,0c0.1,0,0.2-0.1,0.2-0.3V1.7l0-0.1c0-0.1-0.1-0.2-0.3-0.2H10.4z
	 M1.7,7.8L1.7,7.8L1.7,7.8l-0.2,0l0,0l0,0C0.6,7.9,0,8.6,0,9.5v4.9v0l0,0l0,0.1l0,0l0,0C0.1,15.3,0.8,16,1.7,16h3.9h0l0,0l0.1,0l0,0
	l0,0c0.8-0.1,1.5-0.8,1.5-1.7V9.5v0l0,0l0-0.1l0,0l0,0C7.1,8.4,6.4,7.8,5.6,7.8H1.7z M1.6,9.2L1.6,9.2l3.9,0c0.1,0,0.2,0.1,0.3,0.2
	l0,0.1v4.8c0,0.1-0.1,0.2-0.2,0.3l-0.1,0H1.7c-0.1,0-0.2-0.1-0.3-0.2l0-0.1V9.5C1.4,9.3,1.5,9.2,1.6,9.2z M10.4,10.7L10.4,10.7
	L10.4,10.7l-0.2,0l0,0l0,0c-0.8,0.1-1.5,0.8-1.5,1.7v1.9v0l0,0l0,0.1l0,0l0,0c0.1,0.8,0.8,1.5,1.7,1.5h3.9h0l0,0l0.1,0l0,0l0,0
	c0.8-0.1,1.5-0.8,1.5-1.7v-1.9v0l0,0l0-0.1l0,0l0,0c-0.1-0.8-0.8-1.5-1.7-1.5H10.4z M10.4,12.1L10.4,12.1l3.9,0
	c0.1,0,0.2,0.1,0.3,0.2l0,0.1v1.9c0,0.1-0.1,0.2-0.2,0.3l-0.1,0h-3.9c-0.1,0-0.2-0.1-0.3-0.2l0-0.1v-1.9
	C10.2,12.2,10.3,12.1,10.4,12.1z M1.7,0L1.7,0L1.7,0L1.5,0l0,0l0,0C0.6,0.1,0,0.8,0,1.7v2.9v0l0,0l0,0.1l0,0l0,0
	c0.1,0.8,0.8,1.5,1.7,1.5h3.9h0l0,0l0.1,0l0,0l0,0c0.8-0.1,1.5-0.8,1.5-1.7V1.7v0l0,0l0-0.1l0,0l0,0C7.1,0.6,6.4,0,5.6,0H1.7z
	 M1.6,1.4L1.6,1.4l3.9,0c0.1,0,0.2,0.1,0.3,0.2l0,0.1v2.9c0,0.1-0.1,0.2-0.2,0.3l-0.1,0H1.7c-0.1,0-0.2-0.1-0.3-0.2l0-0.1V1.7
	C1.4,1.5,1.5,1.4,1.6,1.4z"/>
</svg>
