<?xml version="1.0" encoding="utf-8"?>
<!-- 
  Copyright (c) 2022, WSO2 LLC. (http://www.wso2.com). All Rights Reserved.
 
 - This software is the property of WSO2 Inc. and its suppliers, if any.
 - Dissemination of any information or reproduction of any material contained
 - herein is strictly forbidden, unless permitted by WSO2 in accordance with
 - the WSO2 Commercial License available at http://wso2.com/licenses.
 - For specific language governing the permissions and limitations under
 - this license, please see the license as well as any agreement you’ve
 - entered into with WSO2 governing the purchase of this software and any
 - associated services.
 -->
 <svg version="1.1" id="Layer_1" x="0px" y="0px" viewBox="0 0 16 16">
<path class="st0" d="M15.4,3.1l-7-2.9c-0.2-0.1-0.5-0.1-0.8,0l-7,2.9C0.2,3.2,0,3.6,0,4v8.1c0,0.4,0.2,0.8,0.6,0.9l7,2.9
	c0.2,0.1,0.5,0.1,0.8,0l7-2.9c0.4-0.2,0.6-0.5,0.6-0.9V4C16,3.6,15.8,3.2,15.4,3.1z M8,1.1l6.8,2.8L8.2,6.6l-0.1,0
	c-0.1,0-0.2,0-0.3,0L1.2,3.9L8,1.1z M8.6,7.6L15,4.9v7.1l-6.5,2.7L8.6,7.6C8.5,7.6,8.5,7.6,8.6,7.6z M7.5,7.6L7.5,7.6L1,4.9v7.1
	l6.5,2.7V7.6z"/>
</svg>
