<?xml version="1.0" encoding="utf-8"?>
<!-- 
  Copyright (c) 2022, WSO2 LLC. (http://www.wso2.com). All Rights Reserved.
 
 - This software is the property of WSO2 Inc. and its suppliers, if any.
 - Dissemination of any information or reproduction of any material contained
 - herein is strictly forbidden, unless permitted by WSO2 in accordance with
 - the WSO2 Commercial License available at http://wso2.com/licenses.
 - For specific language governing the permissions and limitations under
 - this license, please see the license as well as any agreement you’ve
 - entered into with WSO2 governing the purchase of this software and any
 - associated services.
 -->
 <svg version="1.1" id="Layer_1" x="0px" y="0px" viewBox="0 0 16 16">
<path class="st0" d="M7.6,8l6.9-6.9c0.3-0.3,0.3-0.7,0-0.9c-0.3-0.3-0.7-0.3-0.9,0L6.2,7.5L5.7,8l0.5,0.5l7.3,7.3
	c0.3,0.3,0.7,0.3,0.9,0c0.3-0.3,0.3-0.7,0-0.9L7.6,8z M2,0C1.6,0,1.3,0.3,1.3,0.7v14.7C1.3,15.7,1.6,16,2,16s0.7-0.3,0.7-0.7V0.7
	C2.7,0.3,2.4,0,2,0z"/>
</svg>
