<?xml version="1.0" encoding="utf-8"?>
<!-- 
  Copyright (c) 2022, WSO2 LLC. (http://www.wso2.com). All Rights Reserved.
 
 - This software is the property of WSO2 Inc. and its suppliers, if any.
 - Dissemination of any information or reproduction of any material contained
 - herein is strictly forbidden, unless permitted by WSO2 in accordance with
 - the WSO2 Commercial License available at http://wso2.com/licenses.
 - For specific language governing the permissions and limitations under
 - this license, please see the license as well as any agreement you’ve
 - entered into with WSO2 governing the purchase of this software and any
 - associated services.
 -->
 <svg version="1.1" id="Layer_1" x="0px" y="0px" viewBox="0 0 16 16">
<path class="st0" d="M11,7.5h0.5c2.2,0,4,1.8,4,4c0,2.2-1.8,4-4,4H5c-0.3,0-0.5-0.2-0.5-0.5s0.2-0.5,0.5-0.5h6.5c1.7,0,3-1.3,3-3
	c0-1.7-1.3-3-3-3H11H5c0,0,0,0,0,0H4.5c-2.2,0-4-1.8-4-4s1.8-4,4-4H11c0.3,0,0.5,0.2,0.5,0.5c0,0.3-0.2,0.5-0.5,0.5H4.5
	c-1.7,0-3,1.3-3,3s1.3,3,3,3H5H11z"/>
</svg>
