<?xml version="1.0" encoding="utf-8"?>
<!-- 
  Copyright (c) 2022, WSO2 LLC. (http://www.wso2.com). All Rights Reserved.
 
 - This software is the property of WSO2 Inc. and its suppliers, if any.
 - Dissemination of any information or reproduction of any material contained
 - herein is strictly forbidden, unless permitted by WSO2 in accordance with
 - the WSO2 Commercial License available at http://wso2.com/licenses.
 - For specific language governing the permissions and limitations under
 - this license, please see the license as well as any agreement you’ve
 - entered into with WSO2 governing the purchase of this software and any
 - associated services.
 -->
 <svg version="1.1" id="Layer_1" x="0px" y="0px" viewBox="0 0 16 16">
<path d="M4.5,2.9c-0.3,1-1.1,1.7-2.2,1.7C1,4.6,0,3.5,0,2.3S1,0,2.3,0c1.1,0,2,0.7,2.2,1.7h6.9c1.9,0,3.4,1.5,3.4,3.4
	c0,1.8-1.4,3.3-3.2,3.4l-0.2,0H4.6c-1.3,0-2.3,1-2.3,2.3c0,1.2,0.9,2.2,2.1,2.3l0.2,0h6.9c0.3-1,1.1-1.7,2.2-1.7
	c1.3,0,2.3,1,2.3,2.3S15,16,13.7,16c-1.1,0-2-0.7-2.2-1.7l-6.9,0c-1.9,0-3.4-1.5-3.4-3.4c0-1.8,1.4-3.3,3.2-3.4l0.2,0h6.9
	c1.3,0,2.3-1,2.3-2.3c0-1.2-0.9-2.2-2.1-2.3l-0.2,0L4.5,2.9z M13.7,12.6c-0.6,0-1.1,0.5-1.1,1.1s0.5,1.1,1.1,1.1s1.1-0.5,1.1-1.1
	S14.3,12.6,13.7,12.6z M2.3,1.1c-0.6,0-1.1,0.5-1.1,1.1s0.5,1.1,1.1,1.1s1.1-0.5,1.1-1.1S2.9,1.1,2.3,1.1z"/>
</svg>
