<?xml version="1.0" encoding="utf-8"?>
<!-- 
  Copyright (c) 2022, WSO2 LLC. (http://www.wso2.com). All Rights Reserved.
 
 - This software is the property of WSO2 Inc. and its suppliers, if any.
 - Dissemination of any information or reproduction of any material contained
 - herein is strictly forbidden, unless permitted by WSO2 in accordance with
 - the WSO2 Commercial License available at http://wso2.com/licenses.
 - For specific language governing the permissions and limitations under
 - this license, please see the license as well as any agreement you’ve
 - entered into with WSO2 governing the purchase of this software and any
 - associated services.
 -->
 <svg version="1.1" id="Layer_1" x="0px" y="0px" viewBox="0 0 16 16">
<path d="M2.3,8c1.3,0,2.3,1,2.3,2.3c0,0.8-0.4,1.5-1.1,1.9c0.9,1.6,2.6,2.6,4.5,2.6c2.6,0,4.7-1.9,5.1-4.4l0-0.1H6.9V9.1h7.4v0.6
	c0,3.5-2.8,6.3-6.3,6.3c-2.4,0-4.5-1.4-5.6-3.4l-0.1,0c-1.3,0-2.3-1-2.3-2.3C0,9,1,8,2.3,8z M2.3,9.1c-0.6,0-1.1,0.5-1.1,1.1
	c0,0.6,0.5,1.1,1.1,1.1s1.1-0.5,1.1-1.1C3.4,9.7,2.9,9.1,2.3,9.1z M8,0c2.4,0,4.5,1.4,5.6,3.4l0.1,0c1.3,0,2.3,1,2.3,2.3
	S15,8,13.7,8s-2.3-1-2.3-2.3c0-0.8,0.4-1.5,1.1-1.9C11.6,2.2,9.9,1.1,8,1.1c-2.6,0-4.7,1.9-5.1,4.4l0,0.1h6.3v1.1H1.7V6.3
	C1.7,2.8,4.5,0,8,0z M13.7,4.6c-0.6,0-1.1,0.5-1.1,1.1s0.5,1.1,1.1,1.1s1.1-0.5,1.1-1.1S14.3,4.6,13.7,4.6z"/>
</svg>
