<?xml version="1.0" encoding="utf-8"?>
<<!-- 
  Copyright (c) 2022, WSO2 LLC. (http://www.wso2.com). All Rights Reserved.
 
 - This software is the property of WSO2 Inc. and its suppliers, if any.
 - Dissemination of any information or reproduction of any material contained
 - herein is strictly forbidden, unless permitted by WSO2 in accordance with
 - the WSO2 Commercial License available at http://wso2.com/licenses.
 - For specific language governing the permissions and limitations under
 - this license, please see the license as well as any agreement you’ve
 - entered into with WSO2 governing the purchase of this software and any
 - associated services.
 -->
<svg version="1.1" id="Layer_1" x="0px" y="0px" viewBox="0 0 16 16">
<path d="M15,8.5h1l0.1,0l0.4,0c-0.1,1.1-0.4,2.1-0.8,3.1l-1.3-0.7c-0.2-0.1-0.5-0.1-0.7,0.2c-0.1,0.2-0.1,0.5,0.1,0.6l0.1,0.1
	l1.3,0.7c-0.6,0.9-1.4,1.6-2.2,2.2l-0.7-1.3c-0.1-0.2-0.4-0.3-0.7-0.2c-0.2,0.1-0.3,0.4-0.2,0.6l0,0.1l0.7,1.3
	c-0.9,0.5-2,0.7-3.1,0.8l0-1.5C9,14.2,8.8,14,8.5,14c-0.2,0-0.4,0.2-0.5,0.4l0,0.1L8,16c-1.1-0.1-2.1-0.4-3.1-0.8l0.7-1.3l0-0.1
	c0.1-0.2,0-0.5-0.2-0.6c-0.2-0.1-0.5-0.1-0.6,0.1l-0.1,0.1l-0.7,1.3c-0.9-0.6-1.6-1.3-2.2-2.2l1.3-0.7l0.1-0.1
	c0.2-0.2,0.2-0.4,0.1-0.6c-0.1-0.2-0.4-0.3-0.6-0.2l-0.1,0l-1.3,0.7c-0.5-0.9-0.8-2-0.8-3.1l1.5,0c0.3,0,0.5-0.2,0.5-0.5
	c0-0.2-0.2-0.4-0.4-0.5L2,7.5l-1.5,0c0.1-1.1,0.4-2.1,0.8-3.1l1.3,0.7C2.9,5.3,3.2,5.2,3.3,5c0.1-0.2,0.1-0.5-0.1-0.6L3.1,4.3
	L1.8,3.6c0.6-0.9,1.4-1.7,2.2-2.2l0.7,1.3C5,2.9,5.3,2.9,5.5,2.8c0.2-0.1,0.3-0.4,0.2-0.6l0-0.1L4.9,0.8C5.9,0.4,6.9,0.1,8,0v0.5v0
	v1v0v7L15,8.5L15,8.5z M12.1,0.8l-0.7,1.3l0,0.1c-0.1,0.2,0,0.5,0.2,0.6s0.5,0.1,0.6-0.1l0.1-0.1l0.7-1.3c0.9,0.6,1.6,1.4,2.2,2.2
	l-1.3,0.7l-0.1,0.1c-0.2,0.2-0.2,0.4-0.1,0.6c0.1,0.2,0.4,0.3,0.6,0.2l0.1,0l1.3-0.7c0.5,0.9,0.7,2,0.8,3.1L9,7.5L9,0
	C10.1,0.1,11.1,0.4,12.1,0.8z"/>
</svg>
