<?xml version="1.0" encoding="utf-8"?>
<!-- 
  Copyright (c) 2022, WSO2 LLC. (http://www.wso2.com). All Rights Reserved.
 
 - This software is the property of WSO2 Inc. and its suppliers, if any.
 - Dissemination of any information or reproduction of any material contained
 - herein is strictly forbidden, unless permitted by WSO2 in accordance with
 - the WSO2 Commercial License available at http://wso2.com/licenses.
 - For specific language governing the permissions and limitations under
 - this license, please see the license as well as any agreement you’ve
 - entered into with WSO2 governing the purchase of this software and any
 - associated services.
 -->
 <svg version="1.1" id="Layer_1" x="0px" y="0px" viewBox="0 0 16 16">
<path d="M8,14c0.3,0,0.5,0.2,0.5,0.5v1C8.5,15.8,8.3,16,8,16s-0.5-0.2-0.5-0.5v-1C7.5,14.2,7.7,14,8,14z M11.7,13.4l0.5,0.9
	c0.1,0.2,0.1,0.5-0.2,0.7c-0.2,0.1-0.5,0.1-0.7-0.2l-0.5-0.9c-0.1-0.2-0.1-0.5,0.2-0.7C11.2,13.1,11.5,13.1,11.7,13.4z M5,13.2
	c0.2,0.1,0.3,0.4,0.2,0.6l0,0.1l-0.5,0.9C4.5,15,4.2,15.1,4,14.9c-0.2-0.1-0.3-0.4-0.2-0.6l0-0.1l0.5-0.9C4.5,13.1,4.8,13.1,5,13.2z
	 M13.9,10.8l0.9,0.5c0.2,0.1,0.3,0.4,0.2,0.7c-0.1,0.2-0.4,0.3-0.7,0.2l-0.9-0.5c-0.2-0.1-0.3-0.4-0.2-0.7
	C13.3,10.8,13.6,10.7,13.9,10.8z M2.8,11c0.1,0.2,0.1,0.5-0.1,0.6l-0.1,0.1l-0.9,0.5c-0.2,0.1-0.5,0.1-0.7-0.2
	c-0.1-0.2-0.1-0.5,0.1-0.6l0.1-0.1l0.9-0.5C2.4,10.7,2.7,10.8,2.8,11z M7.5,8.5V0l0.8,0c4.2,0.1,7.6,3.5,7.7,7.7L16,8v0.5H7.5z
	 M1.5,7.5C1.8,7.5,2,7.7,2,8c0,0.3-0.2,0.5-0.5,0.5h-1C0.2,8.5,0,8.3,0,8c0-0.3,0.2-0.5,0.5-0.5H1.5z M8.5,1v6.5H15l0-0.2
	c-0.1-0.8-0.3-1.6-0.7-2.3l-0.4,0.2c-0.2,0.1-0.5,0.1-0.7-0.2c-0.1-0.2-0.1-0.5,0.1-0.6l0.1-0.1l0.4-0.2c-0.5-0.7-1.1-1.4-1.9-1.9
	l-0.2,0.4c-0.1,0.2-0.4,0.3-0.7,0.2c-0.2-0.1-0.3-0.4-0.2-0.6l0-0.1l0.2-0.4C10.4,1.4,9.7,1.2,9,1.1L8.7,1L8.5,1z M1.8,3.8l0.9,0.5
	C2.9,4.5,2.9,4.8,2.8,5C2.7,5.2,2.4,5.3,2.1,5.2L1.3,4.7C1,4.5,0.9,4.2,1.1,4C1.2,3.8,1.5,3.7,1.8,3.8z M4.7,1.3l0.5,0.9
	C5.3,2.4,5.2,2.7,5,2.8C4.8,2.9,4.5,2.9,4.3,2.6L3.8,1.8C3.7,1.5,3.8,1.2,4,1.1C4.2,0.9,4.5,1,4.7,1.3z"/>
</svg>
