<?xml version="1.0" encoding="utf-8"?>
<!-- 
  Copyright (c) 2022, WSO2 LLC. (http://www.wso2.com). All Rights Reserved.
 
 - This software is the property of WSO2 Inc. and its suppliers, if any.
 - Dissemination of any information or reproduction of any material contained
 - herein is strictly forbidden, unless permitted by WSO2 in accordance with
 - the WSO2 Commercial License available at http://wso2.com/licenses.
 - For specific language governing the permissions and limitations under
 - this license, please see the license as well as any agreement you’ve
 - entered into with WSO2 governing the purchase of this software and any
 - associated services.
 -->
 <svg version="1.1" id="Layer_1" x="0px" y="0px" viewBox="0 0 16 16">
<path class="st0" d="M1.5,2h4C5.8,2,6,2.2,6,2.5v3C6,5.8,5.8,6,5.5,6h-4C1.2,6,1,5.8,1,5.5v-3C1,2.2,1.2,2,1.5,2z M0,2.5
	C0,1.7,0.7,1,1.5,1h4C6.3,1,7,1.7,7,2.5v3C7,6.3,6.3,7,5.5,7h-4C0.7,7,0,6.3,0,5.5V2.5z M1.5,10h4C5.8,10,6,10.2,6,10.5v3
	C6,13.8,5.8,14,5.5,14h-4C1.2,14,1,13.8,1,13.5v-3C1,10.2,1.2,10,1.5,10z M0,10.5C0,9.7,0.7,9,1.5,9h4C6.3,9,7,9.7,7,10.5v3
	C7,14.3,6.3,15,5.5,15h-4C0.7,15,0,14.3,0,13.5V10.5z M14.5,2h-4C10.2,2,10,2.2,10,2.5v3C10,5.8,10.2,6,10.5,6h4
	C14.8,6,15,5.8,15,5.5v-3C15,2.2,14.8,2,14.5,2z M10.5,1C9.7,1,9,1.7,9,2.5v3C9,6.3,9.7,7,10.5,7h4C15.3,7,16,6.3,16,5.5v-3
	C16,1.7,15.3,1,14.5,1H10.5z M10.5,10h4c0.3,0,0.5,0.2,0.5,0.5v3c0,0.3-0.2,0.5-0.5,0.5h-4c-0.3,0-0.5-0.2-0.5-0.5v-3
	C10,10.2,10.2,10,10.5,10z M9,10.5C9,9.7,9.7,9,10.5,9h4c0.8,0,1.5,0.7,1.5,1.5v3c0,0.8-0.7,1.5-1.5,1.5h-4C9.7,15,9,14.3,9,13.5
	V10.5z"/>
</svg>
