<?xml version="1.0" encoding="utf-8"?>
<!-- 
  Copyright (c) 2022, WSO2 LLC. (http://www.wso2.com). All Rights Reserved.
 
 - This software is the property of WSO2 Inc. and its suppliers, if any.
 - Dissemination of any information or reproduction of any material contained
 - herein is strictly forbidden, unless permitted by WSO2 in accordance with
 - the WSO2 Commercial License available at http://wso2.com/licenses.
 - For specific language governing the permissions and limitations under
 - this license, please see the license as well as any agreement you’ve
 - entered into with WSO2 governing the purchase of this software and any
 - associated services.
 -->
 <svg version="1.1" id="Layer_1" x="0px" y="0px" viewBox="0 0 16 16">
<path class="st0" d="M0.7,7.3C0.3,7.3,0,7.6,0,8c0,0.4,0.3,0.7,0.7,0.7h6.7v6.7C7.3,15.7,7.6,16,8,16c0.4,0,0.7-0.3,0.7-0.7V8.7h6.7
	C15.7,8.7,16,8.4,16,8c0-0.4-0.3-0.7-0.7-0.7H8.7V0.7C8.7,0.3,8.4,0,8,0C7.6,0,7.3,0.3,7.3,0.7v6.7H0.7z"/>
</svg>
