<?xml version="1.0" encoding="utf-8"?>
<!-- 
  Copyright (c) 2022, WSO2 LLC. (http://www.wso2.com). All Rights Reserved.
 
 - This software is the property of WSO2 Inc. and its suppliers, if any.
 - Dissemination of any information or reproduction of any material contained
 - herein is strictly forbidden, unless permitted by WSO2 in accordance with
 - the WSO2 Commercial License available at http://wso2.com/licenses.
 - For specific language governing the permissions and limitations under
 - this license, please see the license as well as any agreement you’ve
 - entered into with WSO2 governing the purchase of this software and any
 - associated services.
 -->
 <svg version="1.1" id="Layer_1" x="0px" y="0px" viewBox="0 0 16 16">
<path d="M8,0c0.3,0,0.6,0.3,0.7,0.6l0,0.1l0,0.9c0.7,0.1,1.3,0.2,1.9,0.5l0.5-0.8C11.3,1,11.7,0.9,12,1.1c0.3,0.2,0.4,0.5,0.3,0.9
	l0,0.1l-0.5,0.8c0.5,0.4,1,0.9,1.4,1.4L14,3.8c0.3-0.2,0.7-0.1,0.9,0.3c0.2,0.3,0.1,0.7-0.2,0.9l-0.1,0.1l-0.8,0.5
	c0.3,0.6,0.4,1.2,0.5,1.9l0.9,0C15.7,7.3,16,7.6,16,8c0,0.3-0.3,0.6-0.6,0.7l-0.1,0l-0.9,0c-0.1,0.7-0.2,1.3-0.5,1.9l0.8,0.5
	c0.3,0.2,0.4,0.6,0.3,0.9c-0.2,0.3-0.5,0.4-0.9,0.3l-0.1,0l-0.8-0.5c-0.4,0.5-0.9,1-1.4,1.4l0.5,0.8c0.2,0.3,0.1,0.7-0.3,0.9
	c-0.3,0.2-0.7,0.1-0.9-0.2l-0.1-0.1l-0.5-0.8c-0.6,0.3-1.2,0.4-1.9,0.5l0,0.9C8.7,15.7,8.4,16,8,16c-0.3,0-0.6-0.3-0.7-0.6l0-0.1
	l0-0.9c-0.7-0.1-1.3-0.2-1.9-0.5l-0.5,0.8C4.7,15,4.3,15.1,4,14.9c-0.3-0.2-0.4-0.5-0.3-0.9l0-0.1l0.5-0.8c-0.5-0.4-1-0.9-1.4-1.4
	L2,12.3c-0.3,0.2-0.7,0.1-0.9-0.3c-0.2-0.3-0.1-0.7,0.2-0.9l0.1-0.1l0.8-0.5C1.9,10,1.7,9.4,1.6,8.7l-0.9,0C0.3,8.7,0,8.4,0,8
	c0-0.3,0.3-0.6,0.6-0.7l0.1,0l0.9,0C1.7,6.6,1.9,6,2.1,5.4L1.3,4.9C1,4.8,0.9,4.3,1.1,4c0.2-0.3,0.5-0.4,0.8-0.3l0.1,0l0.1,0
	l0.8,0.5c0.4-0.5,0.9-1,1.4-1.4L3.7,2C3.6,1.7,3.7,1.3,4,1.1C4.3,0.9,4.7,1,4.9,1.3l0.1,0.1l0.5,0.8C6,1.9,6.6,1.7,7.3,1.6l0-0.9
	C7.3,0.3,7.6,0,8,0z M8,5.3C6.5,5.3,5.3,6.5,5.3,8c0,1.5,1.2,2.7,2.7,2.7c1.5,0,2.7-1.2,2.7-2.7C10.7,6.5,9.5,5.3,8,5.3z M8,6.9
	c0.6,0,1.1,0.5,1.1,1.1c0,0.6-0.5,1.1-1.1,1.1C7.4,9.1,6.9,8.6,6.9,8C6.9,7.4,7.4,6.9,8,6.9z"/>
</svg>
