<?xml version="1.0" encoding="utf-8"?>
<!-- 
  Copyright (c) 2022, WSO2 LLC. (http://www.wso2.com). All Rights Reserved.
 
 - This software is the property of WSO2 Inc. and its suppliers, if any.
 - Dissemination of any information or reproduction of any material contained
 - herein is strictly forbidden, unless permitted by WSO2 in accordance with
 - the WSO2 Commercial License available at http://wso2.com/licenses.
 - For specific language governing the permissions and limitations under
 - this license, please see the license as well as any agreement you’ve
 - entered into with WSO2 governing the purchase of this software and any
 - associated services.
 -->
 <svg version="1.1" id="Layer_1" x="0px" y="0px" viewBox="0 0 16 16">
<path class="st0" d="M0,0h1.3h1.3v1.3H1.3v1.3H0V1.3V0z M1.3,7.3C3.5,3.6,5.7,2.7,8,2.7c2.3,0,4.4,0.8,6.5,4.3l0.6,1l-0.4,0.7
	c-2.2,3.7-4.4,4.6-6.7,4.6c-2.3,0-4.4-0.8-6.5-4.3L1.3,8.7L0.9,8L1.3,7.3z M14.7,16H16v-1.3v-1.3h-1.3v1.3h-1.3V16H14.7z M6,8
	c0-1.1,0.9-2,2-2c1.1,0,2,0.9,2,2c0,1.1-0.9,2-2,2C6.9,10,6,9.1,6,8z M8,4.7C6.2,4.7,4.7,6.2,4.7,8c0,1.8,1.5,3.3,3.3,3.3
	c1.8,0,3.3-1.5,3.3-3.3C11.3,6.2,9.8,4.7,8,4.7z"/>
</svg>
