<?xml version="1.0" encoding="utf-8"?>
<!-- 
  Copyright (c) 2022, WSO2 LLC. (http://www.wso2.com). All Rights Reserved.
 
 - This software is the property of WSO2 Inc. and its suppliers, if any.
 - Dissemination of any information or reproduction of any material contained
 - herein is strictly forbidden, unless permitted by WSO2 in accordance with
 - the WSO2 Commercial License available at http://wso2.com/licenses.
 - For specific language governing the permissions and limitations under
 - this license, please see the license as well as any agreement you’ve
 - entered into with WSO2 governing the purchase of this software and any
 - associated services.
 -->
 <svg version="1.1" id="Layer_1" x="0px" y="0px" viewBox="0 0 16 16">
<path class="st0" d="M1.3,0H0v1.3v1.3h1.3V1.3h1.3V0H1.3z M8,2C6.7,2,5.5,2.3,4.2,3C3,3.8,1.8,5,0.7,7L0.3,7.7L0.1,8l0.2,0.3L0.7,9
	h0l0,0l0.2,0.3h0l0,0c1.1,1.8,2.2,3,3.4,3.7C5.6,13.8,6.8,14,8,14c1.3,0,2.5-0.3,3.8-1c1.2-0.8,2.4-2,3.5-3.9l0.4-0.7L15.9,8
	l-0.2-0.3l-0.6-1v0l0,0c-1.1-1.8-2.2-3-3.4-3.7C10.4,2.2,9.2,2,8,2z M1.9,7.6c1-1.8,2.1-2.9,3.1-3.5c1-0.6,2-0.8,3.1-0.8
	c1,0,2,0.2,3,0.7c1,0.6,2,1.5,3,3.2L14.3,8l-0.2,0.4c-1,1.8-2.1,2.9-3.1,3.5c-1,0.6-2,0.8-3.1,0.8c-1,0-2-0.2-3-0.7
	c-1-0.6-2-1.5-3-3.2L1.9,8.4L1.7,8L1.9,7.6z M6,8c0-1.1,0.9-2,2-2c1.1,0,2,0.9,2,2c0,1.1-0.9,2-2,2C6.9,10,6,9.1,6,8z M8,4.7
	C6.2,4.7,4.7,6.2,4.7,8c0,1.8,1.5,3.3,3.3,3.3c1.8,0,3.3-1.5,3.3-3.3C11.3,6.2,9.8,4.7,8,4.7z M16,16h-1.3h-1.3v-1.3h1.3v-1.3H16
	v1.3V16z"/>
</svg>
