<?xml version="1.0" encoding="utf-8"?>
<!-- 
  Copyright (c) 2022, WSO2 LLC. (http://www.wso2.com). All Rights Reserved.
 
 - This software is the property of WSO2 Inc. and its suppliers, if any.
 - Dissemination of any information or reproduction of any material contained
 - herein is strictly forbidden, unless permitted by WSO2 in accordance with
 - the WSO2 Commercial License available at http://wso2.com/licenses.
 - For specific language governing the permissions and limitations under
 - this license, please see the license as well as any agreement you’ve
 - entered into with WSO2 governing the purchase of this software and any
 - associated services.
 -->
 <svg version="1.1" id="Layer_1" x="0px" y="0px" viewBox="0 0 16 16">
<path class="st0" d="M4.8,0C3.9,0,3.2,0.7,3.2,1.6v1.6H1.6C0.7,3.2,0,3.9,0,4.8v6.4c0,0.9,0.7,1.6,1.6,1.6h1.6v1.6
	c0,0.9,0.7,1.6,1.6,1.6h6.4c0.9,0,1.6-0.7,1.6-1.6v-1.6h1.6c0.9,0,1.6-0.7,1.6-1.6V4.8c0-0.9-0.7-1.6-1.6-1.6h-1.6V1.6
	c0-0.9-0.7-1.6-1.6-1.6H4.8z M4.8,1.1h6.4c0.3,0,0.5,0.2,0.5,0.5v1.6H4.3V1.6C4.3,1.3,4.5,1.1,4.8,1.1z M14.4,4.3H1.6
	c-0.3,0-0.5,0.2-0.5,0.5v6.4c0,0.3,0.2,0.5,0.5,0.5h1.6V9.1c0-0.3,0.2-0.5,0.5-0.5h8.5c0.3,0,0.5,0.2,0.5,0.5v2.7h1.6
	c0.3,0,0.5-0.2,0.5-0.5V4.8C14.9,4.5,14.7,4.3,14.4,4.3z M4.3,9.6h7.5v4.8c0,0.3-0.2,0.5-0.5,0.5H4.8c-0.3,0-0.5-0.2-0.5-0.5V9.6z
	 M4.1,6.2C4.2,6.1,4.3,6,4.3,5.9c0-0.3-0.2-0.5-0.5-0.5c-0.3,0-0.5,0.2-0.5,0.5c0,0.1,0.1,0.3,0.2,0.4s0.2,0.2,0.4,0.2
	C3.9,6.4,4,6.3,4.1,6.2z"/>
</svg>
