<?xml version="1.0" encoding="utf-8"?>
<!-- 
  Copyright (c) 2022, WSO2 LLC. (http://www.wso2.com). All Rights Reserved.
 
 - This software is the property of WSO2 Inc. and its suppliers, if any.
 - Dissemination of any information or reproduction of any material contained
 - herein is strictly forbidden, unless permitted by WSO2 in accordance with
 - the WSO2 Commercial License available at http://wso2.com/licenses.
 - For specific language governing the permissions and limitations under
 - this license, please see the license as well as any agreement you’ve
 - entered into with WSO2 governing the purchase of this software and any
 - associated services.
 -->
 <svg version="1.1" id="Layer_1" x="0px" y="0px" viewBox="0 0 16 16">
<path d="M12.6,0C14.5,0,16,1.5,16,3.4v9.1c0,1.9-1.5,3.4-3.4,3.4H3.4C1.5,16,0,14.5,0,12.6V3.4C0,1.5,1.5,0,3.4,0H12.6z M12.6,1.4
	H3.4c-1.1,0-2.1,0.9-2.1,2.1v9.1c0,1.1,0.9,2.1,2.1,2.1h9.1c1.1,0,2.1-0.9,2.1-2.1V3.4C14.6,2.3,13.7,1.4,12.6,1.4z M6.2,8.2
	c0.9,0,1.6,0.7,1.6,1.6v0.9c0,0.9-0.7,1.6-1.6,1.6H4.3c-0.9,0-1.6-0.7-1.6-1.6V9.8c0-0.9,0.7-1.6,1.6-1.6H6.2z M6.2,9.6H4.3
	c-0.1,0-0.2,0.1-0.2,0.2v0.9c0,0.1,0.1,0.2,0.2,0.2h1.8c0.1,0,0.2-0.1,0.2-0.2V9.8C6.4,9.7,6.3,9.6,6.2,9.6z M11.7,2.7
	c0.9,0,1.6,0.7,1.6,1.6v0.9c0,0.9-0.7,1.6-1.6,1.6H4.3c-0.9,0-1.6-0.7-1.6-1.6V4.3c0-0.9,0.7-1.6,1.6-1.6H11.7z M11.7,4.1H4.3
	c-0.1,0-0.2,0.1-0.2,0.2v0.9c0,0.1,0.1,0.2,0.2,0.2h7.3c0.1,0,0.2-0.1,0.2-0.2V4.3C11.9,4.2,11.8,4.1,11.7,4.1z"/>
</svg>
