<?xml version="1.0" encoding="utf-8"?>
<!-- 
  Copyright (c) 2022, WSO2 LLC. (http://www.wso2.com). All Rights Reserved.
 
 - This software is the property of WSO2 Inc. and its suppliers, if any.
 - Dissemination of any information or reproduction of any material contained
 - herein is strictly forbidden, unless permitted by WSO2 in accordance with
 - the WSO2 Commercial License available at http://wso2.com/licenses.
 - For specific language governing the permissions and limitations under
 - this license, please see the license as well as any agreement you’ve
 - entered into with WSO2 governing the purchase of this software and any
 - associated services.
 -->
 <svg version="1.1" id="Layer_1" x="0px" y="0px" viewBox="0 0 16 16">
<path class="st0" d="M2.5,4.3l5-2.9v3.1C7.5,4.8,7.7,5,8,5c0.3,0,0.5-0.2,0.5-0.5V1.4l5,2.9L8,7.4L2.5,4.3z M8,0l6.7,3.8
	c0,0,0.1,0,0.1,0.1L15,4v0.3c0,0,0,0,0,0V12l-7,4l-7-4V4.3c0,0,0,0,0,0V4l0.2-0.1c0,0,0.1,0,0.1-0.1L8,0z M8.5,8.3L14,5.1v5.7
	l-2.3-1.3c-0.2-0.1-0.5-0.1-0.7,0.2c-0.1,0.2-0.1,0.5,0.2,0.7l2.2,1.3l-5,2.9V8.3z M7.5,8.3v6.3l-5-2.9l2.2-1.3
	C5,10.3,5.1,10,4.9,9.8C4.8,9.5,4.5,9.4,4.3,9.6L2,10.9V5.1L7.5,8.3z"/>
</svg>
