<?xml version="1.0" encoding="utf-8"?>
<!-- 
  Copyright (c) 2022, WSO2 LLC. (http://www.wso2.com). All Rights Reserved.
 
 - This software is the property of WSO2 Inc. and its suppliers, if any.
 - Dissemination of any information or reproduction of any material contained
 - herein is strictly forbidden, unless permitted by WSO2 in accordance with
 - the WSO2 Commercial License available at http://wso2.com/licenses.
 - For specific language governing the permissions and limitations under
 - this license, please see the license as well as any agreement you’ve
 - entered into with WSO2 governing the purchase of this software and any
 - associated services.
 -->
 <svg version="1.1" id="Layer_1" x="0px" y="0px" viewBox="0 0 16 16">
<path class="st0" d="M0.5,10.6c-0.3,0-0.5-0.2-0.5-0.5V5.9l0-0.1c0-0.2,0.3-0.4,0.5-0.4c0.3,0,0.5,0.2,0.5,0.5v1.6H14L8.6,2.1L8.5,2
	C8.4,1.8,8.4,1.5,8.6,1.3c0.2-0.2,0.5-0.2,0.7,0L16,8l-6.7,6.7l-0.1,0.1c-0.2,0.1-0.5,0.1-0.7-0.1l-0.1-0.1
	c-0.1-0.2-0.1-0.5,0.1-0.7L14,8.5H1.1v1.6l0,0.1C1,10.4,0.8,10.6,0.5,10.6z"/>
</svg>
