<?xml version="1.0" encoding="utf-8"?>
<!-- 
  Copyright (c) 2022, WSO2 LLC. (http://www.wso2.com). All Rights Reserved.
 
 - This software is the property of WSO2 Inc. and its suppliers, if any.
 - Dissemination of any information or reproduction of any material contained
 - herein is strictly forbidden, unless permitted by WSO2 in accordance with
 - the WSO2 Commercial License available at http://wso2.com/licenses.
 - For specific language governing the permissions and limitations under
 - this license, please see the license as well as any agreement you’ve
 - entered into with WSO2 governing the purchase of this software and any
 - associated services.
 -->
 <svg version="1.1" id="Layer_1" x="0px" y="0px" viewBox="0 0 16 16">
<path class="st0" d="M8,15c3.9,0,7-3.1,7-7c0-3.9-3.1-7-7-7C4.1,1,1,4.1,1,8C1,11.9,4.1,15,8,15z M8,16c4.4,0,8-3.6,8-8
	c0-4.4-3.6-8-8-8C3.6,0,0,3.6,0,8C0,12.4,3.6,16,8,16z M4.5,6.5C4.5,6.2,4.7,6,5,6h6c0.3,0,0.5,0.2,0.5,0.5S11.3,7,11,7H5
	C4.7,7,4.5,6.8,4.5,6.5z M5,9C4.7,9,4.5,9.2,4.5,9.5S4.7,10,5,10h3c0.3,0,0.5-0.2,0.5-0.5S8.3,9,8,9H5z"/>
</svg>
