<?xml version="1.0" encoding="utf-8"?>
<!-- 
  Copyright (c) 2022, WSO2 LLC. (http://www.wso2.com). All Rights Reserved.
 
 - This software is the property of WSO2 Inc. and its suppliers, if any.
 - Dissemination of any information or reproduction of any material contained
 - herein is strictly forbidden, unless permitted by WSO2 in accordance with
 - the WSO2 Commercial License available at http://wso2.com/licenses.
 - For specific language governing the permissions and limitations under
 - this license, please see the license as well as any agreement you’ve
 - entered into with WSO2 governing the purchase of this software and any
 - associated services.
 -->
 <svg version="1.1" id="Layer_1" x="0px" y="0px" viewBox="0 0 16 16">
<path class="st0" d="M15,8c0,3.9-3.1,7-7,7c-3.9,0-7-3.1-7-7c0-3.9,3.1-7,7-7C11.9,1,15,4.1,15,8z M16,8c0,4.4-3.6,8-8,8
	c-4.4,0-8-3.6-8-8c0-4.4,3.6-8,8-8C12.4,0,16,3.6,16,8z M8.3,10.5h-1l0,0c0-0.4,0.1-0.8,0.3-1.2C7.7,9,7.9,8.7,8.2,8.4
	C8.4,8.2,8.7,8,8.9,7.8c0.2-0.2,0.4-0.4,0.6-0.7c0.2-0.2,0.3-0.5,0.3-0.8c0-0.5-0.2-0.9-0.5-1.2C9,4.8,8.5,4.7,8,4.7
	c-0.6,0-1,0.2-1.4,0.5C6.2,5.5,6,5.9,5.9,6.5L4.9,6.2c0.1-0.7,0.5-1.3,1-1.8C6.5,4,7.1,3.7,8,3.7c0.8,0,1.5,0.2,2,0.7
	c0.5,0.5,0.8,1.1,0.8,1.8c0,0.4-0.1,0.7-0.3,1c-0.2,0.3-0.4,0.6-0.6,0.8C9.7,8.3,9.4,8.5,9.2,8.8C9,9,8.7,9.2,8.6,9.5
	C8.4,9.8,8.3,10.1,8.3,10.5z M8.3,12.9C8.2,13,8,13.1,7.8,13.1S7.4,13,7.3,12.9c-0.1-0.1-0.2-0.3-0.2-0.5c0-0.2,0.1-0.4,0.2-0.5
	c0.1-0.1,0.3-0.2,0.5-0.2s0.4,0.1,0.5,0.2c0.1,0.1,0.2,0.3,0.2,0.5C8.5,12.6,8.5,12.7,8.3,12.9z"/>
</svg>
