<?xml version="1.0" encoding="utf-8"?>
<!-- 
  Copyright (c) 2022, WSO2 LLC. (http://www.wso2.com). All Rights Reserved.
 
 - This software is the property of WSO2 Inc. and its suppliers, if any.
 - Dissemination of any information or reproduction of any material contained
 - herein is strictly forbidden, unless permitted by WSO2 in accordance with
 - the WSO2 Commercial License available at http://wso2.com/licenses.
 - For specific language governing the permissions and limitations under
 - this license, please see the license as well as any agreement you’ve
 - entered into with WSO2 governing the purchase of this software and any
 - associated services.
 -->
 <svg version="1.1" id="Layer_1" x="0px" y="0px" viewBox="0 0 16 16">
<path d="M15.2,0.4c-0.5,0-0.8,0.4-0.8,0.8v13.6c0,0.5,0.4,0.8,0.8,0.8s0.8-0.4,0.8-0.8V1.2C16,0.7,15.6,0.4,15.2,0.4z M7,1L7,1L0,8
	l6.9,6.9c0.2,0.2,0.6,0.2,0.8,0c0.2-0.2,0.2-0.5,0.1-0.7l-0.1-0.1L2.1,8.5l10.6,0c0.3,0,0.5-0.2,0.5-0.5c0-0.3-0.2-0.5-0.4-0.5
	l-0.1,0l-10.6,0l5.6-5.6c0.2-0.2,0.2-0.5,0.1-0.7L7.7,1.1C7.5,0.9,7.3,0.9,7,1L7,1z"/>
</svg>
