<?xml version="1.0" encoding="utf-8"?>
<!-- 
  Copyright (c) 2022, WSO2 LLC. (http://www.wso2.com). All Rights Reserved.
 
 - This software is the property of WSO2 Inc. and its suppliers, if any.
 - Dissemination of any information or reproduction of any material contained
 - herein is strictly forbidden, unless permitted by WSO2 in accordance with
 - the WSO2 Commercial License available at http://wso2.com/licenses.
 - For specific language governing the permissions and limitations under
 - this license, please see the license as well as any agreement you’ve
 - entered into with WSO2 governing the purchase of this software and any
 - associated services.
 -->
 <svg version="1.1" id="Layer_1" x="0px" y="0px" viewBox="0 0 16 16">
<path d="M3.1,15.6C2,12.4,1.5,9.8,1.5,8S2,3.6,3.1,0.4C3.1,0.2,3,0.1,2.9,0c0,0-0.1,0-0.1,0H2.1C0.7,2.3,0,5,0,8
	c0,2.9,0.7,5.6,2.1,8h0.7C3,16,3.1,15.9,3.1,15.6C3.1,15.7,3.1,15.6,3.1,15.6z M5,12c0.5,0,0.9-0.2,1.3-0.6c0.2-0.3,0.6-0.8,1.1-1.7
	l0.1-0.2c0,0.1,0.1,0.3,0.2,0.6C7.8,10.6,7.9,10.8,8,11c0.1,0.3,0.2,0.5,0.3,0.6C8.5,11.9,8.8,12,9.2,12c0.4,0,0.9-0.2,1.3-0.6
	c0.4-0.4,0.8-0.8,1.1-1.3l-0.3-0.2c-0.2,0.3-0.4,0.5-0.5,0.6c-0.2,0.2-0.4,0.3-0.5,0.3c-0.2,0-0.3-0.1-0.4-0.2
	c-0.1-0.1-0.2-0.3-0.3-0.6C9.5,9.8,9.4,9.6,9.4,9.3c-0.1-0.2-0.1-0.6-0.2-1L9,7.6C9.5,7,9.8,6.6,10,6.4c0.2-0.2,0.4-0.3,0.6-0.3
	c0.1,0,0.2,0.1,0.4,0.2c0.2,0.1,0.4,0.2,0.5,0.2c0.2,0,0.5-0.1,0.6-0.3c0.2-0.2,0.3-0.4,0.3-0.6c0-0.2,0-0.4-0.1-0.5
	c-0.2-0.3-0.4-0.4-0.9-0.4c-0.3,0-0.7,0.2-1.1,0.5C9.9,5.5,9.5,6,8.9,6.8L8.8,6.3C8.7,6,8.6,5.7,8.5,5.4C8.4,5.1,8.3,4.8,8.1,4.6
	C8,4.7,7.6,4.7,7,4.8C6.4,4.9,5.9,5,5.4,5v0.4c0.1,0,0.2,0,0.3,0c0.1,0,0.2,0,0.2,0c0.3,0,0.4,0,0.5,0.1C6.7,5.7,6.8,6,6.9,6.5
	L7,7.1C7.1,7.4,7.2,7.7,7.2,8c0.1,0.3,0.1,0.6,0.2,0.8L7.1,9.3c-0.3,0.5-0.6,0.9-0.7,1c-0.1,0.1-0.3,0.2-0.4,0.2
	c-0.1,0-0.2-0.1-0.5-0.2c-0.2-0.1-0.4-0.2-0.6-0.2c-0.3,0-0.5,0.1-0.6,0.3C4.1,10.7,4,10.9,4,11.1c0,0.3,0.1,0.5,0.3,0.7
	C4.5,11.9,4.8,12,5,12z M12.9,15.6c1-3.2,1.6-5.8,1.6-7.6S14,3.6,12.9,0.4c-0.1-0.2,0-0.3,0.2-0.4c0,0,0.1,0,0.1,0h0.7
	C15.3,2.3,16,5,16,8c0,2.9-0.7,5.6-2.1,8h-0.7C13,16,12.9,15.9,12.9,15.6C12.9,15.7,12.9,15.6,12.9,15.6z"/>
</svg>
