<?xml version="1.0" encoding="utf-8"?>
<!-- 
  Copyright (c) 2022, WSO2 LLC. (http://www.wso2.com). All Rights Reserved.
 
 - This software is the property of WSO2 Inc. and its suppliers, if any.
 - Dissemination of any information or reproduction of any material contained
 - herein is strictly forbidden, unless permitted by WSO2 in accordance with
 - the WSO2 Commercial License available at http://wso2.com/licenses.
 - For specific language governing the permissions and limitations under
 - this license, please see the license as well as any agreement you’ve
 - entered into with WSO2 governing the purchase of this software and any
 - associated services.
 -->
 <svg version="1.1" id="Layer_1" x="0px" y="0px" viewBox="0 0 16 16">
<path d="M15.7-1l-0.9,1.2C14.2,0.9,14,1.6,14,2.3c0,0.6,0.2,1.2,0.6,1.8l1.4,0V17H3.4c-1.8,0-3.3-1.4-3.3-3.2l0-0.2V2.3l0-0.2
	C0.1,0.4,1.5-0.9,3.2-1l0.2,0H15.7z M7.1,11.6H4.9l-0.1,0c-0.4,0.1-0.7,0.4-0.7,0.8c0,0.4,0.3,0.8,0.8,0.8h2.2l0.1,0
	c0.4-0.1,0.7-0.4,0.7-0.8C7.8,12,7.5,11.6,7.1,11.6z M11.2,8H4.9L4.8,8C4.4,8.1,4.1,8.4,4.1,8.8c0,0.4,0.3,0.8,0.8,0.8h6.3l0.1,0
	C11.7,9.5,12,9.2,12,8.8C12,8.4,11.6,8,11.2,8z M12.8,0.5H3.4C2.5,0.5,1.7,1.2,1.6,2l0,0.2l0,0.1c0,0.9,0.7,1.7,1.7,1.8l0.1,0h9.5
	l-0.1-0.3c-0.1-0.3-0.2-0.7-0.3-1l0-0.3l0-0.3C12.4,1.7,12.6,1.1,12.8,0.5z"/>
</svg>
