<?xml version="1.0" encoding="utf-8"?>
<!-- 
  Copyright (c) 2022, WSO2 LLC. (http://www.wso2.com). All Rights Reserved.
 
 - This software is the property of WSO2 Inc. and its suppliers, if any.
 - Dissemination of any information or reproduction of any material contained
 - herein is strictly forbidden, unless permitted by WSO2 in accordance with
 - the WSO2 Commercial License available at http://wso2.com/licenses.
 - For specific language governing the permissions and limitations under
 - this license, please see the license as well as any agreement you’ve
 - entered into with WSO2 governing the purchase of this software and any
 - associated services.
 -->
 <svg version="1.1" id="Layer_1" x="0px" y="0px" viewBox="0 0 16 16">
<path class="st0" d="M0,3.3C0,3.1,0.1,2.9,0.3,2.8l0.1,0C0.6,2.7,0.9,2.8,1,3L2.2,6c0.6-2.1,2.3-3.9,4.5-4.6c3.7-1.3,7.7,0.7,9,4.4
	c1.3,3.7-0.7,7.7-4.4,9c-1.7,0.6-3.6,0.5-5.2-0.3c-0.8-0.4-1.5-0.9-2.2-1.5c-0.2-0.2-0.2-0.5,0-0.7c0.2-0.2,0.5-0.2,0.7,0
	c0.5,0.6,1.2,1,1.9,1.3c1.4,0.6,3,0.7,4.5,0.2c3.2-1.1,4.8-4.5,3.7-7.7C13.6,2.9,10.1,1.2,7,2.3C5.1,2.9,3.8,4.4,3.2,6.2L5.9,5L6,5
	C6.2,5,6.5,5.1,6.6,5.3c0.1,0.3,0,0.6-0.3,0.7L1.9,7.8L0,3.3L0,3.3z"/>
</svg>
