<?xml version="1.0" encoding="utf-8"?>
<!-- 
  Copyright (c) 2022, WSO2 LLC. (http://www.wso2.com). All Rights Reserved.
 
 - This software is the property of WSO2 Inc. and its suppliers, if any.
 - Dissemination of any information or reproduction of any material contained
 - herein is strictly forbidden, unless permitted by WSO2 in accordance with
 - the WSO2 Commercial License available at http://wso2.com/licenses.
 - For specific language governing the permissions and limitations under
 - this license, please see the license as well as any agreement you’ve
 - entered into with WSO2 governing the purchase of this software and any
 - associated services.
 -->
 <svg version="1.1" id="Layer_1" x="0px" y="0px" viewBox="0 0 16 16">
<path class="st0" d="M5.4,3.4c0-0.4-0.3-0.8-0.8-0.8c-0.4,0-0.8,0.3-0.8,0.8v2.1v1.3v1c0,0.3-0.2,0.5-0.5,0.5S2.8,8,2.8,7.7v-1V5.4
	c0-0.4-0.3-0.8-0.8-0.8S1.3,5,1.3,5.4v4.2v0.7v1.3c0,0.3,0.1,0.7,0.2,1l-0.8,0.8c-0.3-0.5-0.5-1.1-0.5-1.8v-1.3V9.6V5.4
	c0-1,0.8-1.8,1.8-1.8c0.3,0,0.5,0.1,0.8,0.2V3.4c0-1,0.8-1.8,1.8-1.8c0.3,0,0.5,0.1,0.8,0.2c0-1,0.8-1.7,1.8-1.7C8.2,0,9,0.8,9,1.7
	c0.2-0.1,0.5-0.2,0.8-0.2c0.7,0,1.4,0.4,1.6,1.1l-0.9,0.9V3.4c0-0.4-0.3-0.8-0.8-0.8C9.4,2.6,9,2.9,9,3.4V5l-1,1V5.7V3.4V1.8
	C8,1.4,7.7,1,7.2,1C6.8,1,6.5,1.4,6.5,1.8v1.5v3.9v0.4L5.8,8.2C5.6,8.2,5.4,8,5.4,7.7V7.2V3.4z M3.7,14.7C4,14.9,4.3,15,4.6,15h3.1
	h1.9c0.7,0,1.4-0.3,1.9-0.7l2.9-2.7c0.2-0.2,0.3-0.5,0.2-0.8c-0.1-0.5-0.7-0.8-1.2-0.5l-1.9,1c-0.4,0.2-0.9-0.1-0.9-0.5V8.8V7.9l1-1
	v0.4v1.5v1.2l1.3-0.6c1-0.5,2.3,0,2.6,1.2c0.2,0.7,0,1.4-0.5,1.8L12.1,15c-0.7,0.7-1.6,1-2.6,1H7.7H4.6c-0.6,0-1.1-0.2-1.5-0.5
	l-0.1,0L3.7,14.7z M1.1,15.8L15.6,1.4c0.2-0.2,0.2-0.5,0-0.7c-0.2-0.2-0.5-0.2-0.7,0L0.4,15.1c-0.2,0.2-0.2,0.5,0,0.7
	C0.5,15.9,0.6,16,0.8,16S1,15.9,1.1,15.8z"/>
</svg>
