<?xml version="1.0" encoding="utf-8"?>
<!-- 
  Copyright (c) 2022, WSO2 LLC. (http://www.wso2.com). All Rights Reserved.
 
 - This software is the property of WSO2 Inc. and its suppliers, if any.
 - Dissemination of any information or reproduction of any material contained
 - herein is strictly forbidden, unless permitted by WSO2 in accordance with
 - the WSO2 Commercial License available at http://wso2.com/licenses.
 - For specific language governing the permissions and limitations under
 - this license, please see the license as well as any agreement you’ve
 - entered into with WSO2 governing the purchase of this software and any
 - associated services.
 -->
 <svg version="1.1" id="Layer_1" x="0px" y="0px" viewBox="0 0 16 16">
<path d="M3.8,0.4L3.8,0.4C1.8,0.4,0.2,2,0.2,4v0c0,2,1.6,3.5,3.5,3.5h0c2,0,3.5-1.6,3.5-3.5v0C7.3,2,5.8,0.4,3.8,0.4z M9.5,0
	C9.1,0,8.7,0.4,8.7,0.8v6.3c0,0.1,0,0.3,0.1,0.4C9,7.9,9.5,8,9.9,7.8l5.4-3.1c0.1-0.1,0.2-0.2,0.3-0.3c0.2-0.4,0.1-0.9-0.3-1.1
	L9.9,0.1C9.8,0,9.7,0,9.5,0z M10.1,1.9l3.6,2.1L10.1,6V1.9z M3.7,8.9L3.7,8.9c-2,0-3.5,1.6-3.5,3.5v0c0,2,1.6,3.5,3.5,3.5h0
	c2,0,3.5-1.6,3.5-3.5v0C7.3,10.5,5.7,8.9,3.7,8.9z M12.3,8.9L12.3,8.9c-2,0-3.5,1.6-3.5,3.5v0c0,2,1.6,3.5,3.5,3.5h0
	c2,0,3.5-1.6,3.5-3.5v0C15.8,10.5,14.2,8.9,12.3,8.9z"/>
</svg>
