<?xml version="1.0" encoding="utf-8"?>
<!-- 
  Copyright (c) 2022, WSO2 LLC. (http://www.wso2.com). All Rights Reserved.
 
 - This software is the property of WSO2 Inc. and its suppliers, if any.
 - Dissemination of any information or reproduction of any material contained
 - herein is strictly forbidden, unless permitted by WSO2 in accordance with
 - the WSO2 Commercial License available at http://wso2.com/licenses.
 - For specific language governing the permissions and limitations under
 - this license, please see the license as well as any agreement you’ve
 - entered into with WSO2 governing the purchase of this software and any
 - associated services.
 -->
 <svg version="1.1" id="Layer_1" x="0px" y="0px" viewBox="0 0 16 16">
<path d="M3.5,1C4.9,1,6,2.1,6,3.5c0,1.2-0.9,2.2-2,2.4v4.1c1.1,0.2,2,1.2,2,2.4C6,13.9,4.9,15,3.5,15S1,13.9,1,12.5
	c0-1.2,0.9-2.2,2-2.5V6C1.9,5.7,1,4.7,1,3.5C1,2.1,2.1,1,3.5,1z M3.5,11C2.7,11,2,11.7,2,12.5C2,13.3,2.7,14,3.5,14S5,13.3,5,12.5
	C5,11.7,4.3,11,3.5,11z M3.5,2C2.7,2,2,2.7,2,3.5C2,4.3,2.7,5,3.5,5S5,4.3,5,3.5C5,2.7,4.3,2,3.5,2z M9.9,5.1C10,5.3,10,5.6,9.9,5.8
	L9.9,5.9C9.7,6,9.4,6,9.2,5.9L9.1,5.9L6.8,3.5l2.4-2.4C9.3,1,9.7,1,9.9,1.1C10,1.3,10,1.6,9.9,1.8L9.9,1.9L8.7,3h0.8
	c1.9,0,3.4,1.5,3.5,3.3l0,0.2l0,3.6c1.1,0.2,2,1.2,2,2.4c0,1.4-1.1,2.5-2.5,2.5S10,13.9,10,12.5c0-1.2,0.9-2.2,2-2.5l0-3.5
	c0-1.3-1-2.4-2.3-2.5L9.5,4H8.7L9.9,5.1z M12.5,11c-0.8,0-1.5,0.7-1.5,1.5c0,0.8,0.7,1.5,1.5,1.5s1.5-0.7,1.5-1.5
	C14,11.7,13.3,11,12.5,11z"/>
</svg>
