<?xml version="1.0" encoding="utf-8"?>
<!-- 
  Copyright (c) 2022, WSO2 LLC. (http://www.wso2.com). All Rights Reserved.
 
 - This software is the property of WSO2 Inc. and its suppliers, if any.
 - Dissemination of any information or reproduction of any material contained
 - herein is strictly forbidden, unless permitted by WSO2 in accordance with
 - the WSO2 Commercial License available at http://wso2.com/licenses.
 - For specific language governing the permissions and limitations under
 - this license, please see the license as well as any agreement you’ve
 - entered into with WSO2 governing the purchase of this software and any
 - associated services.
 -->
 <svg version="1.1" id="Layer_1" x="0px" y="0px" viewBox="0 0 16 16">
<path class="st0" d="M14.4,5.9c0.3,0.2,0.3,0.6,0,0.8L8.6,11c-0.4,0.3-0.8,0.3-1.2,0L1.6,6.7c-0.3-0.2-0.3-0.6,0-0.8l5.8-4.3
	c0.4-0.3,0.8-0.3,1.2,0L14.4,5.9z M15,7.5c0.8-0.6,0.8-1.8,0-2.4L9.2,0.8c-0.7-0.5-1.7-0.5-2.4,0L1,5.1C0.2,5.7,0.2,6.9,1,7.5
	l5.8,4.3c0.7,0.5,1.7,0.5,2.4,0L15,7.5z M15.1,10.7c0.2-0.2,0.3-0.5,0.1-0.7c-0.2-0.2-0.5-0.3-0.7-0.1L8.9,14
	c-0.5,0.4-1.3,0.4-1.8,0L1.5,9.9C1.3,9.7,1,9.8,0.8,10c-0.2,0.2-0.1,0.5,0.1,0.7l5.6,4.1c0.9,0.7,2.1,0.7,3,0L15.1,10.7z"/>
</svg>
