<?xml version="1.0" encoding="utf-8"?>
<!-- 
  Copyright (c) 2022, WSO2 LLC. (http://www.wso2.com). All Rights Reserved.
 
 - This software is the property of WSO2 Inc. and its suppliers, if any.
 - Dissemination of any information or reproduction of any material contained
 - herein is strictly forbidden, unless permitted by WSO2 in accordance with
 - the WSO2 Commercial License available at http://wso2.com/licenses.
 - For specific language governing the permissions and limitations under
 - this license, please see the license as well as any agreement you’ve
 - entered into with WSO2 governing the purchase of this software and any
 - associated services.
 -->
 <svg version="1.1" id="Layer_1" x="0px" y="0px" viewBox="0 0 16 16">
<path d="M8,0c4.4,0,8,3.6,8,8v8H8c-4.4,0-8-3.6-8-8C0,3.6,3.6,0,8,0z M8,1C4.1,1,1,4.1,1,8c0,3.9,3.1,7,7,7h7V8c0-3.8-3-6.9-6.8-7
	L8,1z M5.5,6.5C6.3,6.5,7,7.2,7,8S6.3,9.5,5.5,9.5S4,8.8,4,8S4.7,6.5,5.5,6.5z M10.5,6.5C11.3,6.5,12,7.2,12,8s-0.7,1.5-1.5,1.5
	C9.7,9.5,9,8.8,9,8S9.7,6.5,10.5,6.5z"/>
</svg>
