<?xml version="1.0" encoding="utf-8"?>
<!-- 
  Copyright (c) 2022, WSO2 LLC. (http://www.wso2.com). All Rights Reserved.
 
 - This software is the property of WSO2 Inc. and its suppliers, if any.
 - Dissemination of any information or reproduction of any material contained
 - herein is strictly forbidden, unless permitted by WSO2 in accordance with
 - the WSO2 Commercial License available at http://wso2.com/licenses.
 - For specific language governing the permissions and limitations under
 - this license, please see the license as well as any agreement you’ve
 - entered into with WSO2 governing the purchase of this software and any
 - associated services.
 -->
 <svg version="1.1" id="Layer_1" x="0px" y="0px" viewBox="0 0 16 16">
<path class="st0" d="M0.3,2.8C0.1,2.9,0,3.1,0,3.3l0,0.1l1.9,4.4L6.3,6c0.3-0.1,0.4-0.4,0.3-0.7C6.5,5.1,6.2,5,6,5L5.9,5L3.2,6.2
	c0.6-1.8,2-3.3,3.8-3.9c3.2-1.1,6.6,0.6,7.7,3.7c1.1,3.2-0.6,6.6-3.7,7.7c-1.5,0.5-3.1,0.4-4.5-0.2c-0.7-0.3-1.3-0.8-1.9-1.3
	c-0.2-0.2-0.5-0.2-0.7,0c-0.2,0.2-0.2,0.5,0,0.7C4.5,13.5,5.2,14,6,14.4c1.6,0.7,3.5,0.9,5.2,0.3c3.7-1.3,5.6-5.3,4.4-9
	c-1.3-3.7-5.3-5.6-9-4.4C4.5,2.1,2.9,3.8,2.2,6L1,3C0.9,2.8,0.6,2.7,0.3,2.8L0.3,2.8z M11.8,4.8c0.2-0.2,0.2-0.5,0-0.7
	c-0.2-0.2-0.5-0.2-0.7,0L8.6,6.6L8.4,6.8V7v5c0,0.3,0.2,0.5,0.5,0.5c0.3,0,0.5-0.2,0.5-0.5V7.2L11.8,4.8z"/>
</svg>
