<?xml version="1.0" encoding="utf-8"?>
<!-- 
  Copyright (c) 2022, WSO2 LLC. (http://www.wso2.com). All Rights Reserved.
 
 - This software is the property of WSO2 Inc. and its suppliers, if any.
 - Dissemination of any information or reproduction of any material contained
 - herein is strictly forbidden, unless permitted by WSO2 in accordance with
 - the WSO2 Commercial License available at http://wso2.com/licenses.
 - For specific language governing the permissions and limitations under
 - this license, please see the license as well as any agreement you’ve
 - entered into with WSO2 governing the purchase of this software and any
 - associated services.
 -->
 <svg version="1.1" id="Layer_1" x="0px" y="0px" viewBox="0 0 16 16">
<path class="st0" d="M8.3,0.5C8.3,0.2,8.1,0,7.8,0C7.5,0,7.2,0.2,7.2,0.5v5.6l0,0.1c0,0.3,0.3,0.5,0.5,0.5c0.3,0,0.5-0.2,0.5-0.5
	L8.3,0.5L8.3,0.5z M4.7,3L4.5,6.2c0,0.3-0.3,0.5-0.6,0.5c-0.3,0-0.5-0.2-0.5-0.5l0-0.1L3.5,5C2.6,6.1,2.1,7.5,2.1,9
	c0,3.3,2.7,5.9,5.9,5.9s5.9-2.7,5.9-5.9c0-1.8-0.9-3.5-2.3-4.7c-0.2-0.2-0.3-0.5-0.1-0.8c0.2-0.2,0.5-0.3,0.8-0.1
	C14,4.8,15,6.8,15,9c0,3.9-3.1,7-7,7c-3.9,0-7-3.1-7-7c0-1.9,0.7-3.7,2-5L1.5,4C1.2,4,1,3.8,1,3.5l0-0.1c0-0.3,0.2-0.5,0.5-0.5
	l0.1,0L4.7,3z"/>
</svg>
