<?xml version="1.0" encoding="utf-8"?>
<!-- 
  Copyright (c) 2022, WSO2 LLC. (http://www.wso2.com). All Rights Reserved.
 
 - This software is the property of WSO2 Inc. and its suppliers, if any.
 - Dissemination of any information or reproduction of any material contained
 - herein is strictly forbidden, unless permitted by WSO2 in accordance with
 - the WSO2 Commercial License available at http://wso2.com/licenses.
 - For specific language governing the permissions and limitations under
 - this license, please see the license as well as any agreement you’ve
 - entered into with WSO2 governing the purchase of this software and any
 - associated services.
 -->
 <svg version="1.1" id="Layer_1" x="0px" y="0px" viewBox="0 0 16 16">
<path d="M8,0c4.4,0,8,3.6,8,8c0,4.4-3.6,8-8,8c-4.4,0-8-3.6-8-8C0,3.6,3.6,0,8,0z M8,1C4.1,1,1,4.1,1,8c0,3.9,3.1,7,7,7
	c3.9,0,7-3.1,7-7C15,4.1,11.9,1,8,1z M7.5,4c0.3,0.3,0.3,0.7,0.1,1L7.5,5l-3,3l3,3c0.3,0.3,0.3,0.7,0.1,1L7.5,12
	c-0.3,0.3-0.7,0.3-1,0.1L6.5,12l-4-4l4-4C6.8,3.7,7.2,3.7,7.5,4z M12,4c0.3,0.3,0.3,0.7,0.1,1L12,5l-3,3l3,3c0.3,0.3,0.3,0.7,0.1,1
	L12,12c-0.3,0.3-0.7,0.3-1,0.1L11,12l-4-4l4-4C11.3,3.7,11.7,3.7,12,4z"/>
</svg>
