<?xml version="1.0" encoding="utf-8"?>
<!-- 
  Copyright (c) 2022, WSO2 LLC. (http://www.wso2.com). All Rights Reserved.
 
 - This software is the property of WSO2 Inc. and its suppliers, if any.
 - Dissemination of any information or reproduction of any material contained
 - herein is strictly forbidden, unless permitted by WSO2 in accordance with
 - the WSO2 Commercial License available at http://wso2.com/licenses.
 - For specific language governing the permissions and limitations under
 - this license, please see the license as well as any agreement you’ve
 - entered into with WSO2 governing the purchase of this software and any
 - associated services.
 -->
 <svg version="1.1" id="Layer_1" x="0px" y="0px" viewBox="0 0 16 16">
<path class="st0" d="M2.5,5.8l3.9-3.2v3.2v3.2L2.5,5.8z M7.5,5.2V1.9c0-0.6-0.7-1-1.2-0.6L1.5,5.2C1.1,5.5,1.1,6,1.5,6.3l4.8,3.8
	c0.5,0.4,1.2,0,1.2-0.6V6.3h3.7c2.1,0,3.7,1.7,3.7,3.7c0,2.1-1.7,3.7-3.7,3.7H0.5C0.2,13.8,0,14,0,14.3s0.2,0.5,0.5,0.5h10.7
	c2.7,0,4.8-2.1,4.8-4.8c0-2.7-2.1-4.8-4.8-4.8H7.5z"/>
</svg>
