<?xml version="1.0" encoding="utf-8"?>
<!-- 
  Copyright (c) 2022, WSO2 LLC. (http://www.wso2.com). All Rights Reserved.
 
 - This software is the property of WSO2 Inc. and its suppliers, if any.
 - Dissemination of any information or reproduction of any material contained
 - herein is strictly forbidden, unless permitted by WSO2 in accordance with
 - the WSO2 Commercial License available at http://wso2.com/licenses.
 - For specific language governing the permissions and limitations under
 - this license, please see the license as well as any agreement you’ve
 - entered into with WSO2 governing the purchase of this software and any
 - associated services.
 -->
 <svg version="1.1" id="Layer_1" x="0px" y="0px" viewBox="0 0 16 16">
<path class="st0" d="M0,2c0-0.3,0.2-0.5,0.5-0.5h15C15.8,1.5,16,1.7,16,2s-0.2,0.5-0.5,0.5h-15C0.2,2.5,0,2.3,0,2z M0,8
	c0-0.3,0.2-0.5,0.5-0.5h15C15.8,7.5,16,7.7,16,8s-0.2,0.5-0.5,0.5h-15C0.2,8.5,0,8.3,0,8z M0.5,13.5C0.2,13.5,0,13.7,0,14
	s0.2,0.5,0.5,0.5h15c0.3,0,0.5-0.2,0.5-0.5s-0.2-0.5-0.5-0.5H0.5z"/>
</svg>
