<?xml version="1.0" encoding="utf-8"?>
<!-- 
  Copyright (c) 2022, WSO2 LLC. (http://www.wso2.com). All Rights Reserved.
 
 - This software is the property of WSO2 Inc. and its suppliers, if any.
 - Dissemination of any information or reproduction of any material contained
 - herein is strictly forbidden, unless permitted by WSO2 in accordance with
 - the WSO2 Commercial License available at http://wso2.com/licenses.
 - For specific language governing the permissions and limitations under
 - this license, please see the license as well as any agreement you’ve
 - entered into with WSO2 governing the purchase of this software and any
 - associated services.
 -->
 <svg version="1.1" id="Layer_1" x="0px" y="0px" viewBox="0 0 16 16">
<path class="st0" d="M5.5,0h-2C2.1,0,1,1.1,1,2.5v2C1,5.9,2.1,7,3.5,7h2C6.9,7,8,5.9,8,4.5v-2C8,1.1,6.9,0,5.5,0z M3.5,1h2
	C6.3,1,7,1.7,7,2.5v2C7,5.3,6.3,6,5.5,6h-2C2.7,6,2,5.3,2,4.5v-2C2,1.7,2.7,1,3.5,1z M5.5,8h-3C1.1,8,0,9.1,0,10.5v3
	C0,14.9,1.1,16,2.5,16h3C6.9,16,8,14.9,8,13.5v-3C8,9.1,6.9,8,5.5,8z M2.5,9h3C6.3,9,7,9.7,7,10.5v3C7,14.3,6.3,15,5.5,15h-3
	C1.7,15,1,14.3,1,13.5v-3C1,9.7,1.7,9,2.5,9z M11.5,0h2C14.9,0,16,1.1,16,2.5v2C16,5.9,14.9,7,13.5,7h-2C10.1,7,9,5.9,9,4.5v-2
	C9,1.1,10.1,0,11.5,0z M13.5,1h-2C10.7,1,10,1.7,10,2.5v2C10,5.3,10.7,6,11.5,6h2C14.3,6,15,5.3,15,4.5v-2C15,1.7,14.3,1,13.5,1z
	 M13.5,8h-2C10.1,8,9,9.1,9,10.5v2c0,1.4,1.1,2.5,2.5,2.5h2c1.4,0,2.5-1.1,2.5-2.5v-2C16,9.1,14.9,8,13.5,8z M11.5,9h2
	c0.8,0,1.5,0.7,1.5,1.5v2c0,0.8-0.7,1.5-1.5,1.5h-2c-0.8,0-1.5-0.7-1.5-1.5v-2C10,9.7,10.7,9,11.5,9z"/>
</svg>
