<?xml version="1.0" encoding="utf-8"?>
<!-- 
  Copyright (c) 2022, WSO2 LLC. (http://www.wso2.com). All Rights Reserved.
 
 - This software is the property of WSO2 Inc. and its suppliers, if any.
 - Dissemination of any information or reproduction of any material contained
 - herein is strictly forbidden, unless permitted by WSO2 in accordance with
 - the WSO2 Commercial License available at http://wso2.com/licenses.
 - For specific language governing the permissions and limitations under
 - this license, please see the license as well as any agreement you’ve
 - entered into with WSO2 governing the purchase of this software and any
 - associated services.
 -->
 <svg version="1.1" id="Layer_1" x="0px" y="0px" viewBox="0 0 16 16">
<path class="st0" d="M7.1,1c2.1,0,3.9,1.5,4.2,3.5l0,0.1l0.9,0c2,0,3.7,1.5,3.8,3.5l0,0.2c0,2-1.7,3.7-3.8,3.7
	c-0.3,0-0.5-0.2-0.5-0.5s0.2-0.5,0.5-0.5c1.5,0,2.8-1.2,2.8-2.7c0-1.4-1.2-2.6-2.6-2.7l-0.2,0h-1.9V5.1C10.3,3.4,8.9,2,7.1,2
	c-1.7,0-3.1,1.3-3.2,3l0,0.2l0,0.5L3.4,5.6C2,5.8,1,6.9,1,8.3C1,9.8,2.2,11,3.8,11c0.3,0,0.5,0.2,0.5,0.5S4.1,12,3.8,12
	C1.7,12,0,10.3,0,8.3c0-1.6,1.1-3.1,2.7-3.5l0.2,0l0,0c0.2-2,1.9-3.6,4-3.7L7.1,1z M7.5,8.7v5.9l0,0.1C7.6,14.9,7.8,15,8,15
	c0.3,0,0.5-0.2,0.5-0.5V8.7l1.7,1.7l0.1,0.1c0.2,0.1,0.5,0.1,0.6-0.1c0.2-0.2,0.2-0.5,0-0.7L8.4,7.1c0,0,0,0,0,0L8,6.8L7.6,7.1
	c0,0,0,0,0,0L5.1,9.7L5,9.7c-0.1,0.2-0.1,0.5,0.1,0.6l0.1,0.1c0.2,0.1,0.5,0.1,0.6-0.1L7.5,8.7z"/>
</svg>
