<?xml version="1.0" encoding="utf-8"?>
<!-- 
  Copyright (c) 2022, WSO2 LLC. (http://www.wso2.com). All Rights Reserved.
 
 - This software is the property of WSO2 Inc. and its suppliers, if any.
 - Dissemination of any information or reproduction of any material contained
 - herein is strictly forbidden, unless permitted by WSO2 in accordance with
 - the WSO2 Commercial License available at http://wso2.com/licenses.
 - For specific language governing the permissions and limitations under
 - this license, please see the license as well as any agreement you’ve
 - entered into with WSO2 governing the purchase of this software and any
 - associated services.
 -->
 <svg version="1.1" id="Layer_1" x="0px" y="0px" viewBox="0 0 16 16">
<path class="st0" d="M15,0.8c-1-1-2.7-1-3.7,0L6.1,5.9L5.9,6.2C5.7,6.4,5.6,6.6,5.6,6.9v2.6c0,0.4,0.3,0.7,0.7,0.7h2.6
	c0.3,0,0.5-0.1,0.7-0.3l0.2-0.2L15,4.5C16,3.5,16,1.8,15,0.8z M12,1.5c0.6-0.6,1.6-0.6,2.2,0c0.6,0.6,0.6,1.6,0,2.2L9.5,8.6L7.2,6.3
	L12,1.5z M6.6,9.1h1.9L6.6,7.2L6.6,9.1z M4,10.2c0.3,0,0.5,0.2,0.5,0.5c0,0.3-0.2,0.5-0.5,0.5H2.1c-0.4,0-0.8,0.4-0.8,0.8
	s0.4,0.8,0.8,0.8h10.3c0.9,0,1.6,0.7,1.6,1.6c0,0.9-0.7,1.6-1.6,1.6H7.6c-0.3,0-0.5-0.2-0.5-0.5c0-0.3,0.2-0.5,0.5-0.5h4.7
	c0.3,0,0.5-0.2,0.5-0.5c0-0.3-0.2-0.5-0.5-0.5H2.1c-1,0-1.8-0.8-1.8-1.8s0.8-1.8,1.8-1.8H4z"/>
</svg>
