<?xml version="1.0" encoding="utf-8"?>
<!-- 
  Copyright (c) 2022, WSO2 LLC. (http://www.wso2.com). All Rights Reserved.
 
 - This software is the property of WSO2 Inc. and its suppliers, if any.
 - Dissemination of any information or reproduction of any material contained
 - herein is strictly forbidden, unless permitted by WSO2 in accordance with
 - the WSO2 Commercial License available at http://wso2.com/licenses.
 - For specific language governing the permissions and limitations under
 - this license, please see the license as well as any agreement you’ve
 - entered into with WSO2 governing the purchase of this software and any
 - associated services.
 -->
 <svg version="1.1" id="Layer_1" x="0px" y="0px" viewBox="0 0 16 16">
<path class="st0" d="M4.4,0.6c-1.5,0-2.8,1.2-2.8,2.8V11H1.1v1.1h0.6h1.1h5.5v1.1c0,0.4,0.1,0.8,0.3,1.1H3.3H2.2
	c-0.6,0-1.1-0.5-1.1-1.1V11H0v2.2c0,1.2,1,2.2,2.2,2.2h1.1h7.2c1.2,0,2.2-1,2.2-2.2V6.1h2.2H16V5V2.8c0-1.2-1-2.2-2.2-2.2H4.4z
	 M9.4,12.1v1.1c0,0.6,0.5,1.1,1.1,1.1c0.6,0,1.1-0.5,1.1-1.1V6.1V5V2.8c0-0.4,0.1-0.8,0.3-1.1H4.4c-0.9,0-1.7,0.7-1.7,1.7V11h6.6V12
	V12.1z M14.9,2.8V5h-2.2V2.8c0-0.6,0.5-1.1,1.1-1.1S14.9,2.1,14.9,2.8z"/>
</svg>
