<?xml version="1.0" encoding="utf-8"?>
<!-- 
  Copyright (c) 2022, WSO2 LLC. (http://www.wso2.com). All Rights Reserved.
 
 - This software is the property of WSO2 Inc. and its suppliers, if any.
 - Dissemination of any information or reproduction of any material contained
 - herein is strictly forbidden, unless permitted by WSO2 in accordance with
 - the WSO2 Commercial License available at http://wso2.com/licenses.
 - For specific language governing the permissions and limitations under
 - this license, please see the license as well as any agreement you’ve
 - entered into with WSO2 governing the purchase of this software and any
 - associated services.
 -->
 <svg version="1.1" id="Layer_1" x="0px" y="0px" viewBox="0 0 16 16">
<path class="st0" d="M10.9,0.9c0.2-0.2,0.6-0.2,0.8,0L15.8,5C16,5.1,16,5.3,16,5.4c0,0.2,0,0.3-0.2,0.4L11.7,10
	c-0.2,0.2-0.6,0.2-0.8,0s-0.2-0.6,0-0.8l3.8-3.8l-3.8-3.8C10.7,1.4,10.7,1.1,10.9,0.9z M9.2,3.4c0.3,0,0.5,0.2,0.5,0.5
	c0,0.3-0.2,0.5-0.4,0.5l-0.1,0H1.6c-0.3,0-0.5,0.2-0.5,0.4l0,0.1v8.6c0,0.3,0.2,0.5,0.4,0.5l0.1,0h11.9c0.3,0,0.5-0.2,0.5-0.4l0-0.1
	v-2.2c0-0.3,0.2-0.5,0.5-0.5c0.3,0,0.5,0.2,0.5,0.4l0,0.1v2.2c0,0.8-0.6,1.5-1.5,1.6l-0.2,0H1.6c-0.8,0-1.5-0.6-1.6-1.5l0-0.2V5
	c0-0.8,0.6-1.5,1.5-1.6l0.2,0H9.2z"/>
</svg>
