<?xml version="1.0" encoding="utf-8"?>
<!-- 
  Copyright (c) 2022, WSO2 LLC. (http://www.wso2.com). All Rights Reserved.
 
 - This software is the property of WSO2 Inc. and its suppliers, if any.
 - Dissemination of any information or reproduction of any material contained
 - herein is strictly forbidden, unless permitted by WSO2 in accordance with
 - the WSO2 Commercial License available at http://wso2.com/licenses.
 - For specific language governing the permissions and limitations under
 - this license, please see the license as well as any agreement you’ve
 - entered into with WSO2 governing the purchase of this software and any
 - associated services.
 -->
 <svg version="1.1" id="Layer_1" x="0px" y="0px" viewBox="0 0 16 16">
<path class="st0" d="M6.6,0C2.9,0,0,2.9,0,6.6s2.9,6.6,6.6,6.6c1.5,0,2.8-0.5,3.9-1.3l3.9,3.8l0.1,0.1c0.4,0.3,0.9,0.2,1.2-0.1
	c0.4-0.4,0.4-1,0-1.3l-3.9-3.8c0.8-1.1,1.3-2.5,1.3-4C13.2,2.9,10.2,0,6.6,0z M6.6,1.9c2.6,0,4.7,2.1,4.7,4.7s-2.1,4.7-4.7,4.7
	S1.9,9.2,1.9,6.6S4,1.9,6.6,1.9z"/>
</svg>
