<?xml version="1.0" encoding="utf-8"?>
<!-- 
  Copyright (c) 2022, WSO2 LLC. (http://www.wso2.com). All Rights Reserved.
 
 - This software is the property of WSO2 Inc. and its suppliers, if any.
 - Dissemination of any information or reproduction of any material contained
 - herein is strictly forbidden, unless permitted by WSO2 in accordance with
 - the WSO2 Commercial License available at http://wso2.com/licenses.
 - For specific language governing the permissions and limitations under
 - this license, please see the license as well as any agreement you’ve
 - entered into with WSO2 governing the purchase of this software and any
 - associated services.
 -->
 <svg version="1.1" id="Layer_1" x="0px" y="0px" viewBox="0 0 16 16">
<path class="st0" d="M6.9,0C3.1,0,0,3.1,0,6.9c0,3.8,3.1,6.9,6.9,6.9c1.7,0,3.3-0.6,4.5-1.7l3.6,3.6l0.1,0.1
	c0.2,0.1,0.5,0.1,0.7-0.1c0.2-0.2,0.2-0.5,0-0.8l-3.6-3.6c1-1.2,1.7-2.8,1.7-4.5C13.9,3.1,10.8,0,6.9,0z M6.9,1.1
	c3.2,0,5.9,2.6,5.9,5.9c0,3.2-2.6,5.9-5.9,5.9c-3.2,0-5.9-2.6-5.9-5.9C1.1,3.7,3.7,1.1,6.9,1.1z"/>
</svg>
