<?xml version="1.0" encoding="utf-8"?>
<!-- 
  Copyright (c) 2022, WSO2 LLC. (http://www.wso2.com). All Rights Reserved.
 
 - This software is the property of WSO2 Inc. and its suppliers, if any.
 - Dissemination of any information or reproduction of any material contained
 - herein is strictly forbidden, unless permitted by WSO2 in accordance with
 - the WSO2 Commercial License available at http://wso2.com/licenses.
 - For specific language governing the permissions and limitations under
 - this license, please see the license as well as any agreement you’ve
 - entered into with WSO2 governing the purchase of this software and any
 - associated services.
 -->
 <svg version="1.1" id="Layer_1" x="0px" y="0px" viewBox="0 0 16 16">
<path d="M8.1,0L1.7,2.1v5.4c0.1,3.6,1.9,6.1,4.7,7.6L8.1,16l1.7-0.8c3.3-1.9,4.5-4,4.7-7.6V2.1L8.1,0z M13.4,7.5
	c0,2.8-1.6,5.4-4.1,6.7l-1.2,0.6l-1.2-0.6c-2.5-1.3-4.1-3.9-4.1-6.7V2.9l5.3-1.8l5.3,1.8V7.5z M7.3,8.8L10.6,5
	c0.2-0.2,0.5-0.2,0.8-0.1c0.2,0.2,0.2,0.5,0.1,0.8L7.7,10c-0.1,0.1-0.2,0.2-0.4,0.2c-0.1,0-0.3-0.1-0.4-0.2L4.8,7.9
	c-0.2-0.2-0.2-0.5,0-0.7c0.2-0.2,0.5-0.2,0.7,0L7.3,8.8z"/>
</svg>
