<?xml version="1.0" encoding="utf-8"?>
<!-- 
  Copyright (c) 2022, WSO2 LLC. (http://www.wso2.com). All Rights Reserved.
 
 - This software is the property of WSO2 Inc. and its suppliers, if any.
 - Dissemination of any information or reproduction of any material contained
 - herein is strictly forbidden, unless permitted by WSO2 in accordance with
 - the WSO2 Commercial License available at http://wso2.com/licenses.
 - For specific language governing the permissions and limitations under
 - this license, please see the license as well as any agreement you’ve
 - entered into with WSO2 governing the purchase of this software and any
 - associated services.
 -->
 <svg version="1.1" id="Layer_1" x="0px" y="0px" viewBox="0 0 16 16">
<path class="st0" d="M9.1,0.6C9.1,0.3,8.9,0,8.6,0H1.7L1.5,0C0.7,0.1,0,0.8,0,1.7v12.6l0,0.2C0.1,15.3,0.8,16,1.7,16h12.6l0.2,0
	c0.9-0.1,1.5-0.8,1.5-1.7v-3.4l0-0.1c0-0.3-0.3-0.5-0.6-0.5c-0.3,0-0.6,0.3-0.6,0.6v3.4l0,0.1c0,0.3-0.3,0.5-0.6,0.5H1.7l-0.1,0
	c-0.3,0-0.5-0.3-0.5-0.6V1.7l0-0.1c0-0.3,0.3-0.5,0.6-0.5h6.9l0.1,0C8.9,1.1,9.1,0.9,9.1,0.6z M15.4,3.9c0.2-0.2,0.1-0.5-0.1-0.7
	l-0.1-0.1C15,2.9,14.7,3,14.5,3.2L9.2,8.4L6.1,5.3L6,5.2C5.8,5.1,5.5,5.1,5.3,5.3c-0.2,0.2-0.2,0.6,0,0.8l3.9,3.9L15.4,3.9L15.4,3.9
	z"/>
</svg>
