<?xml version="1.0" encoding="utf-8"?>
<!-- 
  Copyright (c) 2022, WSO2 LLC. (http://www.wso2.com). All Rights Reserved.
 
 - This software is the property of WSO2 Inc. and its suppliers, if any.
 - Dissemination of any information or reproduction of any material contained
 - herein is strictly forbidden, unless permitted by WSO2 in accordance with
 - the WSO2 Commercial License available at http://wso2.com/licenses.
 - For specific language governing the permissions and limitations under
 - this license, please see the license as well as any agreement you’ve
 - entered into with WSO2 governing the purchase of this software and any
 - associated services.
 -->
 <svg version="1.1" id="Layer_1" x="0px" y="0px" viewBox="0 0 16 16">
<path class="st0" d="M8-0.8c2,0,3.6,1.6,3.7,3.6l0,0.2v2.2H13c1.5,0,2.7,1.1,2.7,2.6l0,0.2v6c0,1.5-1.2,2.8-2.8,2.8H3
	c-1.5,0-2.8-1.2-2.8-2.8V8c0-1.5,1.2-2.8,2.8-2.8h1.2V3C4.2,0.9,5.9-0.8,8-0.8z M13,6.8H3C2.3,6.8,1.8,7.3,1.8,8v6
	c0,0.7,0.6,1.2,1.2,1.2h10c0.7,0,1.2-0.6,1.2-1.2V8C14.2,7.3,13.7,6.8,13,6.8z M8,7.8c0.4,0,0.7,0.3,0.7,0.6l0,0.1l0,0.9
	c0.9,0.3,1.5,1.1,1.5,2.1c0,1.2-1,2.2-2.2,2.2c-1.2,0-2.2-1-2.2-2.2c0-1,0.6-1.8,1.5-2.1l0-0.9C7.2,8.1,7.6,7.8,8,7.8z M8,10.8
	c-0.4,0-0.8,0.3-0.8,0.8s0.3,0.8,0.8,0.8s0.8-0.3,0.8-0.8S8.4,10.8,8,10.8z M8,0.8c-1.2,0-2.2,0.9-2.2,2.1l0,0.2v2.2h4.5V3
	C10.2,1.8,9.2,0.8,8,0.8z"/>
</svg>
