<?xml version="1.0" encoding="utf-8"?>
<!-- 
  Copyright (c) 2022, WSO2 LLC. (http://www.wso2.com). All Rights Reserved.
 
 - This software is the property of WSO2 Inc. and its suppliers, if any.
 - Dissemination of any information or reproduction of any material contained
 - herein is strictly forbidden, unless permitted by WSO2 in accordance with
 - the WSO2 Commercial License available at http://wso2.com/licenses.
 - For specific language governing the permissions and limitations under
 - this license, please see the license as well as any agreement you’ve
 - entered into with WSO2 governing the purchase of this software and any
 - associated services.
 -->
 <svg version="1.1" id="Layer_1" x="0px" y="0px" viewBox="0 0 16 16">
<path d="M8.6,0.1C9,0.2,9.3,0.5,9.4,0.9L9.5,1l0.2,0.6c0.2,0.7,1,1,1.6,0.8l0.1,0l0.1,0L12,2.1c0.8-0.4,1.7,0,2,0.7
	c0.2,0.4,0.2,0.8,0,1.2L14,4.1l-0.3,0.5c-0.3,0.6,0,1.4,0.6,1.7l0.1,0l0.1,0L15,6.6c0.8,0.3,1.2,1.2,0.9,2c-0.1,0.4-0.4,0.7-0.8,0.9
	L15,9.5l-0.6,0.2c-0.7,0.2-1,1-0.8,1.6l0,0.1l0,0.1l0.3,0.5c0.4,0.8,0,1.7-0.7,2c-0.4,0.2-0.8,0.2-1.2,0L11.9,14l-0.5-0.3
	c-0.6-0.3-1.4,0-1.7,0.6l0,0.1l0,0.1L9.4,15c-0.3,0.8-1.2,1.2-2,0.9c-0.4-0.1-0.7-0.4-0.9-0.8L6.5,15l-0.2-0.6c-0.2-0.7-1-1-1.6-0.8
	l-0.1,0l-0.1,0L4,13.9c-0.8,0.4-1.7,0-2-0.7c-0.2-0.4-0.2-0.8,0-1.2L2,11.9l0.3-0.5c0.3-0.6,0-1.4-0.6-1.7l-0.1,0l-0.1,0L1,9.4
	c-0.8-0.3-1.2-1.2-0.9-2C0.2,7,0.5,6.7,0.9,6.6L1,6.5l0.6-0.2c0.7-0.2,1-1,0.8-1.6l0-0.1l0-0.1L2.1,4c-0.4-0.8,0-1.7,0.7-2
	c0.4-0.2,0.8-0.2,1.2,0L4.1,2l0.5,0.3c0.6,0.3,1.4,0,1.7-0.6l0-0.1l0-0.1L6.6,1C6.9,0.2,7.8-0.2,8.6,0.1z M7.8,1.3L7.8,1.3L7.7,1.4
	L7.5,2c0,0.1-0.1,0.2-0.1,0.2C6.9,3.4,5.5,3.9,4.3,3.4L4.2,3.3L3.6,3.1c-0.1,0-0.2,0-0.3,0C3.2,3.1,3.1,3.3,3.1,3.5l0,0.1l0.3,0.5
	c0,0.1,0.1,0.2,0.1,0.2c0.4,1.2-0.2,2.6-1.4,3.1L2,7.4L1.4,7.6c-0.1,0-0.2,0.1-0.2,0.2C1.1,8,1.2,8.2,1.3,8.2l0.1,0L2,8.5
	c0.1,0,0.2,0.1,0.2,0.1c1.2,0.6,1.7,1.9,1.2,3.1l-0.1,0.1l-0.3,0.5c0,0.1,0,0.2,0,0.3c0.1,0.2,0.2,0.2,0.4,0.2l0.1,0l0.5-0.3
	c0.1,0,0.2-0.1,0.2-0.1c1.2-0.4,2.6,0.2,3.1,1.4L7.4,14l0.2,0.6c0,0.1,0.1,0.2,0.2,0.2c0.2,0.1,0.3,0,0.4-0.1l0-0.1L8.5,14
	c0-0.1,0.1-0.2,0.1-0.2c0.6-1.2,1.9-1.7,3.1-1.2l0.1,0.1l0.5,0.3c0.1,0,0.2,0,0.3,0c0.2-0.1,0.2-0.2,0.2-0.4l0-0.1l-0.3-0.5
	c0-0.1-0.1-0.2-0.1-0.2c-0.4-1.2,0.2-2.6,1.4-3.1L14,8.6l0.6-0.2c0.1,0,0.2-0.1,0.2-0.2c0.1-0.2,0-0.3-0.1-0.4l-0.1,0L14,7.5
	c-0.1,0-0.2-0.1-0.2-0.1c-1.2-0.6-1.7-1.9-1.2-3.1l0.1-0.1l0.3-0.5c0-0.1,0-0.2,0-0.3c-0.1-0.2-0.2-0.2-0.4-0.2l-0.1,0l-0.5,0.3
	c-0.1,0-0.2,0.1-0.2,0.1c-1.2,0.4-2.6-0.2-3.1-1.4L8.6,2L8.4,1.4c0-0.1-0.1-0.2-0.2-0.2C8,1.1,7.9,1.2,7.8,1.3z M8,4.7
	c1.8,0,3.3,1.5,3.3,3.3S9.8,11.3,8,11.3S4.7,9.8,4.7,8S6.2,4.7,8,4.7z M8,5.4C6.6,5.4,5.4,6.6,5.4,8s1.2,2.6,2.6,2.6
	s2.6-1.2,2.6-2.6S9.4,5.4,8,5.4z"/>
</svg>
