<?xml version="1.0" encoding="utf-8"?>
<!-- 
  Copyright (c) 2022, WSO2 LLC. (http://www.wso2.com). All Rights Reserved.
 
 - This software is the property of WSO2 Inc. and its suppliers, if any.
 - Dissemination of any information or reproduction of any material contained
 - herein is strictly forbidden, unless permitted by WSO2 in accordance with
 - the WSO2 Commercial License available at http://wso2.com/licenses.
 - For specific language governing the permissions and limitations under
 - this license, please see the license as well as any agreement you’ve
 - entered into with WSO2 governing the purchase of this software and any
 - associated services.
 -->
 <svg version="1.1" id="Layer_1" x="0px" y="0px" viewBox="0 0 16 16">
<path d="M9.4,4.8L9.4,4.8L9.7,6c0.7-0.1,1.3,0,1.9,0.3l0.6-1c0.2-0.3,0.6-0.4,0.9-0.2c0.3,0.2,0.4,0.5,0.3,0.8l0,0.1l-0.6,1
	c0.5,0.4,0.9,0.9,1.2,1.6l1.1-0.3c0.4-0.1,0.7,0.1,0.8,0.5c0.1,0.3-0.1,0.7-0.4,0.8l-0.1,0l-1.1,0.3c0.1,0.7,0,1.3-0.3,1.9l1,0.6
	c0.3,0.2,0.4,0.6,0.2,0.9c-0.2,0.3-0.5,0.4-0.8,0.3l-0.1,0l-1-0.6c-0.4,0.5-0.9,0.9-1.6,1.2l0.3,1.1c0.1,0.4-0.1,0.7-0.5,0.8
	c-0.3,0.1-0.7-0.1-0.8-0.4l0-0.1l-0.3-1.1c-0.7,0.1-1.3,0-1.9-0.3l-0.6,1c-0.2,0.3-0.6,0.4-0.9,0.2c-0.3-0.2-0.4-0.5-0.3-0.8l0-0.1
	l0.6-1C7,13,6.6,12.5,6.3,11.9l-1.1,0.3c-0.4,0.1-0.7-0.1-0.8-0.5c-0.1-0.3,0.1-0.7,0.4-0.8l0.1,0L6,10.6C5.9,9.9,6,9.3,6.2,8.7
	l-1-0.6C4.9,7.9,4.8,7.5,5,7.2c0.2-0.3,0.5-0.4,0.8-0.3l0.1,0l1,0.6C7.3,7,7.8,6.6,8.5,6.3L8.2,5.2C8.1,4.8,8.3,4.5,8.6,4.4
	C9,4.3,9.3,4.5,9.4,4.8z M10.9,0c1.3,0,2.4,1.1,2.4,2.4l0,1.6c-0.6-0.2-1.4,0-1.8,0.6l-0.1,0.1l-0.2,0.4l0,0l-0.3,0l-0.3,0l-0.3,0
	l0,0l-0.1-0.4l0-0.1l0-0.1l-0.1-0.1c-0.3-0.6-1-0.9-1.6-0.8l-0.1,0l-0.1,0L8.1,3.6c-0.6,0.3-1,1-0.9,1.7l0,0.1l0.1,0.4l0,0L7.2,6
	L7,6.2L6.8,6.4l0,0L6.3,6.2L6.2,6.1L6.1,6c-0.7-0.2-1.4,0-1.8,0.6L4.2,6.7L4.2,6.9L4.1,7c-0.2,0.7,0,1.4,0.6,1.8l0.1,0.1l0.4,0.2
	L5.1,9.4l0,0.3l0,0.3l0,0l-0.4,0.1l-0.1,0l-0.1,0.1c-0.6,0.3-1,1-0.9,1.7l0,0.1l0,0.1l0.1,0.1c0.3,0.6,1,1,1.7,0.9l0.1,0l0.4-0.1
	L6,13.2l0.2,0.2l0.2,0.2l0,0L6.2,14l-0.1,0.1l0,0.1c-0.1,0.3-0.1,0.6,0,0.8l-3.6,0c-1.3,0-2.4-1-2.4-2.3l0-0.1V2.4
	C0,1.1,1,0.1,2.3,0l0.1,0H10.9z M9.4,7.4c-1.5,0.4-2.5,2-2,3.5s2,2.5,3.5,2c1.5-0.4,2.5-2,2-3.5C12.6,7.9,11,7,9.4,7.4z M11,9.9
	c0.1,0.5-0.2,1-0.6,1.1c-0.5,0.1-1-0.2-1.1-0.6c-0.1-0.5,0.2-1,0.6-1.1C10.4,9.2,10.9,9.5,11,9.9z"/>
</svg>
