<?xml version="1.0" encoding="utf-8"?>
<!-- 
  Copyright (c) 2022, WSO2 LLC. (http://www.wso2.com). All Rights Reserved.
 
 - This software is the property of WSO2 Inc. and its suppliers, if any.
 - Dissemination of any information or reproduction of any material contained
 - herein is strictly forbidden, unless permitted by WSO2 in accordance with
 - the WSO2 Commercial License available at http://wso2.com/licenses.
 - For specific language governing the permissions and limitations under
 - this license, please see the license as well as any agreement you’ve
 - entered into with WSO2 governing the purchase of this software and any
 - associated services.
 -->
 <svg version="1.1" id="Layer_1" x="0px" y="0px" viewBox="0 0 16 16">
<path class="st0" d="M11.4,3.2C11.3,1.4,9.8,0,8,0C6.1,0,4.6,1.5,4.6,3.4v2.1H3.4C2,5.5,0.9,6.6,0.9,8v5.5C0.9,14.9,2,16,3.4,16h9.1
	c1.4,0,2.5-1.1,2.5-2.5V8c0-1.4-1.1-2.5-2.5-2.5h-1.1V3.4L11.4,3.2z M10.1,5.5V3.4c0-1.1-0.9-2.1-2.1-2.1c-1.1,0-2,0.8-2.1,1.9
	l0,0.1v2.1H10.1z M8.7,8.4C8.6,8,8.3,7.8,8,7.8c-0.4,0-0.7,0.3-0.7,0.7v0.8c-0.8,0.3-1.4,1-1.4,1.9c0,1.1,0.9,2.1,2.1,2.1
	c1.1,0,2.1-0.9,2.1-2.1c0-0.9-0.6-1.7-1.4-1.9L8.7,8.4L8.7,8.4z M8,10.5c-0.4,0-0.7,0.3-0.7,0.7c0,0.4,0.3,0.7,0.7,0.7
	c0.4,0,0.7-0.3,0.7-0.7C8.7,10.8,8.4,10.5,8,10.5z"/>
</svg>
