<?xml version="1.0" encoding="utf-8"?>
<!-- 
  Copyright (c) 2022, WSO2 LLC. (http://www.wso2.com). All Rights Reserved.
 
 - This software is the property of WSO2 Inc. and its suppliers, if any.
 - Dissemination of any information or reproduction of any material contained
 - herein is strictly forbidden, unless permitted by WSO2 in accordance with
 - the WSO2 Commercial License available at http://wso2.com/licenses.
 - For specific language governing the permissions and limitations under
 - this license, please see the license as well as any agreement you’ve
 - entered into with WSO2 governing the purchase of this software and any
 - associated services.
 -->
 <svg version="1.1" id="Layer_1" x="0px" y="0px" viewBox="0 0 16 16">
<path class="st0" d="M5.5,1.8c0.1,0.1,0.3,0,0.3-0.1c0.6-2.2,3.7-2.2,4.4,0c0,0.1,0.2,0.2,0.3,0.1c1.9-1.3,4.3,0.7,3.3,2.8
	c-0.1,0.1,0,0.3,0.2,0.3c2.3,0.2,2.8,3.3,0.8,4.3c-0.1,0.1-0.1,0.2-0.1,0.3c1.6,1.7,0,4.4-2.2,3.8c-0.1,0-0.2,0.1-0.2,0.2
	c0.2,2.3-2.8,3.4-4.1,1.5c-0.1-0.1-0.2-0.1-0.3,0c-1.3,1.9-4.3,0.8-4.1-1.5c0-0.1-0.1-0.2-0.2-0.2c-2.2,0.6-3.8-2.2-2.2-3.8
	c0.1-0.1,0.1-0.2-0.1-0.3c-2.1-1-1.5-4.1,0.8-4.3c0.1,0,0.2-0.1,0.2-0.3C1.2,2.5,3.6,0.5,5.5,1.8z M9.2,2c-0.3-1.2-2-1.2-2.4,0
	C6.6,2.8,5.6,3.1,4.9,2.6C3.9,1.9,2.6,3,3.1,4.2c0.3,0.8-0.2,1.7-1,1.7C0.9,6,0.6,7.7,1.7,8.3c0.8,0.4,0.9,1.4,0.3,2
	c-0.9,0.9,0,2.4,1.2,2.1c0.8-0.2,1.6,0.4,1.5,1.3c-0.1,1.2,1.5,1.8,2.2,0.8c0.5-0.7,1.5-0.7,2,0c0.7,1,2.3,0.4,2.2-0.8
	c-0.1-0.8,0.7-1.5,1.5-1.3c1.2,0.3,2-1.2,1.2-2.1c-0.6-0.6-0.4-1.6,0.3-2c1.1-0.5,0.8-2.2-0.4-2.3c-0.8-0.1-1.3-1-1-1.7
	c0.5-1.1-0.8-2.2-1.8-1.5C10.4,3.1,9.4,2.8,9.2,2z M8,11.4c1.7,0,3.2-1.4,3.2-3.2S9.7,5,8,5S4.8,6.4,4.8,8.2S6.3,11.4,8,11.4z
	 M8,12.4c2.3,0,4.2-1.9,4.2-4.2C12.2,5.9,10.3,4,8,4C5.7,4,3.8,5.9,3.8,8.2C3.8,10.5,5.7,12.4,8,12.4z M8,8.2C8,8.2,8,8.2,8,8.2
	C8,8.2,8,8.2,8,8.2C8,8.2,8,8.2,8,8.2C8,8.2,8,8.2,8,8.2C8,8.2,8,8.2,8,8.2C8,8.2,8,8.2,8,8.2C8,8.2,8,8.2,8,8.2C8,8.2,8,8.2,8,8.2
	C8,8.2,8,8.2,8,8.2C8,8.1,8,8.1,8,8.2C8,8.1,8,8.1,8,8.2C8,8.1,8,8.1,8,8.2C8,8.1,8,8.1,8,8.2C8,8.1,8,8.1,8,8.2C8,8.1,8,8.1,8,8.2
	C8,8.2,8,8.2,8,8.2z M9,8.2c0,0.6-0.5,1-1,1c-0.6,0-1-0.5-1-1s0.5-1,1-1C8.6,7.1,9,7.6,9,8.2z"/>
</svg>
