<?xml version="1.0" encoding="utf-8"?>
<!-- 
  Copyright (c) 2022, WSO2 LLC. (http://www.wso2.com). All Rights Reserved.
 
 - This software is the property of WSO2 Inc. and its suppliers, if any.
 - Dissemination of any information or reproduction of any material contained
 - herein is strictly forbidden, unless permitted by WSO2 in accordance with
 - the WSO2 Commercial License available at http://wso2.com/licenses.
 - For specific language governing the permissions and limitations under
 - this license, please see the license as well as any agreement you’ve
 - entered into with WSO2 governing the purchase of this software and any
 - associated services.
 -->
 <svg version="1.1" id="Layer_1" x="0px" y="0px" viewBox="0 0 16 16">
<path class="st0" d="M2.7,8c0,0.7-0.6,1.3-1.3,1.3S0,8.7,0,8s0.6-1.3,1.3-1.3S2.7,7.3,2.7,8z M9.3,8c0,0.7-0.6,1.3-1.3,1.3
	S6.7,8.7,6.7,8S7.3,6.7,8,6.7S9.3,7.3,9.3,8z M14.7,9.3C15.4,9.3,16,8.7,16,8s-0.6-1.3-1.3-1.3S13.3,7.3,13.3,8S13.9,9.3,14.7,9.3z"
	/>
</svg>
