<?xml version="1.0" encoding="utf-8"?>
<!-- 
  Copyright (c) 2022, WSO2 LLC. (http://www.wso2.com). All Rights Reserved.
 
 - This software is the property of WSO2 Inc. and its suppliers, if any.
 - Dissemination of any information or reproduction of any material contained
 - herein is strictly forbidden, unless permitted by WSO2 in accordance with
 - the WSO2 Commercial License available at http://wso2.com/licenses.
 - For specific language governing the permissions and limitations under
 - this license, please see the license as well as any agreement you’ve
 - entered into with WSO2 governing the purchase of this software and any
 - associated services.
 -->
<svg version="1.1" id="Layer_1" x="0px" y="0px" viewBox="0 0 16 16">
<path class="st0" d="M8,2C5.4,2,2.9,3,0.5,7.2L0,8l0.5,0.8l0.2,0.4C3,13.1,5.5,14,8,14c2.6,0,5.1-1,7.5-5.2L16,8l-0.7-1.2
	C13,2.9,10.5,2,8,2z M8.2,3.1c2.1,0.1,4.2,0.8,6.4,4.4L14.9,8l-0.1,0.2c-2.3,3.9-4.5,4.7-6.8,4.7c-2.2,0-4.4-0.7-6.6-4.4L1.1,8
	l0.1-0.2C3.5,3.9,5.8,3.1,8,3.1L8.2,3.1z M8,5c1.7,0,3,1.3,3,3s-1.3,3-3,3S5,9.7,5,8S6.3,5,8,5z M8,6C6.9,6,6,6.9,6,8s0.9,2,2,2
	s2-0.9,2-2S9.1,6,8,6z"/>
</svg>
