<?xml version="1.0" encoding="utf-8"?>
<!-- 
  Copyright (c) 2022, WSO2 LLC. (http://www.wso2.com). All Rights Reserved.
 
 - This software is the property of WSO2 Inc. and its suppliers, if any.
 - Dissemination of any information or reproduction of any material contained
 - herein is strictly forbidden, unless permitted by WSO2 in accordance with
 - the WSO2 Commercial License available at http://wso2.com/licenses.
 - For specific language governing the permissions and limitations under
 - this license, please see the license as well as any agreement you’ve
 - entered into with WSO2 governing the purchase of this software and any
 - associated services.
 -->
<svg version="1.1" id="Layer_1" x="0px" y="0px" viewBox="0 0 16 16">
<path d="M3.8,0.1l0.4,0.4c0,0,0,0,0,0l3,3c0.2,0.2,0.2,0.5,0,0.7c-0.2,0.2-0.5,0.2-0.7,0L4.2,2.1v9.3
	c0,0.3-0.2,0.5-0.5,0.5s-0.5-0.2-0.5-0.5V2.1L1.1,4.2c-0.2,0.2-0.5,0.2-0.7,0C0.2,4,0.2,3.7,0.4,3.5l3-3c0,0,0,0,0,0L3.8,0.1z
	 M4.8,15.4c0,0.3,0.2,0.5,0.5,0.5h10c0.3,0,0.5-0.2,0.5-0.5c0-0.3-0.2-0.5-0.5-0.5h-10C5,14.9,4.8,15.1,4.8,15.4z M7.8,11.4
	c0,0.3,0.2,0.5,0.5,0.5h7c0.3,0,0.5-0.2,0.5-0.5c0-0.3-0.2-0.5-0.5-0.5h-7C8,10.9,7.8,11.1,7.8,11.4z M11.2,7.9
	c-0.3,0-0.5-0.2-0.5-0.5c0-0.3,0.2-0.5,0.5-0.5h4c0.3,0,0.5,0.2,0.5,0.5c0,0.3-0.2,0.5-0.5,0.5H11.2z M13.8,3.4
	c0,0.3,0.2,0.5,0.5,0.5h1c0.3,0,0.5-0.2,0.5-0.5c0-0.3-0.2-0.5-0.5-0.5h-1C14,2.9,13.8,3.1,13.8,3.4z"/>
</svg>
