<?xml version="1.0" encoding="utf-8"?>
<!-- 
  Copyright (c) 2022, WSO2 LLC. (http://www.wso2.com). All Rights Reserved.
 
 - This software is the property of WSO2 Inc. and its suppliers, if any.
 - Dissemination of any information or reproduction of any material contained
 - herein is strictly forbidden, unless permitted by WSO2 in accordance with
 - the WSO2 Commercial License available at http://wso2.com/licenses.
 - For specific language governing the permissions and limitations under
 - this license, please see the license as well as any agreement you’ve
 - entered into with WSO2 governing the purchase of this software and any
 - associated services.
 -->
 <svg version="1.1" id="Layer_1" x="0px" y="0px" viewBox="0 0 16 16">
<path class="st0" d="M15,2.5C15,2.8,14.8,3,14.5,3S14,2.8,14,2.5S14.2,2,14.5,2S15,2.2,15,2.5z M16,2.5C16,3.3,15.3,4,14.5,4
	c-0.1,0-0.1,0-0.2,0l-2.8,5.4c0.3,0.3,0.4,0.6,0.4,1.1c0,0.8-0.7,1.5-1.5,1.5C9.7,12,9,11.3,9,10.5c0-0.2,0-0.3,0.1-0.5L6.3,7.8
	C6.1,7.9,5.8,8,5.5,8C5.4,8,5.4,8,5.3,8l-2.7,4.5c0.2,0.3,0.4,0.6,0.4,1C3,14.3,2.3,15,1.5,15C0.7,15,0,14.3,0,13.5S0.7,12,1.5,12
	c0.1,0,0.2,0,0.3,0l2.6-4.5C4.2,7.3,4,6.9,4,6.5C4,5.7,4.7,5,5.5,5S7,5.7,7,6.5C7,6.7,7,6.8,6.9,7l2.8,2.2C9.9,9.1,10.2,9,10.5,9
	c0.1,0,0.1,0,0.2,0l2.8-5.5c-0.3-0.3-0.4-0.6-0.4-1C13,1.7,13.7,1,14.5,1S16,1.7,16,2.5z M5.5,7C5.8,7,6,6.8,6,6.5S5.8,6,5.5,6
	S5,6.2,5,6.5S5.2,7,5.5,7z M1.5,14C1.8,14,2,13.8,2,13.5S1.8,13,1.5,13S1,13.2,1,13.5S1.2,14,1.5,14z M11,10.5
	c0,0.3-0.2,0.5-0.5,0.5S10,10.8,10,10.5s0.2-0.5,0.5-0.5S11,10.2,11,10.5z"/>
</svg>
