<?xml version="1.0" encoding="utf-8"?>
<!-- 
  Copyright (c) 2022, WSO2 LLC. (http://www.wso2.com). All Rights Reserved.
 
 - This software is the property of WSO2 Inc. and its suppliers, if any.
 - Dissemination of any information or reproduction of any material contained
 - herein is strictly forbidden, unless permitted by WSO2 in accordance with
 - the WSO2 Commercial License available at http://wso2.com/licenses.
 - For specific language governing the permissions and limitations under
 - this license, please see the license as well as any agreement you’ve
 - entered into with WSO2 governing the purchase of this software and any
 - associated services.
 -->
 <svg version="1.1" id="Layer_1" x="0px" y="0px" viewBox="0 0 16 16">
<path class="st0" d="M2,1.5C1.7,1.5,1.5,1.7,1.5,2S1.7,2.5,2,2.5c6.4,0,11.5,5.1,11.5,11.5c0,0.3,0.2,0.5,0.5,0.5s0.5-0.2,0.5-0.5
	C14.5,7.1,8.9,1.5,2,1.5z M1.5,8c0-0.3,0.2-0.5,0.5-0.5c3.6,0,6.5,2.9,6.5,6.5c0,0.3-0.2,0.5-0.5,0.5S7.5,14.3,7.5,14
	C7.5,11,5,8.5,2,8.5C1.7,8.5,1.5,8.3,1.5,8z M3,14c0,0.6-0.4,1-1,1s-1-0.4-1-1s0.4-1,1-1S3,13.4,3,14z"/>
</svg>
