<?xml version="1.0" encoding="utf-8"?>
<!-- 
  Copyright (c) 2022, WSO2 LLC. (http://www.wso2.com). All Rights Reserved.
 
 - This software is the property of WSO2 Inc. and its suppliers, if any.
 - Dissemination of any information or reproduction of any material contained
 - herein is strictly forbidden, unless permitted by WSO2 in accordance with
 - the WSO2 Commercial License available at http://wso2.com/licenses.
 - For specific language governing the permissions and limitations under
 - this license, please see the license as well as any agreement you’ve
 - entered into with WSO2 governing the purchase of this software and any
 - associated services.
 -->
 <svg version="1.1" id="Layer_1" x="0px" y="0px" viewBox="0 0 16 16">
<path class="st0" d="M2,1.5h4c0.3,0,0.5,0.2,0.5,0.5v4c0,0.3-0.2,0.5-0.5,0.5H2C1.7,6.5,1.5,6.3,1.5,6V2C1.5,1.7,1.7,1.5,2,1.5z
	 M0,2c0-1.1,0.9-2,2-2h4c1.1,0,2,0.9,2,2v4c0,1.1-0.9,2-2,2H2C0.9,8,0,7.1,0,6V2z M2,10.5h4c0.3,0,0.5,0.2,0.5,0.5v3
	c0,0.3-0.2,0.5-0.5,0.5H2c-0.3,0-0.5-0.2-0.5-0.5v-3C1.5,10.7,1.7,10.5,2,10.5z M0,11c0-1.1,0.9-2,2-2h4c1.1,0,2,0.9,2,2v3
	c0,1.1-0.9,2-2,2H2c-1.1,0-2-0.9-2-2V11z M14,8.5h-3c-0.3,0-0.5,0.2-0.5,0.5v5c0,0.3,0.2,0.5,0.5,0.5h3c0.3,0,0.5-0.2,0.5-0.5V9
	C14.5,8.7,14.3,8.5,14,8.5z M11,7C9.9,7,9,7.9,9,9v5c0,1.1,0.9,2,2,2h3c1.1,0,2-0.9,2-2V9c0-1.1-0.9-2-2-2H11z M11,1.5h3
	c0.3,0,0.5,0.2,0.5,0.5v2c0,0.3-0.2,0.5-0.5,0.5h-3c-0.3,0-0.5-0.2-0.5-0.5V2C10.5,1.7,10.7,1.5,11,1.5z M9,2c0-1.1,0.9-2,2-2h3
	c1.1,0,2,0.9,2,2v2c0,1.1-0.9,2-2,2h-3C9.9,6,9,5.1,9,4V2z"/>
</svg>
