<?xml version="1.0" encoding="utf-8"?>
<!-- 
  Copyright (c) 2022, WSO2 LLC. (http://www.wso2.com). All Rights Reserved.
 
 - This software is the property of WSO2 Inc. and its suppliers, if any.
 - Dissemination of any information or reproduction of any material contained
 - herein is strictly forbidden, unless permitted by WSO2 in accordance with
 - the WSO2 Commercial License available at http://wso2.com/licenses.
 - For specific language governing the permissions and limitations under
 - this license, please see the license as well as any agreement you’ve
 - entered into with WSO2 governing the purchase of this software and any
 - associated services.
 -->
<svg version="1.1" id="Layer_1" x="0px" y="0px" viewBox="0 0 16 16">
<path class="st0" d="M11.5,0C10.2,0,9.1,1,9,2.3l0,0.2v4.9c0,0.1,0,0.1,0.1,0.2c0.1,0.1,0.2,0.1,0.3,0l0.1,0L12,5h1.5
	c1.3,0,2.3-0.9,2.5-2.2l0-0.2l0-0.2c0-1.3-1-2.4-2.3-2.5l-0.2,0H11.5z M11.5,1h2c0.8,0,1.4,0.6,1.5,1.4l0,0.1l0,0.1
	c0,0.7-0.6,1.3-1.4,1.4l-0.1,0h-1.9L10,5.6V2.5c0-0.8,0.6-1.4,1.4-1.5L11.5,1z M15,2.5L15,2.5L15,2.5L15,2.5z M3,6.5
	C3,5.1,4.1,4,5.5,4S8,5.1,8,6.5S6.9,9,5.5,9S3,7.9,3,6.5z M7,6.5C7,5.7,6.3,5,5.5,5S4,5.7,4,6.5S4.7,8,5.5,8S7,7.3,7,6.5z M1,16H0
	v-0.4c0-0.2,0-0.4,0-0.6c0.3-2.8,2.6-5,5.5-5c2.9,0,5.2,2.2,5.5,5c0,0.2,0,0.4,0,0.6V16h-1H1z M10,15c-0.3-2.3-2.2-4-4.5-4
	S1.3,12.7,1,15H10z"/>
</svg>
