<?xml version="1.0" encoding="utf-8"?>
<!-- 
  Copyright (c) 2022, WSO2 LLC. (http://www.wso2.com). All Rights Reserved.
 
 - This software is the property of WSO2 Inc. and its suppliers, if any.
 - Dissemination of any information or reproduction of any material contained
 - herein is strictly forbidden, unless permitted by WSO2 in accordance with
 - the WSO2 Commercial License available at http://wso2.com/licenses.
 - For specific language governing the permissions and limitations under
 - this license, please see the license as well as any agreement you’ve
 - entered into with WSO2 governing the purchase of this software and any
 - associated services.
 -->
 <svg version="1.1" id="Layer_1" x="0px" y="0px" viewBox="0 0 16 16">
<path class="st0" d="M5.7,0.6h-4C0.8,0.6,0,1.3,0,2.3v3.4c0,0.9,0.8,1.7,1.7,1.7h4c0.9,0,1.7-0.8,1.7-1.7V2.3
	C7.4,1.3,6.7,0.6,5.7,0.6z M1.1,2.3c0-0.3,0.3-0.6,0.6-0.6h4C6,1.7,6.3,2,6.3,2.3v3.4C6.3,6,6,6.3,5.7,6.3h-4C1.4,6.3,1.1,6,1.1,5.7
	V2.3z M5.7,8.6h-4C0.8,8.6,0,9.3,0,10.3v3.4c0,0.9,0.8,1.7,1.7,1.7h4c0.9,0,1.7-0.8,1.7-1.7v-3.4C7.4,9.3,6.7,8.6,5.7,8.6z
	 M1.1,10.3c0-0.3,0.3-0.6,0.6-0.6h4c0.3,0,0.6,0.3,0.6,0.6v3.4c0,0.3-0.3,0.6-0.6,0.6h-4c-0.3,0-0.6-0.3-0.6-0.6V10.3z M10.3,0.6h4
	c0.9,0,1.7,0.8,1.7,1.7v3.4c0,0.9-0.8,1.7-1.7,1.7h-4c-0.9,0-1.7-0.8-1.7-1.7V2.3C8.6,1.3,9.3,0.6,10.3,0.6z M10.3,1.7
	C10,1.7,9.7,2,9.7,2.3v3.4c0,0.3,0.3,0.6,0.6,0.6h4c0.3,0,0.6-0.3,0.6-0.6V2.3c0-0.3-0.3-0.6-0.6-0.6H10.3z M14.3,8.6h-4
	c-0.9,0-1.7,0.8-1.7,1.7v3.4c0,0.9,0.8,1.7,1.7,1.7h4c0.9,0,1.7-0.8,1.7-1.7v-3.4C16,9.3,15.2,8.6,14.3,8.6z M9.7,10.3
	c0-0.3,0.3-0.6,0.6-0.6h4c0.3,0,0.6,0.3,0.6,0.6v3.4c0,0.3-0.3,0.6-0.6,0.6h-4c-0.3,0-0.6-0.3-0.6-0.6V10.3z"/>
</svg>
