<?xml version="1.0" encoding="utf-8"?>
<!-- 
  Copyright (c) 2022, WSO2 LLC. (http://www.wso2.com). All Rights Reserved.
 
 - This software is the property of WSO2 Inc. and its suppliers, if any.
 - Dissemination of any information or reproduction of any material contained
 - herein is strictly forbidden, unless permitted by WSO2 in accordance with
 - the WSO2 Commercial License available at http://wso2.com/licenses.
 - For specific language governing the permissions and limitations under
 - this license, please see the license as well as any agreement you’ve
 - entered into with WSO2 governing the purchase of this software and any
 - associated services.
 -->
 <svg version="1.1" id="Layer_1" x="0px" y="0px" viewBox="0 0 16 16">
<path d="M3.5,2.6c0.3,0.3,0.3,0.8,0,1.1c-2.5,2.5-2.5,6.5,0,9c2.5,2.5,6.5,2.5,9,0c2.5-2.5,2.5-6.5,0-9c-0.3-0.3-0.3-0.8,0-1.1
	c0.3-0.3,0.8-0.3,1.1,0c3.1,3.1,3.1,8.1,0,11.1c-3.1,3.1-8.1,3.1-11.1,0c-3.1-3.1-3.1-8.1,0-11.1C2.7,2.3,3.2,2.3,3.5,2.6z M8,0
	c0.2,0,0.5,0.2,0.5,0.4l0,0.1v7.6c0,0.3-0.2,0.5-0.5,0.5c-0.2,0-0.5-0.2-0.5-0.4l0-0.1V0.5C7.5,0.2,7.7,0,8,0z"/>
</svg>
