<?xml version="1.0" encoding="utf-8"?>
<!-- 
  Copyright (c) 2022, WSO2 LLC. (http://www.wso2.com). All Rights Reserved.
 
 - This software is the property of WSO2 Inc. and its suppliers, if any.
 - Dissemination of any information or reproduction of any material contained
 - herein is strictly forbidden, unless permitted by WSO2 in accordance with
 - the WSO2 Commercial License available at http://wso2.com/licenses.
 - For specific language governing the permissions and limitations under
 - this license, please see the license as well as any agreement you’ve
 - entered into with WSO2 governing the purchase of this software and any
 - associated services.
 -->
 <svg version="1.1" id="Layer_1" x="0px" y="0px" viewBox="0 0 16 16">
<path class="st0" d="M15.1,5.6c0.3,0,0.5,0.2,0.5,0.5v4l0,0.1c0,0.2-0.2,0.4-0.5,0.4c-0.3,0-0.5-0.2-0.5-0.5V8.6H2.3l5.1,5.1
	l0.1,0.1c0.1,0.2,0.1,0.5-0.1,0.6c-0.2,0.2-0.5,0.2-0.7,0L0.4,8.1l6.4-6.4l0.1-0.1C7,1.6,7.3,1.6,7.5,1.8l0.1,0.1
	C7.6,2,7.6,2.3,7.5,2.5L2.3,7.6h12.3V6.1l0-0.1C14.7,5.8,14.9,5.6,15.1,5.6z"/>
</svg>
