<?xml version="1.0" encoding="utf-8"?>
<!-- 
  Copyright (c) 2022, WSO2 LLC. (http://www.wso2.com). All Rights Reserved.
 
 - This software is the property of WSO2 Inc. and its suppliers, if any.
 - Dissemination of any information or reproduction of any material contained
 - herein is strictly forbidden, unless permitted by WSO2 in accordance with
 - the WSO2 Commercial License available at http://wso2.com/licenses.
 - For specific language governing the permissions and limitations under
 - this license, please see the license as well as any agreement you’ve
 - entered into with WSO2 governing the purchase of this software and any
 - associated services.
 -->
 <svg version="1.1" id="Layer_1" x="0px" y="0px" viewBox="0 0 16 16">
<path d="M6.5,10.6c0.2,0,0.4-0.2,0.5-0.4l0-0.1c0-0.2-0.2-0.4-0.4-0.5L2.2,9c1.5-2.9,5-4.2,8.1-2.9
	c3.2,1.4,4.7,5.1,3.3,8.3c-0.1,0.3,0,0.5,0.3,0.7c0.3,0.1,0.5,0,0.7-0.3c1.6-3.7-0.1-8-3.8-9.6C7.3,3.8,3.5,5.1,1.6,8.1l0.6-4.2
	l0-0.1c0-0.2-0.2-0.4-0.4-0.5c-0.3,0-0.5,0.1-0.6,0.4L0.3,9.8L6.5,10.6L6.5,10.6z"/>
</svg>
