<?xml version="1.0" encoding="utf-8"?>
<!-- 
  Copyright (c) 2022, WSO2 LLC. (http://www.wso2.com). All Rights Reserved.
 
 - This software is the property of WSO2 Inc. and its suppliers, if any.
 - Dissemination of any information or reproduction of any material contained
 - herein is strictly forbidden, unless permitted by WSO2 in accordance with
 - the WSO2 Commercial License available at http://wso2.com/licenses.
 - For specific language governing the permissions and limitations under
 - this license, please see the license as well as any agreement you’ve
 - entered into with WSO2 governing the purchase of this software and any
 - associated services.
 -->
 <svg version="1.1" id="Layer_1" x="0px" y="0px" viewBox="0 0 16 16">
<path class="st0" d="M2.5,0C1.1,0,0,1.1,0,2.5v8.6c0,0.4,0.2,0.8,0.4,1.1l3.4,3.4C4.1,15.8,4.5,16,4.9,16h5.6c1.4,0,2.5-1.1,2.5-2.5
	V10l1.6,1.6c0.2,0.2,0.5,0.2,0.7,0c0.2-0.2,0.2-0.5,0-0.7l-2.5-2.5l-0.4-0.4l-0.4,0.4L9.6,11c-0.2,0.2-0.2,0.5,0,0.7
	c0.2,0.2,0.5,0.2,0.7,0L12,10v3.5c0,0.8-0.7,1.5-1.5,1.5H5v-3.4C5,11.3,4.7,11,4.4,11H1V2.5C1,1.7,1.7,1,2.5,1h8
	C11.3,1,12,1.7,12,2.5v1.6c0,0.3,0.2,0.5,0.5,0.5S13,4.4,13,4.1V2.5C13,1.1,11.9,0,10.5,0H2.5z M4,12v2.3L1.7,12H4z M3,4.5
	C3,4.2,3.2,4,3.5,4h4C7.8,4,8,4.2,8,4.5S7.8,5,7.5,5h-4C3.2,5,3,4.8,3,4.5z M3,7.5C3,7.2,3.2,7,3.5,7h1C4.8,7,5,7.2,5,7.5
	S4.8,8,4.5,8h-1C3.2,8,3,7.8,3,7.5z"/>
</svg>
