<?xml version="1.0" encoding="utf-8"?>
<!-- 
  Copyright (c) 2022, WSO2 LLC. (http://www.wso2.com). All Rights Reserved.
 
 - This software is the property of WSO2 Inc. and its suppliers, if any.
 - Dissemination of any information or reproduction of any material contained
 - herein is strictly forbidden, unless permitted by WSO2 in accordance with
 - the WSO2 Commercial License available at http://wso2.com/licenses.
 - For specific language governing the permissions and limitations under
 - this license, please see the license as well as any agreement you’ve
 - entered into with WSO2 governing the purchase of this software and any
 - associated services.
 -->
 <svg version="1.1" id="Layer_1" x="0px" y="0px" viewBox="0 0 16 16">
<path class="st0" d="M13.1,7.4c0.2,0.2,0.5,0.2,0.7,0c0.2-0.2,0.2-0.5,0-0.7L8.4,1.1L8,0.8L7.6,1.1l0,0L2.1,6.6C2,6.8,2,7.2,2.1,7.4
	c0.2,0.2,0.5,0.2,0.7,0l4.6-4.6V13h1V2.7L13.1,7.4z M15,14.5c0.2,0,0.4,0.2,0.5,0.4l0,0.1c0,0.8-0.6,1.4-1.4,1.5l-0.1,0H2
	c-0.8,0-1.4-0.6-1.5-1.4l0-0.1c0-0.3,0.2-0.5,0.5-0.5c0.2,0,0.4,0.2,0.5,0.4l0,0.1c0,0.2,0.2,0.4,0.4,0.5l0.1,0h12
	c0.2,0,0.4-0.2,0.5-0.4l0-0.1C14.5,14.7,14.7,14.5,15,14.5z"/>
</svg>
