<?xml version="1.0" encoding="utf-8"?>
<!-- 
  Copyright (c) 2022, WSO2 LLC. (http://www.wso2.com). All Rights Reserved.
 
 - This software is the property of WSO2 Inc. and its suppliers, if any.
 - Dissemination of any information or reproduction of any material contained
 - herein is strictly forbidden, unless permitted by WSO2 in accordance with
 - the WSO2 Commercial License available at http://wso2.com/licenses.
 - For specific language governing the permissions and limitations under
 - this license, please see the license as well as any agreement you’ve
 - entered into with WSO2 governing the purchase of this software and any
 - associated services.
 -->
 <svg version="1.1" id="Layer_1" x="0px" y="0px" viewBox="0 0 16 16">
<path d="M6.6,0.3c0.9-0.5,1.9-0.5,2.8,0L14,3.1c0.9,0.5,1.4,1.3,1.4,2.2v5.5c0,0.9-0.5,1.7-1.4,2.2l-4.6,2.7c-0.9,0.5-1.9,0.5-2.8,0
	L2,12.9c-0.9-0.5-1.4-1.3-1.4-2.2V5.3c0-0.9,0.5-1.7,1.4-2.2L6.6,0.3z M8.7,1.4c-0.4-0.2-1-0.2-1.4,0L2.7,4.1C2.3,4.4,2,4.8,2,5.3
	v5.5c0,0.5,0.3,0.9,0.7,1.1l4.6,2.7c0.4,0.2,1,0.2,1.4,0l4.6-2.7c0.4-0.2,0.7-0.7,0.7-1.1V5.3c0-0.5-0.3-0.9-0.7-1.1L8.7,1.4z
	 M12.5,5.9c0.1,0.2,0,0.4-0.1,0.5l-0.1,0L8.4,8.3l0,3.3c0,0.2-0.2,0.4-0.4,0.4c-0.2,0-0.4-0.1-0.4-0.3l0-0.1l0-3.3L3.9,6.5
	C3.7,6.4,3.6,6.1,3.7,5.9C3.8,5.8,4,5.7,4.2,5.7l0.1,0L8,7.6l3.9-1.8C12.1,5.6,12.4,5.7,12.5,5.9z"/>
</svg>
