<?xml version="1.0" encoding="utf-8"?>
<!-- 
  Copyright (c) 2022, WSO2 LLC. (http://www.wso2.com). All Rights Reserved.
 
 - This software is the property of WSO2 Inc. and its suppliers, if any.
 - Dissemination of any information or reproduction of any material contained
 - herein is strictly forbidden, unless permitted by WSO2 in accordance with
 - the WSO2 Commercial License available at http://wso2.com/licenses.
 - For specific language governing the permissions and limitations under
 - this license, please see the license as well as any agreement you’ve
 - entered into with WSO2 governing the purchase of this software and any
 - associated services.
 -->
 <svg version="1.1" id="Layer_1" x="0px" y="0px" viewBox="0 0 16 16">
<path d="M8,1c0.7,0,1.3,0.3,1.7,0.9L9.8,2l5.9,9.9c0.4,0.6,0.4,1.4,0,2.1c-0.3,0.6-0.9,1-1.6,1l-0.2,0H2.1c-0.7,0-1.4-0.4-1.8-1
	c-0.3-0.6-0.4-1.3-0.1-1.9l0.1-0.1L6.2,2C6.6,1.4,7.3,1,8,1z M8,2C7.7,2,7.3,2.2,7.1,2.4L7.1,2.5l-5.9,9.9c-0.2,0.3-0.2,0.7,0,1
	C1.3,13.8,1.6,14,1.9,14l0.1,0h11.9c0.4,0,0.7-0.2,0.9-0.6c0.2-0.3,0.2-0.6,0.1-0.9l-0.1-0.1L8.9,2.5C8.7,2.2,8.4,2,8,2z M8,11
	c0.6,0,1,0.4,1,1s-0.4,1-1,1c-0.6,0-1-0.4-1-1S7.4,11,8,11z M8,4c0.6,0,1,0.4,1,1v4c0,0.6-0.4,1-1,1c-0.6,0-1-0.4-1-1V5
	C7,4.4,7.4,4,8,4z"/>
</svg>
