<?xml version="1.0" encoding="utf-8"?>
<!-- 
  Copyright (c) 2022, WSO2 LLC. (http://www.wso2.com). All Rights Reserved.
 
 - This software is the property of WSO2 Inc. and its suppliers, if any.
 - Dissemination of any information or reproduction of any material contained
 - herein is strictly forbidden, unless permitted by WSO2 in accordance with
 - the WSO2 Commercial License available at http://wso2.com/licenses.
 - For specific language governing the permissions and limitations under
 - this license, please see the license as well as any agreement you’ve
 - entered into with WSO2 governing the purchase of this software and any
 - associated services.
 -->
 <svg version="1.1" id="Layer_1" x="0px" y="0px" viewBox="0 0 16 16">
<path d="M11.5,3.5C14,3.5,16,5.5,16,8c0,2.5-2,4.5-4.5,4.5c-2.3,0-4.2-1.7-4.5-4l-3.1,0C3.7,9.4,2.9,10,2,10c-1.1,0-2-0.9-2-2
	s0.9-2,2-2c0.9,0,1.7,0.6,1.9,1.5l3.1,0C7.3,5.3,9.2,3.5,11.5,3.5z M11.5,4.5C9.7,4.5,8.2,5.9,8,7.6v0.8c0.2,1.7,1.7,3.1,3.5,3.1
	c1.9,0,3.5-1.6,3.5-3.5S13.4,4.5,11.5,4.5z"/>
</svg>
