<?xml version="1.0" encoding="utf-8"?>
<!-- 
  Copyright (c) 2022, WSO2 LLC. (http://www.wso2.com). All Rights Reserved.
 
 - This software is the property of WSO2 Inc. and its suppliers, if any.
 - Dissemination of any information or reproduction of any material contained
 - herein is strictly forbidden, unless permitted by WSO2 in accordance with
 - the WSO2 Commercial License available at http://wso2.com/licenses.
 - For specific language governing the permissions and limitations under
 - this license, please see the license as well as any agreement you’ve
 - entered into with WSO2 governing the purchase of this software and any
 - associated services.
 -->
<svg version="1.1" id="Layer_1" x="0px" y="0px" viewBox="0 0 16 16">
<path  d="M8,0.0000019C3.5817201,0.0000019,0,3.5817201,0,8c0,4.4182997,3.5817201,8,8,8l0.0328703-0.0001001
	L8.0500002,16c0.0181494,0,0.0362701-0.0002003,0.0543499-0.0007C12.4744997,15.9434996,16,12.3834,16,8
	c0-4.38344-3.5255003-7.9434681-7.8956499-7.9993315C8.0862703,0.0002246,8.0681496,0.0000019,8.0500002,0.0000019
	L8.0328703,0.000068L8,0.0000019z M5.77915,1.35964C4.1478901,1.90496,2.7841799,3.03457,1.93648,4.5H4.43749
	C4.7370801,3.2304499,5.19842,2.1457901,5.77915,1.35964z M1,8c0-0.8807998,0.16268-1.7235999,0.45963-2.5h2.7817798
	C4.11657,6.2880602,4.0500002,7.12883,4.0500002,8c0,0.8711796,0.0665698,1.7119398,0.1914096,2.5H1.45963
	C1.16268,9.7236004,1,8.8808002,1,8z M1.93648,11.5c0.8476999,1.4653997,2.21141,2.5950003,3.84268,3.1403999
	c-0.58073-0.7861996-1.0420799-1.8708-1.34167-3.1403999H1.93648z M5.4703002,11.5
	c0.5386,2.0909996,1.5274,3.4870996,2.56531,3.4998999L8.08391,14.9995003
	C9.1146898,14.9695997,10.0944996,13.5777998,10.6296997,11.5H5.4703002z M11.6625004,11.5
	c-0.2938004,1.2447996-0.743,2.3119001-1.3079004,3.0941c1.5720005-0.5613003,2.8845005-1.6688995,3.7089005-3.0941H11.6625004z
	 M14.5403996,10.5h-2.6817999c0.1248007-0.7880602,0.1914005-1.6288204,0.1914005-2.5c0-0.87117-0.0665998-1.7119398-0.1914005-2.5
	h2.6817999C14.8373003,6.2764001,15,7.1192002,15,8S14.8373003,9.7236004,14.5403996,10.5z M10.8428001,10.5H5.2571702
	c-0.1329203-0.7745399-0.20717-1.6168003-0.20717-2.5s0.0742497-1.7254601,0.20717-2.5h5.5856299
	c0.1329002,0.7745399,0.2072001,1.6167998,0.2072001,2.5S10.9757004,9.7254601,10.8428001,10.5z M11.6625004,4.5h2.401
	C13.2391005,3.07481,11.9266005,1.96725,10.3546,1.40588C10.9195004,2.1880801,11.3687,3.2551601,11.6625004,4.5z
	 M8.0356102,1.00009c-1.03791,0.0128-2.02671,1.40895-2.56531,3.4999099h5.1593995
	C10.0944996,2.4221599,9.1146898,1.03043,8.08391,1.00049L8.0356102,1.00009z"/>
</svg>
