<?xml version="1.0" encoding="utf-8"?>
<!-- 
  Copyright (c) 2022, WSO2 LLC. (http://www.wso2.com). All Rights Reserved.
 
 - This software is the property of WSO2 Inc. and its suppliers, if any.
 - Dissemination of any information or reproduction of any material contained
 - herein is strictly forbidden, unless permitted by WSO2 in accordance with
 - the WSO2 Commercial License available at http://wso2.com/licenses.
 - For specific language governing the permissions and limitations under
 - this license, please see the license as well as any agreement you’ve
 - entered into with WSO2 governing the purchase of this software and any
 - associated services.
 -->
 <svg version="1.1" id="Layer_1" x="0px" y="0px" viewBox="0 0 16 16">
<path d="M4.1936202,1.7322299C4.6624599,1.2633899,5.2983499,1,5.96139,1H10.0386
	c0.6631002,0,1.2988997,0.2633899,1.7678003,0.7322299l2.4614,2.4613903C14.7365999,4.6624599,15,5.2983499,15,5.96139v4.9339099
	c0,0.1338997-0.0464001,0.2637005-0.1314001,0.3671999c-0.217,0.2645006-0.6148996,0.2841005-0.8569002,0.0421l-1.8910999-1.8910799
	C12.3652,8.8235998,12.5,8.1770296,12.5,7.5c0-2.7614198-2.2385998-5-5-5c-0.7973399,0-1.5524402,0.187-2.2225199,0.52
	L4.6588502,3.32744l0.4853396,0.4916L7.23528,5.9370999C7.4048901,6.1089001,7.5,6.3406,7.5,6.5820298
	C7.5,7.0890098,7.0890098,7.5,6.5820298,7.5C6.3406,7.5,6.1089001,7.4048901,5.9370999,7.23528L3.8190401,5.1441898
	l-0.4916-0.4853396L3.02,5.2774801C2.687,5.9475598,2.5,6.7026601,2.5,7.5c0,2.7614002,2.2385802,5,5,5
	c0.6770296,0,1.3235998-0.1348,1.9135199-0.3794003l1.8910799,1.8910999c0.2420006,0.2420006,0.2224007,0.6399002-0.0421,0.8569002
	C11.1590004,14.9535999,11.0291996,15,10.8952999,15H5.96139c-0.6630402,0-1.2989302-0.2634001-1.7677698-0.7321997
	l-2.4613903-2.4614C1.2633899,11.3374996,1,10.7017002,1,10.0386V5.96139c0-0.6630402,0.2633899-1.2989302,0.7322299-1.7677698
	L4.1936202,1.7322299z M9.1460695,11.1468c0.0001307-0.0001001,0.0002508-0.0002003,0.0003805-0.0003996
	c0.19526-0.1952009,0.5118399-0.1952009,0.7070999,0l2.1581497,2.1581993c0.6599007,0.6599007,0.6066008,1.7451-0.1148996,2.3371
	C11.6143999,15.8733997,11.2605,16,10.8952999,16H5.96139c-0.9282598,0-1.8185-0.3687-2.47487-1.0250998l-2.46139-2.4614
	C0.368749,11.8570995,0,10.9668999,0,10.0386V5.96139c0-0.9282598,0.368749-1.8185,1.02513-2.47487l2.46139-2.46139
	C4.14289,0.368749,5.0331302,0,5.96139,0H10.0386c0.9282999,0,1.8184996,0.368749,2.4749002,1.02513l2.4614,2.46139
	C15.6313,4.14289,16,5.0331302,16,5.96139v4.9339099c0,0.3652-0.1266003,0.7191-0.3583002,1.0015001
	c-0.592,0.7215004-1.6771994,0.7748003-2.3371,0.1148996L11.1464005,9.85355c-0.1952009-0.19526-0.1952009-0.5118399,0-0.7070999
	c0.0001993-0.0001297,0.0002995-0.0002499,0.0003996-0.0003805C11.3736,8.6445799,11.5,8.0876598,11.5,7.5
	c0-2.2091398-1.7908602-4-4-4c-0.3860202,0-0.75878,0.0545499-1.11129,0.15626l1.5581899,1.57827
	C8.3012896,5.5934901,8.5,6.07761,8.5,6.5820298C8.5,7.6412902,7.6412902,8.5,6.5820298,8.5
	C6.07761,8.5,5.5934901,8.3012896,5.23453,7.9468999L3.65626,6.38871C3.5545499,6.74122,3.5,7.1139798,3.5,7.5
	c0,2.2091398,1.7908602,4,4,4C8.0876598,11.5,8.6445704,11.3736,9.1460695,11.1468z"/>
</svg>
