<?xml version="1.0" encoding="utf-8"?>
<!-- 
  Copyright (c) 2022, WSO2 LLC. (http://www.wso2.com). All Rights Reserved.
 
 - This software is the property of WSO2 Inc. and its suppliers, if any.
 - Dissemination of any information or reproduction of any material contained
 - herein is strictly forbidden, unless permitted by WSO2 in accordance with
 - the WSO2 Commercial License available at http://wso2.com/licenses.
 - For specific language governing the permissions and limitations under
 - this license, please see the license as well as any agreement you’ve
 - entered into with WSO2 governing the purchase of this software and any
 - associated services.
 -->
 <svg version="1.1" id="Layer_1" x="0px" y="0px" viewBox="0 0 16 16">
<path d="M0,6.5c0-3.5898499,2.9101501-6.4999981,6.5-6.4999981c3.5899,0,6.5,2.9101481,6.5,6.4999981
	c0,1.6149502-0.5889997,3.0923405-1.5637999,4.2291002l3.4173994,3.4173002c0.1952009,0.1952991,0.1952009,0.5118999,0,0.7071991
	c-0.1735992,0.1735001-0.4429998,0.1928005-0.6378994,0.0578003l-0.0692997-0.0578003l-3.4173002-3.4173994
	C9.5923405,12.4111004,8.1149502,13,6.5,13C2.9101501,13,0,10.0899,0,6.5z M12,6.5C12,3.46244,9.53757,1,6.5,1S1,3.46244,1,6.5
	C1,9.53757,3.46243,12,6.5,12S12,9.53757,12,6.5z M9.5,6C9.7761402,6,10,6.2238598,10,6.5S9.7761402,7,9.5,7h-6
	C3.22386,7,3,6.7761402,3,6.5S3.22386,6,3.5,6H9.5z"/>
</svg>
